SourceSans_Black-Italic.ufo
<glyph name="dollar" format="1">
	<unicode hex="0024"/>
	<advance width="520"/>
	<outline>
		<contour>
			<point x="216" y="-12" type="curve" smooth="yes"/>
			<point x="358" y="-12"/>
			<point x="450" y="74"/>
			<point x="450" y="196" type="curve" smooth="yes"/>
			<point x="450" y="354"/>
			<point x="252" y="386"/>
			<point x="252" y="472" type="curve" smooth="yes"/>
			<point x="252" y="504"/>
			<point x="274" y="528"/>
			<point x="314" y="528" type="curve" smooth="yes"/>
			<point x="348" y="528"/>
			<point x="384" y="506"/>
			<point x="412" y="474" type="curve"/>
			<point x="504" y="562" type="line"/>
			<point x="450" y="624"/>
			<point x="396" y="656"/>
			<point x="318" y="656" type="curve" smooth="yes"/>
			<point x="184" y="656"/>
			<point x="94" y="572"/>
			<point x="94" y="454" type="curve" smooth="yes"/>
			<point x="94" y="304"/>
			<point x="292" y="272"/>
			<point x="292" y="176" type="curve" smooth="yes"/>
			<point x="292" y="138"/>
			<point x="268" y="116"/>
			<point x="220" y="116" type="curve" smooth="yes"/>
			<point x="176" y="116"/>
			<point x="132" y="144"/>
			<point x="100" y="178" type="curve"/>
			<point x="10" y="90" type="line"/>
			<point x="64" y="26"/>
			<point x="140" y="-12"/>
		</contour>
		<contour>
			<point x="132" y="-110" type="line"/>
			<point x="236" y="-110" type="line"/>
			<point x="270" y="54" type="line"/>
			<point x="164" y="54" type="line"/>
		</contour>
		<contour>
			<point x="276" y="606" type="line"/>
			<point x="380" y="606" type="line"/>
			<point x="408" y="754" type="line"/>
			<point x="304" y="754" type="line"/>
		</contour>
	</outline>
</glyph>
<glyph name="parenleft" format="1">
	<unicode hex="0028"/>
	<advance width="344"/>
	<outline>
		<contour>
			<point x="288" y="734" type="line"/>
			<point x="134" y="580"/>
			<point x="52" y="372"/>
			<point x="52" y="120" type="curve" smooth="yes"/>
			<point x="52" y="0"/>
			<point x="82" y="-100"/>
			<point x="118" y="-184" type="curve"/>
			<point x="218" y="-142" type="line"/>
			<point x="194" y="-72"/>
			<point x="180" y="18"/>
			<point x="180" y="124" type="curve" smooth="yes"/>
			<point x="180" y="318"/>
			<point x="240" y="530"/>
			<point x="380" y="680" type="curve"/>
		</contour>
	</outline>
</glyph>
<glyph name="parenright" format="1">
	<unicode hex="0029"/>
	<advance width="346"/>
	<outline>
		<contour>
			<point x="64" y="-184" type="line"/>
			<point x="218" y="-30"/>
			<point x="300" y="178"/>
			<point x="300" y="430" type="curve" smooth="yes"/>
			<point x="300" y="550"/>
			<point x="270" y="650"/>
			<point x="234" y="734" type="curve"/>
			<point x="134" y="692" type="line"/>
			<point x="158" y="622"/>
			<point x="172" y="532"/>
			<point x="172" y="426" type="curve" smooth="yes"/>
			<point x="172" y="232"/>
			<point x="112" y="20"/>
			<point x="-28" y="-130" type="curve"/>
		</contour>
	</outline>
</glyph>
<glyph name="four" format="1">
	<unicode hex="0034"/>
	<advance width="520"/>
	<outline>
		<contour>
			<point x="390" y="0" type="line"/>
			<point x="419" y="146" type="line"/>
			<point x="488" y="146" type="line"/>
			<point x="512" y="268" type="line"/>
			<point x="443" y="268" type="line"/>
			<point x="516" y="634" type="line"/>
			<point x="322" y="634" type="line"/>
			<point x="28" y="258" type="line"/>
			<point x="6" y="146" type="line"/>
			<point x="273" y="146" type="line"/>
			<point x="244" y="0" type="line"/>
		</contour>
		<contour>
			<point x="184" y="268" type="line"/>
			<point x="266" y="380" type="line" smooth="yes"/>
			<point x="295" y="420"/>
			<point x="320" y="460"/>
			<point x="344" y="500" type="curve"/>
			<point x="348" y="500" type="line"/>
			<point x="338" y="452"/>
			<point x="324" y="402"/>
			<point x="314" y="354" type="curve" smooth="yes"/>
			<point x="297" y="268" type="line"/>
		</contour>
	</outline>
</glyph>
<glyph name="seven" format="1">
	<unicode hex="0037"/>
	<advance width="520"/>
	<outline>
		<contour>
			<point x="92" y="0" type="curve"/>
			<point x="256" y="0" type="line"/>
			<point x="294" y="174"/>
			<point x="346" y="360"/>
			<point x="540" y="534" type="curve"/>
			<point x="560" y="634" type="line"/>
			<point x="116" y="634" type="line"/>
			<point x="90" y="500" type="line"/>
			<point x="356" y="500" type="line"/>
			<point x="227" y="375"/>
			<point x="152" y="214"/>
		</contour>
	</outline>
</glyph>
<glyph name="eight" format="1">
	<unicode hex="0038"/>
	<advance width="520"/>
	<outline>
		<contour>
			<point x="238" y="-12" type="curve" smooth="yes"/>
			<point x="364" y="-12"/>
			<point x="474" y="62"/>
			<point x="474" y="178" type="curve" smooth="yes"/>
			<point x="474" y="242"/>
			<point x="446" y="292"/>
			<point x="398" y="324" type="curve"/>
			<point x="398" y="328" type="line"/>
			<point x="466" y="363"/>
			<point x="508" y="420"/>
			<point x="508" y="496" type="curve" smooth="yes"/>
			<point x="508" y="602"/>
			<point x="416" y="646"/>
			<point x="330" y="646" type="curve" smooth="yes"/>
			<point x="214" y="646"/>
			<point x="116" y="576"/>
			<point x="116" y="460" type="curve" smooth="yes"/>
			<point x="116" y="410"/>
			<point x="134" y="368"/>
			<point x="170" y="330" type="curve"/>
			<point x="170" y="326" type="line"/>
			<point x="96" y="298"/>
			<point x="38" y="238"/>
			<point x="38" y="154" type="curve" smooth="yes"/>
			<point x="38" y="36"/>
			<point x="148" y="-12"/>
		</contour>
		<contour>
			<point x="328" y="372" type="curve"/>
			<point x="280" y="399"/>
			<point x="256" y="425"/>
			<point x="256" y="466" type="curve" smooth="yes"/>
			<point x="256" y="510"/>
			<point x="284" y="534"/>
			<point x="318" y="534" type="curve" smooth="yes"/>
			<point x="359" y="534"/>
			<point x="372" y="506"/>
			<point x="372" y="472" type="curve" smooth="yes"/>
			<point x="372" y="428"/>
			<point x="352" y="396"/>
		</contour>
		<contour>
			<point x="250" y="98" type="curve" smooth="yes"/>
			<point x="202" y="98"/>
			<point x="180" y="134"/>
			<point x="180" y="172" type="curve" smooth="yes"/>
			<point x="180" y="218"/>
			<point x="204" y="256"/>
			<point x="234" y="280" type="curve"/>
			<point x="293" y="246"/>
			<point x="328" y="220"/>
			<point x="328" y="178" type="curve" smooth="yes"/>
			<point x="328" y="124"/>
			<point x="291" y="98"/>
		</contour>
	</outline>
</glyph>
<glyph name="C" format="1">
	<unicode hex="0043"/>
	<advance width="574"/>
	<outline>
		<contour>
			<point x="306" y="-12" type="curve" smooth="yes"/>
			<point x="404" y="-12"/>
			<point x="466" y="28"/>
			<point x="510" y="70" type="curve"/>
			<point x="444" y="172" type="line"/>
			<point x="414" y="146"/>
			<point x="378" y="126"/>
			<point x="336" y="126" type="curve" smooth="yes"/>
			<point x="256" y="126"/>
			<point x="220" y="180"/>
			<point x="220" y="274" type="curve" smooth="yes"/>
			<point x="220" y="414"/>
			<point x="304" y="524"/>
			<point x="392" y="524" type="curve" smooth="yes"/>
			<point x="430" y="524"/>
			<point x="462" y="510"/>
			<point x="490" y="472" type="curve"/>
			<point x="578" y="568" type="line"/>
			<point x="540" y="630"/>
			<point x="478" y="662"/>
			<point x="402" y="662" type="curve" smooth="yes"/>
			<point x="214" y="662"/>
			<point x="56" y="496"/>
			<point x="56" y="264" type="curve" smooth="yes"/>
			<point x="56" y="88"/>
			<point x="158" y="-12"/>
		</contour>
		<contour>
			<point name="aboveUC" x="410" y="672" type="move"/>
		</contour>
		<contour>
			<point name="baseLC" x="280" y="0" type="move"/>
		</contour>
		<contour>
			<point name="belowLC" x="270" y="-22" type="move"/>
		</contour>
	</outline>
</glyph>
<glyph name="G" format="1">
	<unicode hex="0047"/>
	<advance width="620"/>
	<outline>
		<contour>
			<point x="320" y="-12" type="curve" smooth="yes"/>
			<point x="404" y="-12"/>
			<point x="480" y="18"/>
			<point x="530" y="56" type="curve"/>
			<point x="592" y="378" type="line"/>
			<point x="356" y="378" type="line"/>
			<point x="332" y="248" type="line"/>
			<point x="428" y="248" type="line"/>
			<point x="404" y="140" type="line"/>
			<point x="389" y="130"/>
			<point x="367" y="124"/>
			<point x="348" y="124" type="curve" smooth="yes"/>
			<point x="256" y="124"/>
			<point x="220" y="180"/>
			<point x="220" y="274" type="curve" smooth="yes"/>
			<point x="220" y="414"/>
			<point x="304" y="524"/>
			<point x="408" y="524" type="curve" smooth="yes"/>
			<point x="446" y="524"/>
			<point x="472" y="508"/>
			<point x="496" y="472" type="curve"/>
			<point x="604" y="556" type="line"/>
			<point x="566" y="624"/>
			<point x="502" y="662"/>
			<point x="416" y="662" type="curve" smooth="yes"/>
			<point x="214" y="662"/>
			<point x="56" y="496"/>
			<point x="56" y="264" type="curve" smooth="yes"/>
			<point x="56" y="88"/>
			<point x="158" y="-12"/>
		</contour>
		<contour>
			<point name="aboveUC" x="410" y="682" type="move"/>
		</contour>
		<contour>
			<point name="belowLC" x="300" y="-22" type="move"/>
		</contour>
	</outline>
</glyph>
<glyph name="J" format="1">
	<unicode hex="004A"/>
	<advance width="504"/>
	<outline>
		<contour>
			<point x="182" y="-12" type="curve" smooth="yes"/>
			<point x="330" y="-12"/>
			<point x="402" y="92"/>
			<point x="426" y="212" type="curve" smooth="yes"/>
			<point x="514" y="650" type="line"/>
			<point x="354" y="650" type="line"/>
			<point x="272" y="240" type="line" smooth="yes"/>
			<point x="256" y="160"/>
			<point x="228" y="126"/>
			<point x="182" y="126" type="curve" smooth="yes"/>
			<point x="139" y="126"/>
			<point x="106" y="150"/>
			<point x="86" y="180" type="curve"/>
			<point x="-8" y="94" type="line"/>
			<point x="35" y="22"/>
			<point x="108" y="-12"/>
		</contour>
		<contour>
			<point name="aboveUC" x="440" y="672" type="move"/>
		</contour>
		<contour>
			<point name="belowLC" x="190" y="-30" type="move"/>
		</contour>
	</outline>
</glyph>
<glyph name="L" format="1">
	<unicode hex="004C"/>
	<advance width="514"/>
	<outline>
		<contour>
			<point x="26" y="0" type="line"/>
			<point x="422" y="0" type="line"/>
			<point x="448" y="134" type="line"/>
			<point x="212" y="134" type="line"/>
			<point x="316" y="650" type="line"/>
			<point x="156" y="650" type="line"/>
		</contour>
		<contour>
			<point name="aboveUC" x="260" y="672" type="move"/>
		</contour>
		<contour>
			<point name="belowLC" x="220" y="-22" type="move"/>
		</contour>
	</outline>
</glyph>
<glyph name="Q" format="1">
	<unicode hex="0051"/>
	<advance width="670"/>
	<outline>
		<contour>
			<point x="308" y="-12" type="curve" smooth="yes"/>
			<point x="480" y="-12"/>
			<point x="644" y="144"/>
			<point x="644" y="386" type="curve" smooth="yes"/>
			<point x="644" y="562"/>
			<point x="542" y="662"/>
			<point x="392" y="662" type="curve" smooth="yes"/>
			<point x="220" y="662"/>
			<point x="56" y="506"/>
			<point x="56" y="264" type="curve" smooth="yes"/>
			<point x="56" y="88"/>
			<point x="158" y="-12"/>
		</contour>
		<contour>
			<point x="316" y="120" type="curve" smooth="yes"/>
			<point x="256" y="120"/>
			<point x="220" y="172"/>
			<point x="220" y="274" type="curve" smooth="yes"/>
			<point x="220" y="424"/>
			<point x="310" y="524"/>
			<point x="384" y="524" type="curve" smooth="yes"/>
			<point x="444" y="524"/>
			<point x="480" y="470"/>
			<point x="480" y="376" type="curve" smooth="yes"/>
			<point x="480" y="218"/>
			<point x="390" y="120"/>
		</contour>
		<contour>
			<point x="484" y="-182" type="curve" smooth="yes"/>
			<point x="524" y="-182"/>
			<point x="564" y="-174"/>
			<point x="588" y="-162" type="curve"/>
			<point x="562" y="-44" type="line"/>
			<point x="542" y="-50"/>
			<point x="526" y="-54"/>
			<point x="502" y="-54" type="curve" smooth="yes"/>
			<point x="438" y="-54"/>
			<point x="372" y="-28"/>
			<point x="356" y="32" type="curve"/>
			<point x="194" y="32" type="line"/>
			<point x="242" y="-112"/>
			<point x="340" y="-182"/>
		</contour>
		<contour>
			<point name="aboveUC" x="410" y="672" type="move"/>
		</contour>
	</outline>
</glyph>
<glyph name="S" format="1">
	<unicode hex="0053"/>
	<advance width="538"/>
	<outline>
		<contour>
			<point x="240" y="-12" type="curve" smooth="yes"/>
			<point x="396" y="-12"/>
			<point x="494" y="86"/>
			<point x="494" y="204" type="curve" smooth="yes"/>
			<point x="494" y="280"/>
			<point x="468" y="318"/>
			<point x="404" y="358" type="curve" smooth="yes"/>
			<point x="346" y="394" type="line" smooth="yes"/>
			<point x="292" y="428"/>
			<point x="266" y="440"/>
			<point x="266" y="470" type="curve" smooth="yes"/>
			<point x="266" y="500"/>
			<point x="288" y="524"/>
			<point x="334" y="524" type="curve" smooth="yes"/>
			<point x="376" y="524"/>
			<point x="413" y="501"/>
			<point x="446" y="468" type="curve"/>
			<point x="536" y="560" type="line"/>
			<point x="486" y="623"/>
			<point x="412" y="662"/>
			<point x="336" y="662" type="curve" smooth="yes"/>
			<point x="210" y="662"/>
			<point x="102" y="568"/>
			<point x="102" y="452" type="curve" smooth="yes"/>
			<point x="102" y="372"/>
			<point x="140" y="324"/>
			<point x="202" y="286" type="curve" smooth="yes"/>
			<point x="254" y="254" type="line" smooth="yes"/>
			<point x="302" y="224"/>
			<point x="328" y="210"/>
			<point x="328" y="176" type="curve" smooth="yes"/>
			<point x="328" y="144"/>
			<point x="298" y="124"/>
			<point x="256" y="124" type="curve" smooth="yes"/>
			<point x="198" y="124"/>
			<point x="142" y="156"/>
			<point x="104" y="202" type="curve"/>
			<point x="10" y="112" type="line"/>
			<point x="74" y="24"/>
			<point x="162" y="-12"/>
		</contour>
		<contour>
			<point name="aboveUC" x="360" y="690" type="move"/>
		</contour>
		<contour>
			<point name="baseLC" x="240" y="0" type="move"/>
		</contour>
		<contour>
			<point name="belowLC" x="230" y="-30" type="move"/>
		</contour>
	</outline>
</glyph>
<glyph name="W" format="1">
	<unicode hex="0057"/>
	<advance width="808"/>
	<outline>
		<contour>
			<point x="70" y="0" type="line"/>
			<point x="268" y="0" type="line"/>
			<point x="376" y="278" type="line" smooth="yes"/>
			<point x="395" y="328"/>
			<point x="416" y="381"/>
			<point x="433" y="429" type="curve"/>
			<point x="437" y="429" type="line"/>
			<point x="432" y="380"/>
			<point x="426" y="317"/>
			<point x="426" y="278" type="curve"/>
			<point x="418" y="0" type="line"/>
			<point x="620" y="0" type="line"/>
			<point x="866" y="650" type="line"/>
			<point x="714" y="650" type="line"/>
			<point x="616" y="356" type="line" smooth="yes"/>
			<point x="596" y="289"/>
			<point x="570" y="218"/>
			<point x="548" y="148" type="curve"/>
			<point x="544" y="148" type="line"/>
			<point x="548" y="218"/>
			<point x="552" y="290"/>
			<point x="554" y="356" type="curve" smooth="yes"/>
			<point x="554" y="650" type="line"/>
			<point x="421" y="650" type="line"/>
			<point x="298" y="356" type="line" smooth="yes"/>
			<point x="273" y="289"/>
			<point x="242" y="217"/>
			<point x="216" y="148" type="curve"/>
			<point x="212" y="148" type="line"/>
			<point x="222" y="217"/>
			<point x="229" y="288"/>
			<point x="236" y="356" type="curve" smooth="yes"/>
			<point x="262" y="650" type="line"/>
			<point x="98" y="650" type="line"/>
		</contour>
		<contour>
			<point name="aboveUC" x="498" y="682" type="move"/>
		</contour>
		<contour>
			<point name="belowLC" x="346" y="-30" type="move"/>
		</contour>
	</outline>
</glyph>
<glyph name="grave" format="1">
	<unicode hex="0060"/>
	<advance width="540"/>
	<outline>
		<component base="gravecmb" xOffset="220"/>
		<contour>
			<point name="_aboveLC" x="270" y="522" type="move"/>
		</contour>
	</outline>
</glyph>
<glyph name="e" format="1">
	<unicode hex="0065"/>
	<advance width="502"/>
	<outline>
		<contour>
			<point x="234" y="-12" type="curve" smooth="yes"/>
			<point x="316" y="-12"/>
			<point x="380" y="12"/>
			<point x="420" y="40" type="curve"/>
			<point x="364" y="140" type="line"/>
			<point x="342" y="124"/>
			<point x="308" y="108"/>
			<point x="280" y="108" type="curve" smooth="yes"/>
			<point x="222" y="108"/>
			<point x="176" y="136"/>
			<point x="176" y="206" type="curve"/>
			<point x="448" y="206" type="line"/>
			<point x="456" y="220"/>
			<point x="474" y="274"/>
			<point x="474" y="322" type="curve" smooth="yes"/>
			<point x="474" y="426"/>
			<point x="430" y="512"/>
			<point x="308" y="512" type="curve" smooth="yes"/>
			<point x="174" y="512"/>
			<point x="26" y="388"/>
			<point x="26" y="204" type="curve" smooth="yes"/>
			<point x="26" y="70"/>
			<point x="112" y="-12"/>
		</contour>
		<contour>
			<point x="188" y="302" type="line"/>
			<point x="210" y="364"/>
			<point x="250" y="390"/>
			<point x="288" y="390" type="curve" smooth="yes"/>
			<point x="330" y="390"/>
			<point x="344" y="364"/>
			<point x="344" y="330" type="curve" smooth="yes"/>
			<point x="344" y="320"/>
			<point x="342" y="309"/>
			<point x="340" y="302" type="curve"/>
		</contour>
		<contour>
			<point name="aboveLC" x="320" y="522" type="move"/>
		</contour>
		<contour>
			<point name="belowLC" x="200" y="-22" type="move"/>
		</contour>
		<contour>
			<point name="ogonekLC" x="290" y="0" type="move"/>
		</contour>
	</outline>
</glyph>
<glyph name="f" format="1">
	<unicode hex="0066"/>
	<advance width="344"/>
	<outline>
		<contour>
			<point x="34" y="0" type="line"/>
			<point x="194" y="0" type="line"/>
			<point x="268" y="376" type="line"/>
			<point x="352" y="376" type="line"/>
			<point x="376" y="500" type="line"/>
			<point x="294" y="500" type="line"/>
			<point x="298" y="520" type="line" smooth="yes"/>
			<point x="308" y="574"/>
			<point x="328" y="582"/>
			<point x="360" y="582" type="curve" smooth="yes"/>
			<point x="376" y="582"/>
			<point x="398" y="576"/>
			<point x="408" y="570" type="curve"/>
			<point x="458" y="680" type="line"/>
			<point x="424" y="698"/>
			<point x="384" y="708"/>
			<point x="344" y="708" type="curve" smooth="yes"/>
			<point x="218" y="708"/>
			<point x="158" y="618"/>
			<point x="138" y="514" type="curve" smooth="yes"/>
			<point x="136" y="500" type="line"/>
			<point x="70" y="494" type="line"/>
			<point x="46" y="376" type="line"/>
			<point x="110" y="376" type="line"/>
		</contour>
		<contour>
			<point name="aboveUC" x="330" y="720" type="move"/>
		</contour>
		<contour>
			<point name="belowLC" x="120" y="-22" type="move"/>
		</contour>
	</outline>
</glyph>
<glyph name="g" format="1">
	<unicode hex="0067"/>
	<advance width="552"/>
	<outline>
		<contour>
			<point x="180" y="-196" type="curve" smooth="yes"/>
			<point x="322" y="-196"/>
			<point x="418" y="-130"/>
			<point x="448" y="20" type="curve" smooth="yes"/>
			<point x="544" y="500" type="line"/>
			<point x="414" y="500" type="line"/>
			<point x="392" y="450" type="line"/>
			<point x="390" y="450" type="line"/>
			<point x="372" y="488"/>
			<point x="330" y="512"/>
			<point x="288" y="512" type="curve" smooth="yes"/>
			<point x="150" y="512"/>
			<point x="28" y="372"/>
			<point x="28" y="194" type="curve" smooth="yes"/>
			<point x="28" y="76"/>
			<point x="90" y="20"/>
			<point x="174" y="20" type="curve" smooth="yes"/>
			<point x="226" y="20"/>
			<point x="278" y="44"/>
			<point x="320" y="88" type="curve"/>
			<point x="294" y="6" type="line" smooth="yes"/>
			<point x="278" y="-44"/>
			<point x="238" y="-70"/>
			<point x="184" y="-70" type="curve" smooth="yes"/>
			<point x="140" y="-70"/>
			<point x="98" y="-52"/>
			<point x="60" y="-26" type="curve"/>
			<point x="-6" y="-126" type="line"/>
			<point x="54" y="-180"/>
			<point x="124" y="-196"/>
		</contour>
		<contour>
			<point x="238" y="150" type="curve" smooth="yes"/>
			<point x="212" y="150"/>
			<point x="194" y="170"/>
			<point x="194" y="214" type="curve" smooth="yes"/>
			<point x="194" y="314"/>
			<point x="242" y="382"/>
			<point x="300" y="382" type="curve" smooth="yes"/>
			<point x="318" y="382"/>
			<point x="340" y="370"/>
			<point x="352" y="344" type="curve"/>
			<point x="326" y="206" type="line"/>
			<point x="300" y="160"/>
			<point x="266" y="150"/>
		</contour>
		<contour>
			<point name="aboveLC" x="310" y="522" type="move"/>
		</contour>
		<contour>
			<point name="belowLC" x="200" y="-198" type="move"/>
		</contour>
	</outline>
</glyph>
<glyph name="i" format="1">
	<unicode hex="0069"/>
	<advance width="276"/>
	<outline>
		<component base="dotlessi"/>
		<component base="dotaccentcmb" xOffset="90"/>
		<contour>
			<point name="aboveLC" x="230" y="720" type="move"/>
		</contour>
		<contour>
			<point name="belowLC" x="90" y="-22" type="move"/>
		</contour>
		<contour>
			<point name="ogonekLC" x="90" y="0" type="move"/>
		</contour>
	</outline>
</glyph>
<glyph name="j" format="1">
	<unicode hex="006A"/>
	<advance width="278"/>
	<outline>
		<component base="dotlessj"/>
		<component base="dotaccentcmb" xOffset="96"/>
		<contour>
			<point name="belowLC" x="-10" y="-182" type="move"/>
		</contour>
	</outline>
</glyph>
<glyph name="l" format="1">
	<unicode hex="006C"/>
	<advance width="286"/>
	<outline>
		<contour>
			<point x="158" y="-12" type="curve" smooth="yes"/>
			<point x="188" y="-12"/>
			<point x="216" y="-4"/>
			<point x="238" y="4" type="curve"/>
			<point x="232" y="118" type="line"/>
			<point x="224" y="116"/>
			<point x="220" y="116"/>
			<point x="216" y="116" type="curve" smooth="yes"/>
			<point x="206" y="116"/>
			<point x="198" y="122"/>
			<point x="198" y="136" type="curve" smooth="yes"/>
			<point x="198" y="144"/>
			<point x="198" y="148"/>
			<point x="200" y="160" type="curve" smooth="yes"/>
			<point x="308" y="696" type="line"/>
			<point x="148" y="696" type="line"/>
			<point x="42" y="166" type="line" smooth="yes"/>
			<point x="36" y="138"/>
			<point x="34" y="118"/>
			<point x="34" y="98" type="curve" smooth="yes"/>
			<point x="34" y="30"/>
			<point x="66" y="-12"/>
		</contour>
		<contour>
			<point name="aboveUC" x="220" y="720" type="move"/>
		</contour>
		<contour>
			<point name="belowLC" x="120" y="-22" type="move"/>
		</contour>
	</outline>
</glyph>
<glyph name="n" format="1">
	<unicode hex="006E"/>
	<advance width="562"/>
	<outline>
		<contour>
			<point x="8" y="0" type="line"/>
			<point x="168" y="0" type="line"/>
			<point x="230" y="320" type="line"/>
			<point x="266" y="358"/>
			<point x="290" y="376"/>
			<point x="318" y="376" type="curve" smooth="yes"/>
			<point x="344" y="376"/>
			<point x="360" y="362"/>
			<point x="360" y="334" type="curve" smooth="yes"/>
			<point x="360" y="322"/>
			<point x="356" y="308"/>
			<point x="352" y="290" type="curve" smooth="yes"/>
			<point x="294" y="0" type="line"/>
			<point x="454" y="0" type="line"/>
			<point x="516" y="310" type="line" smooth="yes"/>
			<point x="521" y="334"/>
			<point x="524" y="360"/>
			<point x="524" y="382" type="curve" smooth="yes"/>
			<point x="524" y="468"/>
			<point x="488" y="512"/>
			<point x="406" y="512" type="curve" smooth="yes"/>
			<point x="342" y="512"/>
			<point x="288" y="476"/>
			<point x="242" y="436" type="curve"/>
			<point x="238" y="436" type="line"/>
			<point x="238" y="500" type="line"/>
			<point x="108" y="500" type="line"/>
		</contour>
		<contour>
			<point name="aboveLC" x="370" y="522" type="move"/>
		</contour>
		<contour>
			<point name="belowLC" x="240" y="-22" type="move"/>
		</contour>
	</outline>
</glyph>
<glyph name="r" format="1">
	<unicode hex="0072"/>
	<advance width="400"/>
	<outline>
		<contour>
			<point x="8" y="0" type="line"/>
			<point x="168" y="0" type="line"/>
			<point x="222" y="280" type="line"/>
			<point x="260" y="346"/>
			<point x="296" y="372"/>
			<point x="338" y="372" type="curve" smooth="yes"/>
			<point x="354" y="372"/>
			<point x="376" y="372"/>
			<point x="390" y="364" type="curve"/>
			<point x="442" y="502" type="line"/>
			<point x="432" y="508"/>
			<point x="416" y="512"/>
			<point x="388" y="512" type="curve" smooth="yes"/>
			<point x="332" y="512"/>
			<point x="276" y="466"/>
			<point x="238" y="402" type="curve"/>
			<point x="234" y="402" type="line"/>
			<point x="238" y="500" type="line"/>
			<point x="108" y="500" type="line"/>
		</contour>
		<contour>
			<point name="aboveLC" x="290" y="522" type="move"/>
		</contour>
		<contour>
			<point name="belowLC" x="92" y="-22" type="move"/>
		</contour>
	</outline>
</glyph>
<glyph name="s" format="1">
	<unicode hex="0073"/>
	<advance width="432"/>
	<outline>
		<contour>
			<point x="172" y="-12" type="curve" smooth="yes"/>
			<point x="298" y="-12"/>
			<point x="388" y="56"/>
			<point x="388" y="156" type="curve" smooth="yes"/>
			<point x="388" y="230"/>
			<point x="336" y="270"/>
			<point x="288" y="296" type="curve" smooth="yes"/>
			<point x="250" y="318"/>
			<point x="208" y="330"/>
			<point x="208" y="358" type="curve" smooth="yes"/>
			<point x="208" y="378"/>
			<point x="228" y="394"/>
			<point x="260" y="394" type="curve" smooth="yes"/>
			<point x="290" y="394"/>
			<point x="322" y="374"/>
			<point x="348" y="350" type="curve"/>
			<point x="430" y="432" type="line"/>
			<point x="388" y="476"/>
			<point x="332" y="512"/>
			<point x="260" y="512" type="curve" smooth="yes"/>
			<point x="148" y="512"/>
			<point x="58" y="440"/>
			<point x="58" y="344" type="curve" smooth="yes"/>
			<point x="58" y="278"/>
			<point x="105" y="232"/>
			<point x="154" y="204" type="curve" smooth="yes"/>
			<point x="206" y="174"/>
			<point x="238" y="164"/>
			<point x="238" y="138" type="curve" smooth="yes"/>
			<point x="238" y="118"/>
			<point x="212" y="104"/>
			<point x="182" y="104" type="curve" smooth="yes"/>
			<point x="152" y="104"/>
			<point x="114" y="118"/>
			<point x="74" y="162" type="curve"/>
			<point x="-10" y="86" type="line"/>
			<point x="34" y="20"/>
			<point x="114" y="-12"/>
		</contour>
		<contour>
			<point name="aboveLC" x="270" y="522" type="move"/>
		</contour>
		<contour>
			<point name="baseLC" x="170" y="0" type="move"/>
		</contour>
		<contour>
			<point name="belowLC" x="160" y="-22" type="move"/>
		</contour>
	</outline>
</glyph>
<glyph name="t" format="1">
	<unicode hex="0074"/>
	<advance width="384"/>
	<outline>
		<contour>
			<point x="210" y="-12" type="curve" smooth="yes"/>
			<point x="266" y="-12"/>
			<point x="308" y="0"/>
			<point x="336" y="10" type="curve"/>
			<point x="308" y="122" type="line"/>
			<point x="296" y="116"/>
			<point x="284" y="112"/>
			<point x="272" y="112" type="curve" smooth="yes"/>
			<point x="240" y="112"/>
			<point x="224" y="126"/>
			<point x="224" y="156" type="curve" smooth="yes"/>
			<point x="224" y="166"/>
			<point x="224" y="176"/>
			<point x="226" y="188" type="curve" smooth="yes"/>
			<point x="264" y="376" type="line"/>
			<point x="376" y="376" type="line"/>
			<point x="400" y="500" type="line"/>
			<point x="292" y="500" type="line"/>
			<point x="320" y="648" type="line"/>
			<point x="186" y="648" type="line"/>
			<point x="138" y="500" type="line"/>
			<point x="66" y="494" type="line"/>
			<point x="42" y="376" type="line"/>
			<point x="106" y="376" type="line"/>
			<point x="68" y="194" type="line" smooth="yes"/>
			<point x="64" y="172"/>
			<point x="60" y="150"/>
			<point x="60" y="128" type="curve" smooth="yes"/>
			<point x="60" y="46"/>
			<point x="104" y="-12"/>
		</contour>
		<contour>
			<point name="aboveLC" x="260" y="664" type="move"/>
		</contour>
		<contour>
			<point name="baseLC" x="190" y="0" type="move"/>
		</contour>
		<contour>
			<point name="belowLC" x="180" y="-22" type="move"/>
		</contour>
	</outline>
</glyph>
<glyph name="w" format="1">
	<unicode hex="0077"/>
	<advance width="764"/>
	<outline>
		<contour>
			<point x="92" y="0" type="line"/>
			<point x="272" y="0" type="line"/>
			<point x="344" y="186" type="line" smooth="yes"/>
			<point x="361" y="232"/>
			<point x="375" y="278"/>
			<point x="394" y="332" type="curve"/>
			<point x="398" y="332" type="line"/>
			<point x="395" y="278"/>
			<point x="396" y="232"/>
			<point x="394" y="186" type="curve"/>
			<point x="394" y="0" type="line"/>
			<point x="580" y="0" type="line"/>
			<point x="788" y="500" type="line"/>
			<point x="640" y="500" type="line"/>
			<point x="560" y="278" type="line" smooth="yes"/>
			<point x="542" y="229"/>
			<point x="528" y="179"/>
			<point x="510" y="128" type="curve"/>
			<point x="506" y="128" type="line"/>
			<point x="506" y="179"/>
			<point x="509" y="229"/>
			<point x="508" y="278" type="curve" smooth="yes"/>
			<point x="503" y="500" type="line"/>
			<point x="367" y="500" type="line"/>
			<point x="276" y="278" type="line" smooth="yes"/>
			<point x="255" y="230"/>
			<point x="238" y="179"/>
			<point x="220" y="128" type="curve"/>
			<point x="216" y="128" type="line"/>
			<point x="219" y="179"/>
			<point x="224" y="229"/>
			<point x="226" y="278" type="curve" smooth="yes"/>
			<point x="231" y="500" type="line"/>
			<point x="73" y="500" type="line"/>
		</contour>
		<contour>
			<point name="aboveLC" x="440" y="522" type="move"/>
		</contour>
		<contour>
			<point name="belowLC" x="330" y="-22" type="move"/>
		</contour>
	</outline>
</glyph>
<glyph name="y" format="1">
	<unicode hex="0079"/>
	<advance width="518"/>
	<outline>
		<contour>
			<point x="64" y="-188" type="curve" smooth="yes"/>
			<point x="169" y="-188"/>
			<point x="240" y="-134"/>
			<point x="318" y="18" type="curve" smooth="yes"/>
			<point x="564" y="500" type="line"/>
			<point x="402" y="500" type="line"/>
			<point x="314" y="296" type="line" smooth="yes"/>
			<point x="296" y="255"/>
			<point x="275" y="198"/>
			<point x="256" y="156" type="curve"/>
			<point x="252" y="156" type="line"/>
			<point x="252" y="199"/>
			<point x="250" y="256"/>
			<point x="246" y="296" type="curve" smooth="yes"/>
			<point x="226" y="500" type="line"/>
			<point x="62" y="500" type="line"/>
			<point x="152" y="4" type="line"/>
			<point x="145" y="-9" type="line" smooth="yes"/>
			<point x="127" y="-42"/>
			<point x="93" y="-58"/>
			<point x="62" y="-58" type="curve" smooth="yes"/>
			<point x="47" y="-58"/>
			<point x="35" y="-56"/>
			<point x="22" y="-50" type="curve"/>
			<point x="-24" y="-166" type="line"/>
			<point x="-4" y="-180"/>
			<point x="28" y="-188"/>
		</contour>
		<contour>
			<point name="aboveLC" x="310" y="522" type="move"/>
		</contour>
		<contour>
			<point name="belowLC" x="132" y="-198" type="move"/>
		</contour>
	</outline>
</glyph>
<glyph name="sterling" format="1">
	<unicode hex="00A3"/>
	<advance width="520"/>
	<outline>
		<contour>
			<point x="-4" y="0" type="line"/>
			<point x="442" y="0" type="line"/>
			<point x="466" y="134" type="line"/>
			<point x="240" y="134" type="line"/>
			<point x="240" y="138" type="line"/>
			<point x="280" y="186"/>
			<point x="296" y="230"/>
			<point x="296" y="296" type="curve" smooth="yes"/>
			<point x="296" y="323"/>
			<point x="288" y="357"/>
			<point x="288" y="384" type="curve" smooth="yes"/>
			<point x="288" y="480"/>
			<point x="330" y="518"/>
			<point x="378" y="518" type="curve" smooth="yes"/>
			<point x="408" y="518"/>
			<point x="426" y="504"/>
			<point x="448" y="476" type="curve"/>
			<point x="550" y="560" type="line"/>
			<point x="510" y="614"/>
			<point x="458" y="646"/>
			<point x="386" y="646" type="curve" smooth="yes"/>
			<point x="250" y="646"/>
			<point x="140" y="550"/>
			<point x="140" y="408" type="curve" smooth="yes"/>
			<point x="140" y="369"/>
			<point x="152" y="317"/>
			<point x="152" y="278" type="curve" smooth="yes"/>
			<point x="152" y="194"/>
			<point x="98" y="132"/>
			<point x="16" y="98" type="curve"/>
		</contour>
		<contour>
			<point x="56" y="262" type="line"/>
			<point x="410" y="262" type="line"/>
			<point x="432" y="376" type="line"/>
			<point x="150" y="376" type="line"/>
			<point x="76" y="370" type="line"/>
		</contour>
	</outline>
</glyph>
<glyph name="mu" format="1">
	<unicode hex="00B5"/>
	<unicode hex="03BC"/>
	<advance width="568"/>
	<outline>
		<contour>
			<point x="-28" y="-176" type="line"/>
			<point x="134" y="-176" type="line"/>
			<point x="138" y="-112"/>
			<point x="146" y="-54"/>
			<point x="160" y="14" type="curve"/>
			<point x="174" y="-4"/>
			<point x="198" y="-10"/>
			<point x="218" y="-10" type="curve" smooth="yes"/>
			<point x="254" y="-10"/>
			<point x="300" y="8"/>
			<point x="326" y="64" type="curve"/>
			<point x="330" y="64" type="line"/>
			<point x="330" y="64"/>
			<point x="330" y="64"/>
			<point x="330" y="64" type="curve" smooth="yes"/>
			<point x="332" y="18"/>
			<point x="364" y="-12"/>
			<point x="440" y="-12" type="curve" smooth="yes"/>
			<point x="472" y="-12"/>
			<point x="496" y="-6"/>
			<point x="512" y="0" type="curve"/>
			<point x="518" y="118" type="line"/>
			<point x="510" y="116"/>
			<point x="500" y="116"/>
			<point x="494" y="116" type="curve" smooth="yes"/>
			<point x="480" y="116"/>
			<point x="468" y="122"/>
			<point x="468" y="142" type="curve" smooth="yes"/>
			<point x="468" y="166"/>
			<point x="500" y="302"/>
			<point x="552" y="500" type="curve"/>
			<point x="390" y="500" type="line"/>
			<point x="328" y="184" type="line"/>
			<point x="300" y="140"/>
			<point x="272" y="122"/>
			<point x="243" y="122" type="curve" smooth="yes"/>
			<point x="216" y="122"/>
			<point x="202" y="133"/>
			<point x="202" y="164" type="curve" smooth="yes"/>
			<point x="202" y="172"/>
			<point x="204" y="192"/>
			<point x="208" y="210" type="curve" smooth="yes"/>
			<point x="268" y="500" type="line"/>
			<point x="108" y="500" type="line"/>
		</contour>
	</outline>
</glyph>
<glyph name="cedilla" format="1">
	<unicode hex="00B8"/>
	<advance width="540"/>
	<outline>
		<component base="cedillacmb" xOffset="220"/>
		<contour>
			<point name="_baseLC" x="220" y="0" type="move"/>
		</contour>
	</outline>
</glyph>
<glyph name="germandbls" format="1">
	<unicode hex="00DF"/>
	<advance width="630"/>
	<outline>
		<contour>
			<point x="388" y="-12" type="curve" smooth="yes"/>
			<point x="496" y="-12"/>
			<point x="582" y="68"/>
			<point x="582" y="170" type="curve" smooth="yes"/>
			<point x="582" y="284"/>
			<point x="460" y="316"/>
			<point x="460" y="360" type="curve" smooth="yes"/>
			<point x="460" y="408"/>
			<point x="566" y="442"/>
			<point x="566" y="552" type="curve" smooth="yes"/>
			<point x="566" y="662"/>
			<point x="464" y="708"/>
			<point x="364" y="708" type="curve" smooth="yes"/>
			<point x="220" y="708"/>
			<point x="132" y="618"/>
			<point x="108" y="498" type="curve" smooth="yes"/>
			<point x="8" y="0" type="line"/>
			<point x="168" y="0" type="line"/>
			<point x="262" y="468" type="line" smooth="yes"/>
			<point x="276" y="531"/>
			<point x="308" y="582"/>
			<point x="358" y="582" type="curve" smooth="yes"/>
			<point x="396" y="582"/>
			<point x="412" y="562"/>
			<point x="412" y="528" type="curve" smooth="yes"/>
			<point x="412" y="448"/>
			<point x="304" y="424"/>
			<point x="304" y="338" type="curve" smooth="yes"/>
			<point x="304" y="236"/>
			<point x="434" y="210"/>
			<point x="434" y="154" type="curve" smooth="yes"/>
			<point x="434" y="126"/>
			<point x="416" y="106"/>
			<point x="386" y="106" type="curve" smooth="yes"/>
			<point x="352" y="106"/>
			<point x="324" y="116"/>
			<point x="300" y="132" type="curve"/>
			<point x="246" y="32" type="line"/>
			<point x="288" y="-2"/>
			<point x="338" y="-12"/>
		</contour>
	</outline>
</glyph>
<glyph name="ae" format="1">
	<unicode hex="00E6"/>
	<advance width="752"/>
	<outline>
		<contour>
			<point x="154" y="-12" type="curve" smooth="yes"/>
			<point x="226" y="-12"/>
			<point x="280" y="16"/>
			<point x="337" y="63" type="curve"/>
			<point x="366" y="22"/>
			<point x="426" y="-12"/>
			<point x="496" y="-12" type="curve" smooth="yes"/>
			<point x="572" y="-12"/>
			<point x="632" y="12"/>
			<point x="670" y="40" type="curve"/>
			<point x="614" y="140" type="line"/>
			<point x="592" y="124"/>
			<point x="558" y="108"/>
			<point x="532" y="108" type="curve" smooth="yes"/>
			<point x="476" y="108"/>
			<point x="434" y="132"/>
			<point x="436" y="206" type="curve"/>
			<point x="698" y="206" type="line"/>
			<point x="706" y="220"/>
			<point x="724" y="274"/>
			<point x="724" y="322" type="curve" smooth="yes"/>
			<point x="724" y="426"/>
			<point x="680" y="512"/>
			<point x="558" y="512" type="curve" smooth="yes"/>
			<point x="510" y="512"/>
			<point x="461" y="492"/>
			<point x="418" y="456" type="curve"/>
			<point x="392" y="496"/>
			<point x="341" y="512"/>
			<point x="276" y="512" type="curve" smooth="yes"/>
			<point x="215" y="512"/>
			<point x="151" y="490"/>
			<point x="98" y="462" type="curve"/>
			<point x="138" y="356" type="line"/>
			<point x="183" y="375"/>
			<point x="223" y="388"/>
			<point x="256" y="388" type="curve" smooth="yes"/>
			<point x="294" y="388"/>
			<point x="316" y="370"/>
			<point x="316" y="326" type="curve" smooth="yes"/>
			<point x="316" y="322"/>
			<point x="316" y="318"/>
			<point x="316" y="314" type="curve"/>
			<point x="154" y="310"/>
			<point x="18" y="262"/>
			<point x="18" y="114" type="curve" smooth="yes"/>
			<point x="18" y="38"/>
			<point x="76" y="-12"/>
		</contour>
		<contour>
			<point x="220" y="110" type="curve" smooth="yes"/>
			<point x="192" y="110"/>
			<point x="174" y="124"/>
			<point x="174" y="146" type="curve" smooth="yes"/>
			<point x="174" y="184"/>
			<point x="208" y="216"/>
			<point x="296" y="218" type="curve"/>
			<point x="294" y="194"/>
			<point x="296" y="176"/>
			<point x="298" y="158" type="curve"/>
			<point x="272" y="126"/>
			<point x="244" y="110"/>
		</contour>
		<contour>
			<point x="448" y="302" type="line"/>
			<point x="468" y="364"/>
			<point x="504" y="390"/>
			<point x="538" y="390" type="curve" smooth="yes"/>
			<point x="580" y="390"/>
			<point x="594" y="364"/>
			<point x="594" y="330" type="curve" smooth="yes"/>
			<point x="594" y="320"/>
			<point x="592" y="312"/>
			<point x="590" y="302" type="curve"/>
		</contour>
		<contour>
			<point name="aboveLC" x="440" y="522" type="move"/>
		</contour>
		<contour>
			<point name="belowLC" x="340" y="-22" type="move"/>
		</contour>
	</outline>
</glyph>
<glyph name="eth" format="1">
	<unicode hex="00F0"/>
	<advance width="560"/>
	<outline>
		<contour>
			<point x="226" y="-12" type="curve" smooth="yes"/>
			<point x="396" y="-12"/>
			<point x="522" y="138"/>
			<point x="522" y="376" type="curve" smooth="yes"/>
			<point x="522" y="546"/>
			<point x="414" y="662"/>
			<point x="266" y="744" type="curve"/>
			<point x="184" y="652" type="line"/>
			<point x="312" y="573"/>
			<point x="360" y="491"/>
			<point x="360" y="360" type="curve" smooth="yes"/>
			<point x="360" y="200"/>
			<point x="307" y="116"/>
			<point x="246" y="116" type="curve" smooth="yes"/>
			<point x="207" y="116"/>
			<point x="188" y="152"/>
			<point x="188" y="198" type="curve" smooth="yes"/>
			<point x="188" y="264"/>
			<point x="218" y="338"/>
			<point x="280" y="338" type="curve" smooth="yes"/>
			<point x="316" y="338"/>
			<point x="344" y="314"/>
			<point x="358" y="286" type="curve"/>
			<point x="380" y="368" type="line"/>
			<point x="368" y="430"/>
			<point x="315" y="458"/>
			<point x="258" y="458" type="curve" smooth="yes"/>
			<point x="112" y="458"/>
			<point x="30" y="316"/>
			<point x="30" y="186" type="curve" smooth="yes"/>
			<point x="30" y="62"/>
			<point x="108" y="-12"/>
		</contour>
		<contour>
			<point x="172" y="476" type="line"/>
			<point x="566" y="632" type="line"/>
			<point x="536" y="706" type="line"/>
			<point x="142" y="550" type="line"/>
		</contour>
		<contour>
			<point name="aboveUC" x="390" y="720" type="move"/>
		</contour>
		<contour>
			<point name="belowLC" x="220" y="-22" type="move"/>
		</contour>
	</outline>
</glyph>
<glyph name="eogonek" format="1">
	<unicode hex="0119"/>
	<advance width="502"/>
	<outline>
		<contour>
			<point x="256" y="-212" type="curve" smooth="yes"/>
			<point x="292" y="-212"/>
			<point x="340" y="-194"/>
			<point x="370" y="-172" type="curve"/>
			<point x="344" y="-108" type="line"/>
			<point x="334" y="-114"/>
			<point x="324" y="-118"/>
			<point x="314" y="-118" type="curve" smooth="yes"/>
			<point x="296" y="-118"/>
			<point x="280" y="-108"/>
			<point x="280" y="-90" type="curve" smooth="yes"/>
			<point x="280" y="-62"/>
			<point x="298" y="-16"/>
			<point x="420" y="40" type="curve"/>
			<point x="364" y="140" type="line"/>
			<point x="342" y="124"/>
			<point x="308" y="108"/>
			<point x="280" y="108" type="curve" smooth="yes"/>
			<point x="222" y="108"/>
			<point x="178" y="136"/>
			<point x="176" y="202" type="curve"/>
			<point x="446" y="202" type="line"/>
			<point x="454" y="216"/>
			<point x="474" y="272"/>
			<point x="474" y="322" type="curve" smooth="yes"/>
			<point x="474" y="426"/>
			<point x="430" y="512"/>
			<point x="308" y="512" type="curve" smooth="yes"/>
			<point x="174" y="512"/>
			<point x="26" y="388"/>
			<point x="26" y="204" type="curve" smooth="yes"/>
			<point x="26" y="70"/>
			<point x="112" y="-12"/>
			<point x="236" y="-12" type="curve" smooth="yes"/>
			<point x="250" y="-12"/>
			<point x="262" y="-11"/>
			<point x="270" y="-10" type="curve"/>
			<point x="261" y="9" type="line"/>
			<point x="230" y="-22"/>
			<point x="166" y="-70"/>
			<point x="166" y="-136" type="curve" smooth="yes"/>
			<point x="166" y="-186"/>
			<point x="204" y="-212"/>
		</contour>
		<contour>
			<point x="188" y="298" type="line"/>
			<point x="210" y="362"/>
			<point x="250" y="390"/>
			<point x="288" y="390" type="curve" smooth="yes"/>
			<point x="330" y="390"/>
			<point x="344" y="364"/>
			<point x="344" y="330" type="curve" smooth="yes"/>
			<point x="344" y="318"/>
			<point x="342" y="306"/>
			<point x="340" y="298" type="curve"/>
		</contour>
		<contour>
			<point name="aboveLC" x="326" y="522" type="move"/>
		</contour>
	</outline>
</glyph>
<glyph name="Hbar" format="1">
	<unicode hex="0126"/>
	<advance width="696"/>
	<outline>
		<contour>
			<point x="66" y="476" type="line"/>
			<point x="724" y="476" type="line"/>
			<point x="742" y="572" type="line"/>
			<point x="176" y="572" type="line"/>
			<point x="84" y="566" type="line"/>
		</contour>
		<component base="H" xOffset="16"/>
	</outline>
</glyph>
<glyph name="Iogonek" format="1">
	<unicode hex="012E"/>
	<advance width="310"/>
	<outline>
		<contour>
			<point x="64" y="-226" type="curve" smooth="yes"/>
			<point x="100" y="-226"/>
			<point x="148" y="-212"/>
			<point x="178" y="-192" type="curve"/>
			<point x="148" y="-116" type="line"/>
			<point x="138" y="-122"/>
			<point x="131" y="-124"/>
			<point x="124" y="-124" type="curve" smooth="yes"/>
			<point x="106" y="-124"/>
			<point x="90" y="-114"/>
			<point x="90" y="-94" type="curve" smooth="yes"/>
			<point x="90" y="-66"/>
			<point x="118" y="-22"/>
			<point x="186" y="0" type="curve"/>
			<point x="316" y="650" type="line"/>
			<point x="156" y="650" type="line"/>
			<point x="26" y="0" type="line"/>
			<point x="64" y="0" type="line"/>
			<point x="34" y="-18"/>
			<point x="-34" y="-76"/>
			<point x="-34" y="-146" type="curve" smooth="yes"/>
			<point x="-34" y="-196"/>
			<point x="6" y="-226"/>
		</contour>
		<contour>
			<point name="aboveUC" x="240" y="682" type="move"/>
		</contour>
	</outline>
</glyph>
<glyph name="Lslash" format="1">
	<unicode hex="0141"/>
	<advance width="514"/>
	<outline>
		<contour>
			<point x="17" y="168" type="line"/>
			<point x="107" y="214" type="line"/>
			<point x="224" y="268" type="line"/>
			<point x="449" y="380" type="line"/>
			<point x="411" y="482" type="line"/>
			<point x="250" y="400" type="line"/>
			<point x="132" y="346" type="line"/>
			<point x="-21" y="270" type="line"/>
		</contour>
		<component base="L"/>
	</outline>
</glyph>
<glyph name="lslash" format="1">
	<unicode hex="0142"/>
	<advance width="358"/>
	<outline>
		<contour>
			<point x="40" y="234" type="line"/>
			<point x="114" y="272" type="line"/>
			<point x="274" y="340" type="line"/>
			<point x="434" y="414" type="line"/>
			<point x="398" y="510" type="line"/>
			<point x="298" y="460" type="line"/>
			<point x="138" y="392" type="line"/>
			<point x="4" y="330" type="line"/>
		</contour>
		<component base="l" xOffset="42"/>
		<contour>
			<point name="aboveUC" x="270" y="730" type="move"/>
		</contour>
		<contour>
			<point name="belowLC" x="120" y="-22" type="move"/>
		</contour>
	</outline>
</glyph>
<glyph name="Eng" format="1">
	<unicode hex="014A"/>
	<advance width="660"/>
	<outline>
		<contour>
			<point x="370" y="-12" type="curve" smooth="yes"/>
			<point x="532" y="-12"/>
			<point x="640" y="186"/>
			<point x="640" y="416" type="curve" smooth="yes"/>
			<point x="640" y="593"/>
			<point x="566" y="662"/>
			<point x="458" y="662" type="curve" smooth="yes"/>
			<point x="401" y="662"/>
			<point x="350" y="638"/>
			<point x="296" y="592" type="curve"/>
			<point x="308" y="650" type="line"/>
			<point x="156" y="650" type="line"/>
			<point x="26" y="0" type="line"/>
			<point x="186" y="0" type="line"/>
			<point x="276" y="458" type="line"/>
			<point x="318" y="502"/>
			<point x="367" y="524"/>
			<point x="403" y="524" type="curve" smooth="yes"/>
			<point x="449" y="524"/>
			<point x="476" y="490"/>
			<point x="476" y="406" type="curve" smooth="yes"/>
			<point x="476" y="266"/>
			<point x="410" y="126"/>
			<point x="350" y="126" type="curve" smooth="yes"/>
			<point x="338" y="126"/>
			<point x="328" y="128"/>
			<point x="320" y="132" type="curve"/>
			<point x="274" y="10" type="line"/>
			<point x="294" y="-3"/>
			<point x="335" y="-12"/>
		</contour>
		<contour>
			<point name="aboveUC" x="450" y="672" type="move"/>
		</contour>
		<contour>
			<point name="belowLC" x="290" y="-22" type="move"/>
		</contour>
	</outline>
</glyph>
<glyph name="eng" format="1">
	<unicode hex="014B"/>
	<advance width="562"/>
	<outline>
		<contour>
			<point x="254" y="-188" type="curve" smooth="yes"/>
			<point x="378" y="-188"/>
			<point x="432" y="-102"/>
			<point x="454" y="2" type="curve"/>
			<point x="516" y="310" type="line" smooth="yes"/>
			<point x="521" y="334"/>
			<point x="524" y="360"/>
			<point x="524" y="382" type="curve" smooth="yes"/>
			<point x="524" y="468"/>
			<point x="488" y="512"/>
			<point x="406" y="512" type="curve" smooth="yes"/>
			<point x="342" y="512"/>
			<point x="288" y="476"/>
			<point x="242" y="436" type="curve"/>
			<point x="238" y="436" type="line"/>
			<point x="238" y="500" type="line"/>
			<point x="108" y="500" type="line"/>
			<point x="8" y="0" type="line"/>
			<point x="168" y="0" type="line"/>
			<point x="230" y="320" type="line"/>
			<point x="266" y="358"/>
			<point x="290" y="376"/>
			<point x="318" y="376" type="curve" smooth="yes"/>
			<point x="344" y="376"/>
			<point x="360" y="362"/>
			<point x="360" y="334" type="curve" smooth="yes"/>
			<point x="360" y="322"/>
			<point x="356" y="308"/>
			<point x="352" y="290" type="curve" smooth="yes"/>
			<point x="296" y="10" type="line"/>
			<point x="284" y="-42"/>
			<point x="272" y="-62"/>
			<point x="240" y="-62" type="curve" smooth="yes"/>
			<point x="224" y="-62"/>
			<point x="210" y="-58"/>
			<point x="196" y="-52" type="curve"/>
			<point x="154" y="-164" type="line"/>
			<point x="184" y="-182"/>
			<point x="220" y="-188"/>
		</contour>
		<contour>
			<point name="aboveLC" x="360" y="522" type="move"/>
		</contour>
		<contour>
			<point name="belowLC" x="210" y="-198" type="move"/>
		</contour>
	</outline>
</glyph>
<glyph name="oe" format="1">
	<unicode hex="0153"/>
	<advance width="792"/>
	<outline>
		<contour>
			<point x="216" y="-12" type="curve" smooth="yes"/>
			<point x="276" y="-12"/>
			<point x="338" y="18"/>
			<point x="386" y="74" type="curve"/>
			<point x="416" y="16"/>
			<point x="476" y="-12"/>
			<point x="544" y="-12" type="curve" smooth="yes"/>
			<point x="616" y="-12"/>
			<point x="673" y="14"/>
			<point x="710" y="40" type="curve"/>
			<point x="654" y="140" type="line"/>
			<point x="632" y="124"/>
			<point x="598" y="108"/>
			<point x="570" y="108" type="curve" smooth="yes"/>
			<point x="518" y="108"/>
			<point x="478" y="132"/>
			<point x="476" y="206" type="curve"/>
			<point x="738" y="206" type="line"/>
			<point x="746" y="222"/>
			<point x="764" y="274"/>
			<point x="764" y="322" type="curve" smooth="yes"/>
			<point x="764" y="426"/>
			<point x="720" y="512"/>
			<point x="598" y="512" type="curve" smooth="yes"/>
			<point x="544" y="512"/>
			<point x="484" y="482"/>
			<point x="438" y="428" type="curve"/>
			<point x="408" y="482"/>
			<point x="370" y="512"/>
			<point x="300" y="512" type="curve" smooth="yes"/>
			<point x="170" y="512"/>
			<point x="26" y="390"/>
			<point x="26" y="196" type="curve" smooth="yes"/>
			<point x="26" y="72"/>
			<point x="102" y="-12"/>
		</contour>
		<contour>
			<point x="244" y="116" type="curve" smooth="yes"/>
			<point x="206" y="116"/>
			<point x="188" y="148"/>
			<point x="188" y="198" type="curve" smooth="yes"/>
			<point x="188" y="306"/>
			<point x="234" y="384"/>
			<point x="282" y="384" type="curve" smooth="yes"/>
			<point x="320" y="384"/>
			<point x="338" y="352"/>
			<point x="338" y="302" type="curve" smooth="yes"/>
			<point x="338" y="194"/>
			<point x="296" y="116"/>
		</contour>
		<contour>
			<point x="488" y="302" type="line"/>
			<point x="508" y="364"/>
			<point x="544" y="390"/>
			<point x="578" y="390" type="curve" smooth="yes"/>
			<point x="620" y="390"/>
			<point x="634" y="364"/>
			<point x="634" y="330" type="curve" smooth="yes"/>
			<point x="634" y="320"/>
			<point x="632" y="310"/>
			<point x="630" y="302" type="curve"/>
		</contour>
		<contour>
			<point name="aboveLC" x="440" y="502" type="move"/>
		</contour>
	</outline>
</glyph>
<glyph name="Tbar" format="1">
	<unicode hex="0166"/>
	<advance width="540"/>
	<outline>
		<contour>
			<point x="76" y="276" type="line"/>
			<point x="476" y="276" type="line"/>
			<point x="490" y="352" type="line"/>
			<point x="184" y="352" type="line"/>
			<point x="90" y="346" type="line"/>
		</contour>
		<component base="T"/>
		<contour>
			<point name="aboveUC" x="350" y="682" type="move"/>
		</contour>
		<contour>
			<point name="belowLC" x="220" y="-22" type="move"/>
		</contour>
	</outline>
</glyph>
<glyph name="tbar" format="1">
	<unicode hex="0167"/>
	<advance width="384"/>
	<outline>
		<contour>
			<point x="6" y="196" type="line"/>
			<point x="338" y="196" type="line"/>
			<point x="358" y="300" type="line"/>
			<point x="118" y="300" type="line"/>
			<point x="26" y="294" type="line"/>
		</contour>
		<component base="t"/>
		<contour>
			<point name="aboveLC" x="260" y="664" type="move"/>
		</contour>
		<contour>
			<point name="belowLC" x="180" y="-22" type="move"/>
		</contour>
	</outline>
</glyph>
<glyph name="longs" format="1">
	<unicode hex="017F"/>
	<advance width="344"/>
	<outline>
		<contour>
			<point x="34" y="0" type="line"/>
			<point x="194" y="0" type="line"/>
			<point x="298" y="520" type="line" smooth="yes"/>
			<point x="308" y="574"/>
			<point x="328" y="582"/>
			<point x="362" y="582" type="curve" smooth="yes"/>
			<point x="378" y="582"/>
			<point x="398" y="574"/>
			<point x="408" y="568" type="curve"/>
			<point x="458" y="680" type="line"/>
			<point x="424" y="698"/>
			<point x="384" y="708"/>
			<point x="344" y="708" type="curve" smooth="yes"/>
			<point x="220" y="708"/>
			<point x="160" y="622"/>
			<point x="138" y="514" type="curve" smooth="yes"/>
		</contour>
		<contour>
			<point x="46" y="376" type="line"/>
			<point x="192" y="376" type="line"/>
			<point x="216" y="500" type="line"/>
			<point x="136" y="500" type="line"/>
			<point x="70" y="494" type="line"/>
		</contour>
		<contour>
			<point name="aboveUC" x="330" y="720" type="move"/>
		</contour>
		<contour>
			<point name="belowLC" x="120" y="-22" type="move"/>
		</contour>
	</outline>
</glyph>
<glyph name="Dhook" format="1">
	<unicode hex="018A"/>
	<advance width="812"/>
	<outline>
		<contour>
			<point x="210" y="0" type="line"/>
			<point x="414" y="0" type="line" smooth="yes"/>
			<point x="608" y="0"/>
			<point x="774" y="130"/>
			<point x="774" y="404" type="curve" smooth="yes"/>
			<point x="774" y="570"/>
			<point x="670" y="662"/>
			<point x="460" y="662" type="curve" smooth="yes"/>
			<point x="155" y="662"/>
			<point x="42" y="530"/>
			<point x="42" y="362" type="curve" smooth="yes"/>
			<point x="42" y="302"/>
			<point x="76" y="242"/>
			<point x="134" y="210" type="curve"/>
			<point x="222" y="320" type="line"/>
			<point x="198" y="336"/>
			<point x="184" y="358"/>
			<point x="184" y="386" type="curve" smooth="yes"/>
			<point x="184" y="459"/>
			<point x="236" y="532"/>
			<point x="374" y="532" type="curve" smooth="yes"/>
			<point x="462" y="532" type="line" smooth="yes"/>
			<point x="554" y="532"/>
			<point x="610" y="502"/>
			<point x="610" y="394" type="curve" smooth="yes"/>
			<point x="610" y="196"/>
			<point x="510" y="128"/>
			<point x="410" y="128" type="curve" smooth="yes"/>
			<point x="396" y="128" type="line"/>
			<point x="484" y="570" type="line"/>
			<point x="324" y="570" type="line"/>
		</contour>
		<contour>
			<point name="aboveUC" x="549" y="672" type="move"/>
		</contour>
		<contour>
			<point name="belowLC" x="430" y="-22" type="move"/>
		</contour>
	</outline>
</glyph>
<glyph name="Schwa" format="1">
	<unicode hex="018F"/>
	<advance width="680"/>
	<outline>
		<contour>
			<point x="308" y="-12" type="curve" smooth="yes"/>
			<point x="512" y="-12"/>
			<point x="658" y="156"/>
			<point x="658" y="386" type="curve" smooth="yes"/>
			<point x="658" y="564"/>
			<point x="555" y="662"/>
			<point x="408" y="662" type="curve" smooth="yes"/>
			<point x="316" y="662"/>
			<point x="250" y="630"/>
			<point x="194" y="584" type="curve"/>
			<point x="264" y="480" type="line"/>
			<point x="295" y="504"/>
			<point x="338" y="526"/>
			<point x="388" y="526" type="curve" smooth="yes"/>
			<point x="469" y="526"/>
			<point x="500" y="473"/>
			<point x="500" y="376" type="curve" smooth="yes"/>
			<point x="500" y="225"/>
			<point x="428" y="124"/>
			<point x="320" y="124" type="curve" smooth="yes"/>
			<point x="256" y="124"/>
			<point x="203" y="173"/>
			<point x="216" y="260" type="curve"/>
			<point x="512" y="260" type="line"/>
			<point x="536" y="376" type="line"/>
			<point x="90" y="376" type="line"/>
			<point x="74" y="326"/>
			<point x="66" y="292"/>
			<point x="66" y="240" type="curve" smooth="yes"/>
			<point x="66" y="85"/>
			<point x="158" y="-12"/>
		</contour>
		<contour>
			<point name="aboveUC" x="483" y="672" type="move"/>
		</contour>
		<contour>
			<point name="belowLC" x="333" y="-22" type="move"/>
		</contour>
	</outline>
</glyph>
<glyph name="Ghook" format="1">
	<unicode hex="0193"/>
	<advance width="620"/>
	<outline>
		<contour>
			<point x="466" y="573" type="curve"/>
			<point x="598" y="568" type="line"/>
			<point x="590" y="588"/>
			<point x="583" y="608"/>
			<point x="583" y="628" type="curve" smooth="yes"/>
			<point x="583" y="675"/>
			<point x="601" y="696"/>
			<point x="634" y="696" type="curve" smooth="yes"/>
			<point x="646" y="696"/>
			<point x="654" y="694"/>
			<point x="666" y="686" type="curve"/>
			<point x="716" y="795" type="line"/>
			<point x="690" y="810"/>
			<point x="654" y="820"/>
			<point x="613" y="820" type="curve" smooth="yes"/>
			<point x="520" y="820"/>
			<point x="456" y="750"/>
			<point x="456" y="668" type="curve" smooth="yes"/>
			<point x="456" y="648"/>
			<point x="460" y="602"/>
		</contour>
		<component base="G"/>
		<contour>
			<point name="aboveUC" x="310" y="672" type="move"/>
		</contour>
		<contour>
			<point name="belowLC" x="300" y="-22" type="move"/>
		</contour>
	</outline>
</glyph>
<glyph name="ohorn" format="1">
	<unicode hex="01A1"/>
	<advance width="546"/>
	<outline>
		<contour>
			<point x="466" y="435" type="line"/>
			<point x="559" y="456"/>
			<point x="600" y="528"/>
			<point x="600" y="608" type="curve" smooth="yes"/>
			<point x="600" y="630"/>
			<point x="594" y="662"/>
			<point x="584" y="684" type="curve"/>
			<point x="466" y="648" type="line"/>
			<point x="471" y="636"/>
			<point x="476" y="612"/>
			<point x="476" y="600" type="curve" smooth="yes"/>
			<point x="476" y="548"/>
			<point x="448" y="498"/>
			<point x="404" y="490" type="curve"/>
		</contour>
		<component base="o"/>
		<contour>
			<point name="aboveLC" x="310" y="522" type="move"/>
		</contour>
		<contour>
			<point name="belowLC" x="200" y="-22" type="move"/>
		</contour>
	</outline>
</glyph>
<glyph name="Uhorn" format="1">
	<unicode hex="01AF"/>
	<advance width="680"/>
	<outline>
		<contour>
			<point x="642" y="592" type="line"/>
			<point x="748" y="610"/>
			<point x="798" y="655"/>
			<point x="798" y="730" type="curve" smooth="yes"/>
			<point x="798" y="756"/>
			<point x="792" y="781"/>
			<point x="780" y="808" type="curve"/>
			<point x="662" y="772" type="line"/>
			<point x="669" y="755"/>
			<point x="674" y="738"/>
			<point x="674" y="722" type="curve" smooth="yes"/>
			<point x="674" y="681"/>
			<point x="647" y="655"/>
			<point x="591" y="649" type="curve"/>
		</contour>
		<component base="U"/>
		<contour>
			<point name="aboveUC" x="420" y="682" type="move"/>
		</contour>
		<contour>
			<point name="belowLC" x="290" y="-22" type="move"/>
		</contour>
	</outline>
</glyph>
<glyph name="clickalveolar" format="1">
	<unicode hex="01C2"/>
	<advance width="404"/>
	<outline>
		<contour>
			<point x="-19" y="124" type="line"/>
			<point x="363" y="124" type="line"/>
			<point x="383" y="224" type="line"/>
			<point x="73" y="224" type="line"/>
			<point x="-1" y="218" type="line"/>
		</contour>
		<contour>
			<point x="18" y="310" type="line"/>
			<point x="400" y="310" type="line"/>
			<point x="420" y="410" type="line"/>
			<point x="111" y="410" type="line"/>
			<point x="36" y="404" type="line"/>
		</contour>
		<contour>
			<point x="34" y="-176" type="line"/>
			<point x="194" y="-176" type="line"/>
			<point x="370" y="696" type="line"/>
			<point x="210" y="696" type="line"/>
		</contour>
	</outline>
</glyph>
<glyph name="clickretroflex" format="1">
	<unicode hex="01C3"/>
	<advance width="350"/>
	<outline>
		<contour>
			<point x="120" y="238" type="line"/>
			<point x="224" y="238" type="line"/>
			<point x="306" y="530" type="line"/>
			<point x="344" y="696" type="line"/>
			<point x="182" y="696" type="line"/>
			<point x="158" y="530" type="line"/>
		</contour>
		<contour>
			<point x="126" y="-12" type="curve" smooth="yes"/>
			<point x="192" y="-12"/>
			<point x="236" y="44"/>
			<point x="236" y="100" type="curve" smooth="yes"/>
			<point x="236" y="148"/>
			<point x="204" y="184"/>
			<point x="156" y="184" type="curve" smooth="yes"/>
			<point x="90" y="184"/>
			<point x="46" y="126"/>
			<point x="46" y="72" type="curve" smooth="yes"/>
			<point x="46" y="22"/>
			<point x="78" y="-12"/>
		</contour>
	</outline>
</glyph>
<glyph name="Oogonek" format="1">
	<unicode hex="01EA"/>
	<advance width="670"/>
	<outline>
		<contour>
			<point x="266" y="-226" type="curve" smooth="yes"/>
			<point x="302" y="-226"/>
			<point x="350" y="-212"/>
			<point x="380" y="-192" type="curve"/>
			<point x="350" y="-116" type="line"/>
			<point x="340" y="-122"/>
			<point x="333" y="-124"/>
			<point x="326" y="-124" type="curve" smooth="yes"/>
			<point x="308" y="-124"/>
			<point x="292" y="-114"/>
			<point x="292" y="-94" type="curve" smooth="yes"/>
			<point x="292" y="-65"/>
			<point x="318" y="-22"/>
			<point x="384" y="-2" type="curve" smooth="yes"/>
			<point x="542" y="46"/>
			<point x="644" y="194"/>
			<point x="644" y="386" type="curve" smooth="yes"/>
			<point x="644" y="562"/>
			<point x="542" y="662"/>
			<point x="392" y="662" type="curve" smooth="yes"/>
			<point x="220" y="662"/>
			<point x="56" y="506"/>
			<point x="56" y="264" type="curve" smooth="yes"/>
			<point x="56" y="88"/>
			<point x="158" y="-12"/>
			<point x="308" y="-12" type="curve"/>
			<point x="268" y="2" type="line"/>
			<point x="236" y="-18"/>
			<point x="168" y="-76"/>
			<point x="168" y="-146" type="curve" smooth="yes"/>
			<point x="168" y="-196"/>
			<point x="208" y="-226"/>
		</contour>
		<contour>
			<point x="316" y="126" type="curve" smooth="yes"/>
			<point x="256" y="126"/>
			<point x="220" y="180"/>
			<point x="220" y="274" type="curve" smooth="yes"/>
			<point x="220" y="424"/>
			<point x="310" y="524"/>
			<point x="384" y="524" type="curve" smooth="yes"/>
			<point x="444" y="524"/>
			<point x="480" y="470"/>
			<point x="480" y="376" type="curve" smooth="yes"/>
			<point x="480" y="226"/>
			<point x="390" y="126"/>
		</contour>
		<contour>
			<point name="aboveUC" x="434" y="682" type="move"/>
		</contour>
	</outline>
</glyph>
<glyph name="oogonek" format="1">
	<unicode hex="01EB"/>
	<advance width="540"/>
	<outline>
		<contour>
			<point x="182" y="-212" type="curve" smooth="yes"/>
			<point x="218" y="-212"/>
			<point x="266" y="-194"/>
			<point x="296" y="-172" type="curve"/>
			<point x="270" y="-108" type="line"/>
			<point x="260" y="-114"/>
			<point x="250" y="-118"/>
			<point x="240" y="-118" type="curve" smooth="yes"/>
			<point x="222" y="-118"/>
			<point x="206" y="-108"/>
			<point x="206" y="-90" type="curve" smooth="yes"/>
			<point x="206" y="-60"/>
			<point x="230" y="-20"/>
			<point x="282" y="-6" type="curve" smooth="yes"/>
			<point x="426" y="34"/>
			<point x="510" y="156"/>
			<point x="510" y="304" type="curve" smooth="yes"/>
			<point x="510" y="436"/>
			<point x="422" y="512"/>
			<point x="310" y="512" type="curve" smooth="yes"/>
			<point x="172" y="512"/>
			<point x="26" y="390"/>
			<point x="26" y="196" type="curve" smooth="yes"/>
			<point x="26" y="72"/>
			<point x="106" y="-12"/>
			<point x="226" y="-12" type="curve"/>
			<point x="186" y="2" type="line"/>
			<point x="156" y="-18"/>
			<point x="92" y="-70"/>
			<point x="92" y="-136" type="curve" smooth="yes"/>
			<point x="92" y="-186"/>
			<point x="130" y="-212"/>
		</contour>
		<contour>
			<point x="244" y="116" type="curve" smooth="yes"/>
			<point x="206" y="116"/>
			<point x="188" y="148"/>
			<point x="188" y="198" type="curve" smooth="yes"/>
			<point x="188" y="306"/>
			<point x="234" y="384"/>
			<point x="292" y="384" type="curve" smooth="yes"/>
			<point x="330" y="384"/>
			<point x="348" y="352"/>
			<point x="348" y="302" type="curve" smooth="yes"/>
			<point x="348" y="194"/>
			<point x="302" y="116"/>
		</contour>
		<contour>
			<point name="aboveLC" x="334" y="522" type="move"/>
		</contour>
	</outline>
</glyph>
<glyph name="dotlessj" format="1">
	<unicode hex="0237"/>
	<advance width="278"/>
	<outline>
		<contour>
			<point x="-30" y="-188" type="curve" smooth="yes"/>
			<point x="92" y="-188"/>
			<point x="148" y="-102"/>
			<point x="170" y="2" type="curve" smooth="yes"/>
			<point x="270" y="500" type="line"/>
			<point x="110" y="500" type="line"/>
			<point x="12" y="10" type="line" smooth="yes"/>
			<point x="0" y="-42"/>
			<point x="-12" y="-62"/>
			<point x="-44" y="-62" type="curve" smooth="yes"/>
			<point x="-60" y="-62"/>
			<point x="-74" y="-58"/>
			<point x="-88" y="-52" type="curve"/>
			<point x="-130" y="-164" type="line"/>
			<point x="-100" y="-182"/>
			<point x="-65" y="-188"/>
		</contour>
		<contour>
			<point name="aboveLC" x="190" y="522" type="move"/>
		</contour>
		<contour>
			<point name="belowLC" x="10" y="-198" type="move"/>
		</contour>
	</outline>
</glyph>
<glyph name="glottalstop" format="1">
	<unicode hex="0242"/>
	<advance width="442"/>
	<outline>
		<contour>
			<point x="68" y="0" type="line"/>
			<point x="228" y="0" type="line"/>
			<point x="278" y="252" type="line"/>
			<point x="410" y="338"/>
			<point x="478" y="428"/>
			<point x="478" y="547" type="curve" smooth="yes"/>
			<point x="478" y="655"/>
			<point x="397" y="708"/>
			<point x="295" y="708" type="curve" smooth="yes"/>
			<point x="200" y="708"/>
			<point x="124" y="670"/>
			<point x="66" y="618" type="curve"/>
			<point x="125" y="520" type="line"/>
			<point x="162" y="554"/>
			<point x="206" y="580"/>
			<point x="248" y="580" type="curve" smooth="yes"/>
			<point x="288" y="580"/>
			<point x="314" y="558"/>
			<point x="314" y="513" type="curve" smooth="yes"/>
			<point x="314" y="446"/>
			<point x="268" y="399"/>
			<point x="130" y="314" type="curve"/>
		</contour>
		<contour>
			<point name="aboveUC" x="320" y="720" type="move"/>
		</contour>
		<contour>
			<point name="belowLC" x="140" y="-22" type="move"/>
		</contour>
	</outline>
</glyph>
<glyph name="Bstroke" format="1">
	<unicode hex="0243"/>
	<advance width="630"/>
	<outline>
		<contour>
			<point x="44" y="0" type="line"/>
			<point x="290" y="0" type="line" smooth="yes"/>
			<point x="442" y="0"/>
			<point x="576" y="63"/>
			<point x="576" y="226" type="curve" smooth="yes"/>
			<point x="576" y="291"/>
			<point x="540" y="334"/>
			<point x="466" y="354" type="curve"/>
			<point x="468" y="358" type="line"/>
			<point x="558" y="384"/>
			<point x="608" y="444"/>
			<point x="608" y="510" type="curve" smooth="yes"/>
			<point x="608" y="609"/>
			<point x="514" y="650"/>
			<point x="382" y="650" type="curve" smooth="yes"/>
			<point x="174" y="650" type="line"/>
		</contour>
		<contour>
			<point x="-10" y="166" type="line"/>
			<point x="354" y="166" type="line"/>
			<point x="372" y="262" type="line"/>
			<point x="100" y="262" type="line"/>
			<point x="8" y="256" type="line"/>
		</contour>
		<contour>
			<point x="226" y="112" type="line"/>
			<point x="264" y="306" type="line"/>
			<point x="338" y="306" type="line" smooth="yes"/>
			<point x="394" y="306"/>
			<point x="422" y="279"/>
			<point x="422" y="230" type="curve" smooth="yes"/>
			<point x="422" y="158"/>
			<point x="376" y="112"/>
			<point x="300" y="112" type="curve" smooth="yes"/>
		</contour>
		<contour>
			<point x="286" y="406" type="line"/>
			<point x="312" y="536" type="line"/>
			<point x="356" y="536" type="line" smooth="yes"/>
			<point x="414" y="536"/>
			<point x="444" y="518"/>
			<point x="444" y="482" type="curve" smooth="yes"/>
			<point x="444" y="434"/>
			<point x="410" y="406"/>
			<point x="336" y="406" type="curve" smooth="yes"/>
		</contour>
	</outline>
</glyph>
<glyph name="aturned" format="1">
	<unicode hex="0250"/>
	<advance width="516"/>
	<outline>
		<contour>
			<point x="224" y="-12" type="curve" smooth="yes"/>
			<point x="294" y="-12"/>
			<point x="366" y="12"/>
			<point x="439" y="54" type="curve"/>
			<point x="396" y="154" type="line"/>
			<point x="340" y="126"/>
			<point x="304" y="112"/>
			<point x="262" y="112" type="curve" smooth="yes"/>
			<point x="224" y="112"/>
			<point x="204" y="134"/>
			<point x="204" y="168" type="curve" smooth="yes"/>
			<point x="204" y="170"/>
			<point x="204" y="172"/>
			<point x="204" y="174" type="curve"/>
			<point x="425" y="199"/>
			<point x="504" y="294"/>
			<point x="504" y="408" type="curve" smooth="yes"/>
			<point x="504" y="468"/>
			<point x="469" y="512"/>
			<point x="398" y="512" type="curve" smooth="yes"/>
			<point x="335" y="512"/>
			<point x="285" y="478"/>
			<point x="242" y="436" type="curve"/>
			<point x="238" y="436" type="line"/>
			<point x="238" y="500" type="line"/>
			<point x="108" y="500" type="line"/>
			<point x="53" y="226" type="line" smooth="yes"/>
			<point x="47" y="198"/>
			<point x="46" y="180"/>
			<point x="46" y="158" type="curve" smooth="yes"/>
			<point x="46" y="46"/>
			<point x="111" y="-12"/>
		</contour>
		<contour>
			<point x="222" y="278" type="curve"/>
			<point x="236" y="346" type="line"/>
			<point x="260" y="372"/>
			<point x="286" y="390"/>
			<point x="314" y="390" type="curve" smooth="yes"/>
			<point x="334" y="390"/>
			<point x="348" y="369"/>
			<point x="348" y="352" type="curve" smooth="yes"/>
			<point x="348" y="318"/>
			<point x="318" y="292"/>
		</contour>
		<contour>
			<point name="aboveLC" x="350" y="520" type="move"/>
		</contour>
		<contour>
			<point name="belowLC" x="220" y="-20" type="move"/>
		</contour>
	</outline>
</glyph>
<glyph name="alphalatin" format="1">
	<unicode hex="0251"/>
	<advance width="566"/>
	<outline>
		<contour>
			<point x="168" y="-12" type="curve" smooth="yes"/>
			<point x="216" y="-12"/>
			<point x="274" y="16"/>
			<point x="318" y="62" type="curve"/>
			<point x="320" y="62" type="line"/>
			<point x="320" y="62"/>
			<point x="320" y="62"/>
			<point x="320" y="62" type="curve" smooth="yes"/>
			<point x="334" y="4"/>
			<point x="372" y="-12"/>
			<point x="420" y="-12" type="curve" smooth="yes"/>
			<point x="450" y="-12"/>
			<point x="478" y="-6"/>
			<point x="502" y="0" type="curve"/>
			<point x="508" y="118" type="line"/>
			<point x="500" y="116"/>
			<point x="495" y="116"/>
			<point x="493" y="116" type="curve" smooth="yes"/>
			<point x="484" y="116"/>
			<point x="478" y="121"/>
			<point x="478" y="134" type="curve" smooth="yes"/>
			<point x="478" y="138"/>
			<point x="478" y="142"/>
			<point x="480" y="150" type="curve" smooth="yes"/>
			<point x="550" y="500" type="line"/>
			<point x="422" y="500" type="line"/>
			<point x="400" y="450" type="line"/>
			<point x="398" y="450" type="line"/>
			<point x="380" y="488"/>
			<point x="336" y="512"/>
			<point x="294" y="512" type="curve" smooth="yes"/>
			<point x="156" y="512"/>
			<point x="28" y="362"/>
			<point x="28" y="172" type="curve" smooth="yes"/>
			<point x="28" y="54"/>
			<point x="80" y="-12"/>
		</contour>
		<contour>
			<point x="240" y="118" type="curve" smooth="yes"/>
			<point x="212" y="118"/>
			<point x="194" y="140"/>
			<point x="194" y="192" type="curve" smooth="yes"/>
			<point x="194" y="304"/>
			<point x="248" y="382"/>
			<point x="306" y="382" type="curve" smooth="yes"/>
			<point x="324" y="382"/>
			<point x="348" y="370"/>
			<point x="360" y="344" type="curve"/>
			<point x="328" y="184" type="line"/>
			<point x="302" y="130"/>
			<point x="266" y="118"/>
		</contour>
		<contour>
			<point name="aboveLC" x="330" y="522" type="move"/>
		</contour>
		<contour>
			<point name="belowLC" x="250" y="-22" type="move"/>
		</contour>
	</outline>
</glyph>
<glyph name="bhook" format="1">
	<unicode hex="0253"/>
	<advance width="560"/>
	<outline>
		<contour>
			<point x="252" y="118" type="curve" smooth="yes"/>
			<point x="232" y="118"/>
			<point x="210" y="130"/>
			<point x="200" y="156" type="curve"/>
			<point x="230" y="306" type="line"/>
			<point x="254" y="350"/>
			<point x="288" y="362"/>
			<point x="314" y="362" type="curve" smooth="yes"/>
			<point x="342" y="362"/>
			<point x="360" y="343"/>
			<point x="360" y="298" type="curve" smooth="yes"/>
			<point x="360" y="192"/>
			<point x="310" y="118"/>
		</contour>
		<contour>
			<point x="8" y="0" type="line"/>
			<point x="140" y="0" type="line"/>
			<point x="162" y="50" type="line"/>
			<point x="164" y="50" type="line"/>
			<point x="182" y="12"/>
			<point x="222" y="-12"/>
			<point x="264" y="-12" type="curve" smooth="yes"/>
			<point x="402" y="-12"/>
			<point x="526" y="134"/>
			<point x="526" y="318" type="curve" smooth="yes"/>
			<point x="526" y="430"/>
			<point x="474" y="492"/>
			<point x="386" y="492" type="curve" smooth="yes"/>
			<point x="340" y="492"/>
			<point x="292" y="472"/>
			<point x="250" y="438" type="curve"/>
			<point x="248" y="438" type="line"/>
			<point x="274" y="530" type="line"/>
			<point x="286" y="570"/>
			<point x="306" y="582"/>
			<point x="344" y="582" type="curve" smooth="yes"/>
			<point x="362" y="582"/>
			<point x="388" y="574"/>
			<point x="402" y="566" type="curve"/>
			<point x="452" y="678" type="line"/>
			<point x="414" y="698"/>
			<point x="372" y="708"/>
			<point x="328" y="708" type="curve" smooth="yes"/>
			<point x="188" y="708"/>
			<point x="134" y="622"/>
			<point x="112" y="514" type="curve" smooth="yes"/>
		</contour>
		<contour>
			<point name="belowLC" x="240" y="-20" type="move"/>
		</contour>
		<contour>
			<point name="aboveUC" x="340" y="720" type="move"/>
		</contour>
	</outline>
</glyph>
<glyph name="oopen" format="1">
	<unicode hex="0254"/>
	<advance width="459"/>
	<outline>
		<contour>
			<point x="140" y="-12" type="curve" smooth="yes"/>
			<point x="296" y="-12"/>
			<point x="440" y="110"/>
			<point x="440" y="304" type="curve" smooth="yes"/>
			<point x="440" y="436"/>
			<point x="358" y="512"/>
			<point x="249" y="512" type="curve" smooth="yes"/>
			<point x="178" y="512"/>
			<point x="115" y="484"/>
			<point x="71" y="450" type="curve"/>
			<point x="134" y="354" type="line"/>
			<point x="164" y="376"/>
			<point x="184" y="384"/>
			<point x="208" y="384" type="curve" smooth="yes"/>
			<point x="248" y="384"/>
			<point x="276" y="354"/>
			<point x="276" y="288" type="curve" smooth="yes"/>
			<point x="276" y="178"/>
			<point x="216" y="116"/>
			<point x="146" y="116" type="curve" smooth="yes"/>
			<point x="117" y="116"/>
			<point x="91" y="132"/>
			<point x="70" y="152" type="curve"/>
			<point x="-12" y="50" type="line"/>
			<point x="19" y="12"/>
			<point x="76" y="-12"/>
		</contour>
		<contour>
			<point name="aboveLC" x="280" y="520" type="move"/>
		</contour>
		<contour>
			<point name="baseLC" x="170" y="0" type="move"/>
		</contour>
		<contour>
			<point name="belowLC" x="170" y="-22" type="move"/>
		</contour>
	</outline>
</glyph>
<glyph name="ccurl" format="1">
	<unicode hex="0255"/>
	<advance width="453"/>
	<outline>
		<contour>
			<point x="226" y="-12" type="curve" smooth="yes"/>
			<point x="350" y="-12"/>
			<point x="436" y="85"/>
			<point x="436" y="192" type="curve" smooth="yes"/>
			<point x="436" y="257"/>
			<point x="395" y="296"/>
			<point x="322" y="296" type="curve" smooth="yes"/>
			<point x="219" y="296"/>
			<point x="77" y="193"/>
			<point x="-42" y="-16" type="curve"/>
			<point x="74" y="-74" type="line"/>
			<point x="151" y="84"/>
			<point x="235" y="184"/>
			<point x="286" y="184" type="curve" smooth="yes"/>
			<point x="304" y="184"/>
			<point x="312" y="172"/>
			<point x="312" y="160" type="curve" smooth="yes"/>
			<point x="312" y="140"/>
			<point x="292" y="116"/>
			<point x="262" y="116" type="curve" smooth="yes"/>
			<point x="214" y="116"/>
			<point x="190" y="148"/>
			<point x="190" y="198" type="curve" smooth="yes"/>
			<point x="190" y="300"/>
			<point x="244" y="384"/>
			<point x="316" y="384" type="curve" smooth="yes"/>
			<point x="340" y="384"/>
			<point x="356" y="374"/>
			<point x="374" y="356" type="curve"/>
			<point x="462" y="450" type="line"/>
			<point x="438" y="480"/>
			<point x="390" y="512"/>
			<point x="326" y="512" type="curve" smooth="yes"/>
			<point x="154" y="512"/>
			<point x="26" y="364"/>
			<point x="26" y="196" type="curve" smooth="yes"/>
			<point x="26" y="64"/>
			<point x="114" y="-12"/>
		</contour>
		<contour>
			<point name="aboveLC" x="383" y="520" type="move"/>
		</contour>
		<contour>
			<point name="belowLC" x="226" y="-20" type="move"/>
		</contour>
	</outline>
</glyph>
<glyph name="dtail" format="1">
	<unicode hex="0256"/>
	<advance width="557"/>
	<outline>
		<contour>
			<point x="168" y="-12" type="curve" smooth="yes"/>
			<point x="216" y="-12"/>
			<point x="274" y="16"/>
			<point x="318" y="62" type="curve"/>
			<point x="320" y="62" type="line"/>
			<point x="320" y="0" type="line"/>
			<point x="450" y="0" type="line"/>
			<point x="590" y="696" type="line"/>
			<point x="430" y="696" type="line"/>
			<point x="402" y="550" type="line"/>
			<point x="392" y="456" type="line"/>
			<point x="390" y="456" type="line"/>
			<point x="372" y="490"/>
			<point x="336" y="512"/>
			<point x="294" y="512" type="curve" smooth="yes"/>
			<point x="156" y="512"/>
			<point x="28" y="362"/>
			<point x="28" y="172" type="curve" smooth="yes"/>
			<point x="28" y="54"/>
			<point x="80" y="-12"/>
		</contour>
		<contour>
			<point x="240" y="118" type="curve" smooth="yes"/>
			<point x="212" y="118"/>
			<point x="194" y="140"/>
			<point x="194" y="192" type="curve" smooth="yes"/>
			<point x="194" y="304"/>
			<point x="248" y="382"/>
			<point x="306" y="382" type="curve" smooth="yes"/>
			<point x="324" y="382"/>
			<point x="348" y="370"/>
			<point x="360" y="344" type="curve"/>
			<point x="328" y="184" type="line"/>
			<point x="300" y="130"/>
			<point x="266" y="118"/>
		</contour>
		<component base="lretroflex" xOffset="284"/>
		<contour>
			<point name="aboveUC" x="278" y="730" type="move"/>
		</contour>
		<contour>
			<point name="belowLC" x="278" y="-119" type="move"/>
		</contour>
	</outline>
</glyph>
<glyph name="dhook" format="1">
	<unicode hex="0257"/>
	<advance width="557"/>
	<outline>
		<contour>
			<point x="168" y="-12" type="curve" smooth="yes"/>
			<point x="216" y="-12"/>
			<point x="274" y="16"/>
			<point x="318" y="62" type="curve"/>
			<point x="320" y="62" type="line"/>
			<point x="320" y="0" type="line"/>
			<point x="450" y="0" type="line"/>
			<point x="554" y="518" type="line" smooth="yes"/>
			<point x="563" y="565"/>
			<point x="586" y="582"/>
			<point x="616" y="582" type="curve" smooth="yes"/>
			<point x="622" y="582"/>
			<point x="632" y="580"/>
			<point x="636" y="578" type="curve"/>
			<point x="682" y="696" type="line"/>
			<point x="668" y="702"/>
			<point x="644" y="708"/>
			<point x="620" y="708" type="curve" smooth="yes"/>
			<point x="486" y="708"/>
			<point x="422" y="628"/>
			<point x="404" y="540" type="curve"/>
			<point x="404" y="540" type="line"/>
			<point x="392" y="456" type="line"/>
			<point x="390" y="456" type="line"/>
			<point x="372" y="490"/>
			<point x="336" y="512"/>
			<point x="294" y="512" type="curve" smooth="yes"/>
			<point x="156" y="512"/>
			<point x="28" y="362"/>
			<point x="28" y="172" type="curve" smooth="yes"/>
			<point x="28" y="54"/>
			<point x="80" y="-12"/>
		</contour>
		<contour>
			<point x="240" y="118" type="curve" smooth="yes"/>
			<point x="212" y="118"/>
			<point x="194" y="140"/>
			<point x="194" y="192" type="curve" smooth="yes"/>
			<point x="194" y="304"/>
			<point x="248" y="382"/>
			<point x="306" y="382" type="curve" smooth="yes"/>
			<point x="324" y="382"/>
			<point x="348" y="370"/>
			<point x="360" y="344" type="curve"/>
			<point x="328" y="184" type="line"/>
			<point x="300" y="130"/>
			<point x="266" y="118"/>
		</contour>
		<contour>
			<point name="aboveUC" x="500" y="720" type="move"/>
		</contour>
		<contour>
			<point name="belowLC" x="230" y="-22" type="move"/>
		</contour>
	</outline>
</glyph>
<glyph name="ereversed" format="1">
	<unicode hex="0258"/>
	<advance width="502"/>
	<outline>
		<contour>
			<point x="170" y="-12" type="curve" smooth="yes"/>
			<point x="378" y="-12"/>
			<point x="472" y="140"/>
			<point x="472" y="318" type="curve" smooth="yes"/>
			<point x="472" y="440"/>
			<point x="397" y="512"/>
			<point x="288" y="512" type="curve" smooth="yes"/>
			<point x="130" y="512"/>
			<point x="24" y="360"/>
			<point x="24" y="202" type="curve"/>
			<point x="296" y="202" type="line"/>
			<point x="279" y="140"/>
			<point x="240" y="110"/>
			<point x="165" y="110" type="curve" smooth="yes"/>
			<point x="132" y="110"/>
			<point x="100" y="120"/>
			<point x="69" y="140" type="curve"/>
			<point x="7" y="46" type="line"/>
			<point x="50" y="9"/>
			<point x="117" y="-12"/>
		</contour>
		<contour>
			<point x="162" y="306" type="line"/>
			<point x="180" y="364"/>
			<point x="218" y="390"/>
			<point x="258" y="390" type="curve" smooth="yes"/>
			<point x="302" y="390"/>
			<point x="318" y="360"/>
			<point x="318" y="320" type="curve" smooth="yes"/>
			<point x="318" y="316"/>
			<point x="317" y="310"/>
			<point x="316" y="306" type="curve"/>
		</contour>
		<contour>
			<point name="aboveLC" x="310" y="522" type="move"/>
		</contour>
		<contour>
			<point name="belowLC" x="200" y="-22" type="move"/>
		</contour>
		<contour>
			<point name="ogonekLC" x="200" y="0" type="move"/>
		</contour>
	</outline>
</glyph>
<glyph name="schwa" format="1">
	<unicode hex="0259"/>
	<advance width="502"/>
	<outline>
		<contour>
			<point x="198" y="-12" type="curve" smooth="yes"/>
			<point x="334" y="-12"/>
			<point x="472" y="112"/>
			<point x="472" y="296" type="curve" smooth="yes"/>
			<point x="472" y="440"/>
			<point x="388" y="512"/>
			<point x="274" y="512" type="curve" smooth="yes"/>
			<point x="212" y="512"/>
			<point x="156" y="494"/>
			<point x="98" y="462" type="curve"/>
			<point x="148" y="362" type="line"/>
			<point x="178" y="378"/>
			<point x="212" y="390"/>
			<point x="236" y="390" type="curve" smooth="yes"/>
			<point x="282" y="390"/>
			<point x="320" y="372"/>
			<point x="322" y="298" type="curve"/>
			<point x="50" y="298" type="line"/>
			<point x="36" y="270"/>
			<point x="24" y="220"/>
			<point x="24" y="178" type="curve" smooth="yes"/>
			<point x="24" y="74"/>
			<point x="74" y="-12"/>
		</contour>
		<contour>
			<point x="216" y="110" type="curve" smooth="yes"/>
			<point x="176" y="110"/>
			<point x="154" y="134"/>
			<point x="154" y="170" type="curve" smooth="yes"/>
			<point x="154" y="178"/>
			<point x="156" y="186"/>
			<point x="158" y="194" type="curve"/>
			<point x="310" y="194" type="line"/>
			<point x="288" y="130"/>
			<point x="252" y="110"/>
		</contour>
		<contour>
			<point name="aboveLC" x="300" y="522" type="move"/>
		</contour>
		<contour>
			<point name="belowLC" x="190" y="-22" type="move"/>
		</contour>
		<contour>
			<point name="ogonekLC" x="190" y="0" type="move"/>
		</contour>
	</outline>
</glyph>
<glyph name="schwahookrhotic" format="1">
	<unicode hex="025A"/>
	<advance width="720"/>
	<outline>
		<contour>
			<point x="196" y="-12" type="curve" smooth="yes"/>
			<point x="334" y="-12"/>
			<point x="472" y="112"/>
			<point x="472" y="296" type="curve" smooth="yes"/>
			<point x="472" y="440"/>
			<point x="390" y="512"/>
			<point x="274" y="512" type="curve" smooth="yes"/>
			<point x="206" y="512"/>
			<point x="154" y="495"/>
			<point x="94" y="464" type="curve"/>
			<point x="142" y="362" type="line"/>
			<point x="176" y="380"/>
			<point x="210" y="390"/>
			<point x="238" y="390" type="curve" smooth="yes"/>
			<point x="282" y="390"/>
			<point x="322" y="367"/>
			<point x="322" y="294" type="curve" smooth="yes"/>
			<point x="322" y="159"/>
			<point x="254" y="110"/>
			<point x="212" y="110" type="curve" smooth="yes"/>
			<point x="174" y="110"/>
			<point x="150" y="128"/>
			<point x="150" y="168" type="curve"/>
			<point x="540" y="324" type="line"/>
			<point x="536" y="308"/>
			<point x="534" y="292"/>
			<point x="534" y="280" type="curve" smooth="yes"/>
			<point x="534" y="219"/>
			<point x="579" y="194"/>
			<point x="624" y="194" type="curve" smooth="yes"/>
			<point x="667" y="194"/>
			<point x="695" y="206"/>
			<point x="720" y="220" type="curve"/>
			<point x="703" y="300" type="line"/>
			<point x="692" y="294"/>
			<point x="680" y="290"/>
			<point x="662" y="290" type="curve" smooth="yes"/>
			<point x="640" y="290"/>
			<point x="628" y="304"/>
			<point x="628" y="340" type="curve" smooth="yes"/>
			<point x="628" y="368"/>
			<point x="632" y="403"/>
			<point x="646" y="452" type="curve"/>
			<point x="638" y="462" type="line"/>
			<point x="24" y="222" type="line"/>
			<point x="22" y="212"/>
			<point x="20" y="193"/>
			<point x="20" y="178" type="curve" smooth="yes"/>
			<point x="20" y="74"/>
			<point x="76" y="-12"/>
		</contour>
		<contour>
			<point name="aboveLC" x="290" y="520" type="move"/>
		</contour>
		<contour>
			<point name="belowLC" x="230" y="-20" type="move"/>
		</contour>
	</outline>
</glyph>
<glyph name="eopen" format="1">
	<unicode hex="025B"/>
	<advance width="454"/>
	<outline>
		<contour>
			<point x="224" y="-12" type="curve" smooth="yes"/>
			<point x="279" y="-12"/>
			<point x="336" y="2"/>
			<point x="396" y="38" type="curve"/>
			<point x="344" y="134" type="line"/>
			<point x="308" y="115"/>
			<point x="276" y="108"/>
			<point x="250" y="108" type="curve" smooth="yes"/>
			<point x="212" y="108"/>
			<point x="182" y="124"/>
			<point x="182" y="156" type="curve" smooth="yes"/>
			<point x="182" y="184"/>
			<point x="202" y="202"/>
			<point x="252" y="202" type="curve" smooth="yes"/>
			<point x="334" y="202" type="line"/>
			<point x="356" y="306" type="line"/>
			<point x="286" y="306" type="line" smooth="yes"/>
			<point x="258" y="306"/>
			<point x="238" y="318"/>
			<point x="238" y="340" type="curve" smooth="yes"/>
			<point x="238" y="368"/>
			<point x="260" y="390"/>
			<point x="304" y="390" type="curve" smooth="yes"/>
			<point x="334" y="390"/>
			<point x="362" y="385"/>
			<point x="390" y="368" type="curve"/>
			<point x="454" y="468" type="line"/>
			<point x="412" y="497"/>
			<point x="367" y="512"/>
			<point x="312" y="512" type="curve" smooth="yes"/>
			<point x="166" y="512"/>
			<point x="80" y="436"/>
			<point x="80" y="358" type="curve" smooth="yes"/>
			<point x="80" y="316"/>
			<point x="100" y="282"/>
			<point x="148" y="264" type="curve"/>
			<point x="148" y="260" type="line"/>
			<point x="79" y="243"/>
			<point x="18" y="200"/>
			<point x="18" y="118" type="curve" smooth="yes"/>
			<point x="18" y="28"/>
			<point x="116" y="-12"/>
		</contour>
		<contour>
			<point name="aboveLC" x="300" y="520" type="move"/>
		</contour>
		<contour>
			<point name="baseLC" x="200" y="0" type="move"/>
		</contour>
		<contour>
			<point name="belowLC" x="200" y="-20" type="move"/>
		</contour>
	</outline>
</glyph>
<glyph name="eopenreversed" format="1">
	<unicode hex="025C"/>
	<advance width="454"/>
	<outline>
		<contour>
			<point x="158" y="-12" type="curve" smooth="yes"/>
			<point x="284" y="-12"/>
			<point x="402" y="62"/>
			<point x="402" y="172" type="curve" smooth="yes"/>
			<point x="402" y="218"/>
			<point x="378" y="244"/>
			<point x="318" y="258" type="curve"/>
			<point x="318" y="262" type="line"/>
			<point x="384" y="282"/>
			<point x="422" y="334"/>
			<point x="422" y="388" type="curve" smooth="yes"/>
			<point x="422" y="476"/>
			<point x="347" y="512"/>
			<point x="258" y="512" type="curve" smooth="yes"/>
			<point x="197" y="512"/>
			<point x="139" y="499"/>
			<point x="80" y="468" type="curve"/>
			<point x="122" y="366" type="line"/>
			<point x="155" y="381"/>
			<point x="181" y="390"/>
			<point x="214" y="390" type="curve" smooth="yes"/>
			<point x="250" y="390"/>
			<point x="266" y="374"/>
			<point x="266" y="350" type="curve" smooth="yes"/>
			<point x="266" y="322"/>
			<point x="244" y="302"/>
			<point x="200" y="302" type="curve" smooth="yes"/>
			<point x="130" y="302" type="line"/>
			<point x="112" y="206" type="line"/>
			<point x="182" y="206" type="line" smooth="yes"/>
			<point x="224" y="206"/>
			<point x="244" y="194"/>
			<point x="244" y="168" type="curve" smooth="yes"/>
			<point x="244" y="130"/>
			<point x="210" y="108"/>
			<point x="162" y="108" type="curve" smooth="yes"/>
			<point x="130" y="108"/>
			<point x="90" y="116"/>
			<point x="56" y="136" type="curve"/>
			<point x="-2" y="34" type="line"/>
			<point x="50" y="-4"/>
			<point x="100" y="-12"/>
		</contour>
		<contour>
			<point name="aboveLC" x="270" y="520" type="move"/>
		</contour>
		<contour>
			<point name="belowLC" x="170" y="-20" type="move"/>
		</contour>
	</outline>
</glyph>
<glyph name="eopenreversedclosed" format="1">
	<unicode hex="025E"/>
	<advance width="551"/>
	<outline>
		<contour>
			<point x="261" y="-12" type="curve" smooth="yes"/>
			<point x="452" y="-12"/>
			<point x="579" y="138"/>
			<point x="579" y="314" type="curve" smooth="yes"/>
			<point x="579" y="447"/>
			<point x="483" y="512"/>
			<point x="367" y="512" type="curve" smooth="yes"/>
			<point x="220" y="512"/>
			<point x="134" y="433"/>
			<point x="134" y="348" type="curve" smooth="yes"/>
			<point x="134" y="314"/>
			<point x="151" y="279"/>
			<point x="194" y="266" type="curve"/>
			<point x="193" y="262" type="line"/>
			<point x="110" y="242"/>
			<point x="68" y="182"/>
			<point x="68" y="117" type="curve" smooth="yes"/>
			<point x="68" y="31"/>
			<point x="161" y="-12"/>
		</contour>
		<contour>
			<point x="287" y="118" type="curve" smooth="yes"/>
			<point x="256" y="118"/>
			<point x="235" y="131"/>
			<point x="235" y="153" type="curve" smooth="yes"/>
			<point x="235" y="184"/>
			<point x="249" y="198"/>
			<point x="289" y="198" type="curve" smooth="yes"/>
			<point x="336" y="198" type="line"/>
			<point x="359" y="310" type="line"/>
			<point x="327" y="310" type="line" smooth="yes"/>
			<point x="305" y="310"/>
			<point x="292" y="316"/>
			<point x="292" y="333" type="curve" smooth="yes"/>
			<point x="292" y="357"/>
			<point x="314" y="382"/>
			<point x="345" y="382" type="curve" smooth="yes"/>
			<point x="387" y="382"/>
			<point x="410" y="361"/>
			<point x="410" y="309" type="curve" smooth="yes"/>
			<point x="410" y="185"/>
			<point x="358" y="118"/>
		</contour>
		<contour>
			<point name="aboveLC" x="377" y="520" type="move"/>
		</contour>
		<contour>
			<point name="belowLC" x="278" y="-20" type="move"/>
		</contour>
	</outline>
</glyph>
<glyph name="dotlessjstroke" format="1">
	<unicode hex="025F"/>
	<advance width="326"/>
	<outline>
		<contour>
			<point x="6" y="224" type="line"/>
			<point x="306" y="224" type="line"/>
			<point x="320" y="296" type="line"/>
			<point x="98" y="296" type="line"/>
			<point x="20" y="290" type="line"/>
		</contour>
		<component base="dotlessj" xOffset="24"/>
		<contour>
			<point name="aboveLC" x="210" y="522" type="move"/>
		</contour>
		<contour>
			<point name="belowLC" x="30" y="-198" type="move"/>
		</contour>
	</outline>
</glyph>
<glyph name="ghook" format="1">
	<unicode hex="0260"/>
	<advance width="568"/>
	<outline>
		<contour>
			<point x="538" y="472" type="move"/>
			<point x="547" y="519"/>
			<point x="570" y="536"/>
			<point x="600" y="536" type="curve" smooth="yes"/>
			<point x="606" y="536"/>
			<point x="616" y="534"/>
			<point x="620" y="532" type="curve"/>
			<point x="666" y="650" type="line"/>
			<point x="652" y="656"/>
			<point x="628" y="662"/>
			<point x="604" y="662" type="curve" smooth="yes"/>
			<point x="470" y="662"/>
			<point x="406" y="582"/>
			<point x="388" y="494" type="curve"/>
			<point x="376" y="410" type="line"/>
			<point x="374" y="410" type="line"/>
			<point x="356" y="444"/>
			<point x="320" y="466"/>
			<point x="278" y="466" type="curve" smooth="yes"/>
		</contour>
		<component base="g"/>
		<contour>
			<point name="aboveLC" x="398" y="520" type="move"/>
		</contour>
		<contour>
			<point name="belowLC" x="284" y="-119" type="move"/>
		</contour>
	</outline>
</glyph>
<glyph name="Gsmall" format="1">
	<unicode hex="0262"/>
	<advance width="503"/>
	<outline>
		<contour>
			<point x="225" y="-12" type="curve" smooth="yes"/>
			<point x="301" y="-12"/>
			<point x="376" y="16"/>
			<point x="426" y="55" type="curve"/>
			<point x="477" y="310" type="line"/>
			<point x="265" y="310" type="line"/>
			<point x="243" y="198" type="line"/>
			<point x="314" y="198" type="line"/>
			<point x="300" y="124" type="line"/>
			<point x="289" y="118"/>
			<point x="277" y="116"/>
			<point x="263" y="116" type="curve" smooth="yes"/>
			<point x="217" y="116"/>
			<point x="190" y="148"/>
			<point x="190" y="205" type="curve" smooth="yes"/>
			<point x="190" y="306"/>
			<point x="249" y="382"/>
			<point x="317" y="382" type="curve" smooth="yes"/>
			<point x="358" y="382"/>
			<point x="372" y="369"/>
			<point x="398" y="350" type="curve"/>
			<point x="491" y="452" type="line"/>
			<point x="454" y="487"/>
			<point x="414" y="512"/>
			<point x="332" y="512" type="curve" smooth="yes"/>
			<point x="175" y="512"/>
			<point x="26" y="379"/>
			<point x="26" y="200" type="curve" smooth="yes"/>
			<point x="26" y="53"/>
			<point x="119" y="-12"/>
		</contour>
		<component base="c"/>
		<contour>
			<point name="belowLC" x="310" y="-20" type="move"/>
		</contour>
		<contour>
			<point name="aboveLC" x="415" y="520" type="move"/>
		</contour>
	</outline>
</glyph>
<glyph name="ramshorn" format="1">
	<unicode hex="0264"/>
	<advance width="568"/>
	<outline>
		<contour>
			<point x="282" y="-12" type="curve" smooth="yes"/>
			<point x="399" y="-12"/>
			<point x="492" y="52"/>
			<point x="517" y="175" type="curve" smooth="yes"/>
			<point x="527" y="228"/>
			<point x="507" y="290"/>
			<point x="464" y="342" type="curve"/>
			<point x="488" y="366"/>
			<point x="513" y="374"/>
			<point x="537" y="374" type="curve" smooth="yes"/>
			<point x="554" y="374"/>
			<point x="570" y="368"/>
			<point x="579" y="360" type="curve"/>
			<point x="650" y="484" type="line"/>
			<point x="630" y="502"/>
			<point x="583" y="512"/>
			<point x="542" y="512" type="curve" smooth="yes"/>
			<point x="490" y="512"/>
			<point x="429" y="492"/>
			<point x="371" y="436" type="curve"/>
			<point x="336" y="492"/>
			<point x="283" y="512"/>
			<point x="231" y="512" type="curve" smooth="yes"/>
			<point x="190" y="512"/>
			<point x="139" y="502"/>
			<point x="112" y="484" type="curve"/>
			<point x="133" y="360" type="line"/>
			<point x="145" y="368"/>
			<point x="163" y="374"/>
			<point x="180" y="374" type="curve" smooth="yes"/>
			<point x="203" y="374"/>
			<point x="227" y="366"/>
			<point x="241" y="342" type="curve"/>
			<point x="177" y="290"/>
			<point x="132" y="228"/>
			<point x="121" y="175" type="curve" smooth="yes"/>
			<point x="97" y="52"/>
			<point x="165" y="-12"/>
		</contour>
		<contour>
			<point x="309" y="126" type="curve" smooth="yes"/>
			<point x="281" y="126"/>
			<point x="269" y="146"/>
			<point x="276" y="180" type="curve" smooth="yes"/>
			<point x="281" y="206"/>
			<point x="304" y="239"/>
			<point x="337" y="266" type="curve"/>
			<point x="360" y="239"/>
			<point x="369" y="206"/>
			<point x="364" y="180" type="curve" smooth="yes"/>
			<point x="357" y="146"/>
			<point x="337" y="126"/>
		</contour>
		<contour>
			<point name="aboveLC" x="284" y="520" type="move"/>
		</contour>
		<contour>
			<point name="belowLC" x="284" y="-20" type="move"/>
		</contour>
	</outline>
</glyph>
<glyph name="hhook" format="1">
	<unicode hex="0266"/>
	<advance width="556"/>
	<outline>
		<contour>
			<point x="8" y="0" type="line"/>
			<point x="168" y="0" type="line"/>
			<point x="226" y="300" type="line"/>
			<point x="262" y="338"/>
			<point x="286" y="356"/>
			<point x="314" y="356" type="curve" smooth="yes"/>
			<point x="340" y="356"/>
			<point x="356" y="342"/>
			<point x="356" y="314" type="curve" smooth="yes"/>
			<point x="356" y="302"/>
			<point x="352" y="288"/>
			<point x="348" y="270" type="curve" smooth="yes"/>
			<point x="294" y="0" type="line"/>
			<point x="454" y="0" type="line"/>
			<point x="512" y="290" type="line" smooth="yes"/>
			<point x="517" y="314"/>
			<point x="520" y="340"/>
			<point x="520" y="362" type="curve" smooth="yes"/>
			<point x="520" y="448"/>
			<point x="484" y="492"/>
			<point x="402" y="492" type="curve" smooth="yes"/>
			<point x="342" y="492"/>
			<point x="290" y="462"/>
			<point x="250" y="426" type="curve"/>
			<point x="246" y="426" type="line"/>
			<point x="274" y="530" type="line"/>
			<point x="286" y="570"/>
			<point x="306" y="582"/>
			<point x="344" y="582" type="curve" smooth="yes"/>
			<point x="362" y="582"/>
			<point x="388" y="574"/>
			<point x="402" y="566" type="curve"/>
			<point x="452" y="678" type="line"/>
			<point x="414" y="698"/>
			<point x="372" y="708"/>
			<point x="328" y="708" type="curve" smooth="yes"/>
			<point x="188" y="708"/>
			<point x="134" y="622"/>
			<point x="112" y="514" type="curve"/>
		</contour>
		<contour>
			<point name="belowLC" x="280" y="-20" type="move"/>
		</contour>
		<contour>
			<point name="aboveUC" x="279" y="730" type="move"/>
		</contour>
	</outline>
</glyph>
<glyph name="henghook" format="1">
	<unicode hex="0267"/>
	<advance width="556"/>
	<outline>
		<contour>
			<point x="254" y="-188" type="curve" smooth="yes"/>
			<point x="378" y="-188"/>
			<point x="432" y="-106"/>
			<point x="454" y="2" type="curve" smooth="yes"/>
			<point x="512" y="290" type="line" smooth="yes"/>
			<point x="517" y="314"/>
			<point x="520" y="340"/>
			<point x="520" y="362" type="curve" smooth="yes"/>
			<point x="520" y="448"/>
			<point x="484" y="492"/>
			<point x="402" y="492" type="curve" smooth="yes"/>
			<point x="342" y="492"/>
			<point x="290" y="462"/>
			<point x="250" y="426" type="curve"/>
			<point x="246" y="426" type="line"/>
			<point x="274" y="530" type="line"/>
			<point x="286" y="570"/>
			<point x="306" y="582"/>
			<point x="344" y="582" type="curve" smooth="yes"/>
			<point x="362" y="582"/>
			<point x="388" y="574"/>
			<point x="402" y="566" type="curve"/>
			<point x="452" y="678" type="line"/>
			<point x="414" y="698"/>
			<point x="372" y="708"/>
			<point x="328" y="708" type="curve" smooth="yes"/>
			<point x="188" y="708"/>
			<point x="134" y="622"/>
			<point x="112" y="514" type="curve"/>
			<point x="8" y="0" type="line"/>
			<point x="168" y="0" type="line"/>
			<point x="226" y="300" type="line"/>
			<point x="262" y="338"/>
			<point x="286" y="356"/>
			<point x="314" y="356" type="curve" smooth="yes"/>
			<point x="340" y="356"/>
			<point x="356" y="342"/>
			<point x="356" y="314" type="curve" smooth="yes"/>
			<point x="356" y="302"/>
			<point x="352" y="288"/>
			<point x="348" y="270" type="curve" smooth="yes"/>
			<point x="296" y="10" type="line" smooth="yes"/>
			<point x="286" y="-42"/>
			<point x="272" y="-62"/>
			<point x="240" y="-62" type="curve" smooth="yes"/>
			<point x="226" y="-62"/>
			<point x="212" y="-58"/>
			<point x="198" y="-50" type="curve"/>
			<point x="150" y="-164" type="line"/>
			<point x="186" y="-182"/>
			<point x="218" y="-188"/>
		</contour>
		<contour>
			<point name="aboveUC" x="340" y="720" type="move"/>
		</contour>
		<contour>
			<point name="belowLC" x="279" y="-119" type="move"/>
		</contour>
	</outline>
</glyph>
<glyph name="lmiddletilde" format="1">
	<unicode hex="026B"/>
	<advance width="476"/>
	<outline>
		<component base="l" xOffset="104"/>
		<component base="tildeoverlaycmb" xOffset="212" yOffset="110"/>
		<contour>
			<point name="aboveUC" x="320" y="720" type="move"/>
		</contour>
		<contour>
			<point name="belowLC" x="220" y="-22" type="move"/>
		</contour>
	</outline>
</glyph>
<glyph name="lbelt" format="1">
	<unicode hex="026C"/>
	<advance width="406"/>
	<outline>
		<contour>
			<point x="137" y="282" type="curve" smooth="yes"/>
			<point x="372" y="282" type="line"/>
			<point x="388" y="362" type="line"/>
			<point x="137" y="362" type="line" smooth="yes"/>
			<point x="107" y="362"/>
			<point x="94" y="376"/>
			<point x="94" y="392" type="curve" smooth="yes"/>
			<point x="94" y="408"/>
			<point x="106" y="420"/>
			<point x="127" y="420" type="curve" smooth="yes"/>
			<point x="155" y="420"/>
			<point x="162" y="395"/>
			<point x="162" y="376" type="curve"/>
			<point x="216" y="394" type="line"/>
			<point x="216" y="442"/>
			<point x="189" y="498"/>
			<point x="116" y="498" type="curve" smooth="yes"/>
			<point x="49" y="498"/>
			<point x="8" y="438"/>
			<point x="8" y="390" type="curve" smooth="yes"/>
			<point x="8" y="327"/>
			<point x="56" y="282"/>
		</contour>
		<component base="l" xOffset="78"/>
		<contour>
			<point name="aboveUC" x="203" y="730" type="move"/>
		</contour>
		<contour>
			<point name="belowLC" x="203" y="-20" type="move"/>
		</contour>
	</outline>
</glyph>
<glyph name="lretroflex" format="1">
	<unicode hex="026D"/>
	<advance width="286"/>
	<outline>
		<contour>
			<point x="124" y="-188" type="curve" smooth="yes"/>
			<point x="169" y="-188"/>
			<point x="212" y="-176"/>
			<point x="236" y="-168" type="curve"/>
			<point x="212" y="-54" type="line"/>
			<point x="202" y="-58"/>
			<point x="194" y="-60"/>
			<point x="184" y="-60" type="curve" smooth="yes"/>
			<point x="170" y="-60"/>
			<point x="162" y="-54"/>
			<point x="162" y="-35" type="curve" smooth="yes"/>
			<point x="162" y="-30"/>
			<point x="162" y="-26"/>
			<point x="164" y="-16" type="curve" smooth="yes"/>
			<point x="308" y="696" type="line"/>
			<point x="148" y="696" type="line"/>
			<point x="6" y="-10" type="line" smooth="yes"/>
			<point x="0" y="-38"/>
			<point x="-2" y="-58"/>
			<point x="-2" y="-82" type="curve" smooth="yes"/>
			<point x="-2" y="-146"/>
			<point x="34" y="-188"/>
		</contour>
		<contour>
			<point name="aboveUC" x="240" y="720" type="move"/>
		</contour>
		<contour>
			<point name="belowLC" x="90" y="-198" type="move"/>
		</contour>
	</outline>
</glyph>
<glyph name="lezh" format="1">
	<unicode hex="026E"/>
	<advance width="646"/>
	<outline>
		<contour>
			<point x="8" y="0" type="line"/>
			<point x="168" y="0" type="line"/>
			<point x="308" y="696" type="line"/>
			<point x="148" y="696" type="line"/>
		</contour>
		<contour>
			<point x="304" y="-206" type="curve" smooth="yes"/>
			<point x="464" y="-206"/>
			<point x="580" y="-79"/>
			<point x="580" y="62" type="curve" smooth="yes"/>
			<point x="580" y="148"/>
			<point x="530" y="210"/>
			<point x="458" y="226" type="curve"/>
			<point x="624" y="408" type="line"/>
			<point x="642" y="500" type="line"/>
			<point x="246" y="500" type="line"/>
			<point x="222" y="376" type="line"/>
			<point x="432" y="376" type="line"/>
			<point x="258" y="190" type="line"/>
			<point x="298" y="110" type="line"/>
			<point x="319" y="117"/>
			<point x="331" y="122"/>
			<point x="350" y="122" type="curve" smooth="yes"/>
			<point x="386" y="122"/>
			<point x="418" y="100"/>
			<point x="418" y="50" type="curve" smooth="yes"/>
			<point x="418" y="-30"/>
			<point x="368" y="-80"/>
			<point x="310" y="-80" type="curve" smooth="yes"/>
			<point x="260" y="-80"/>
			<point x="228" y="-60"/>
			<point x="200" y="-30" type="curve"/>
			<point x="118" y="-122" type="line"/>
			<point x="154" y="-168"/>
			<point x="216" y="-206"/>
		</contour>
		<contour>
			<point name="aboveUC" x="240" y="720" type="move"/>
		</contour>
		<contour>
			<point name="belowLC" x="320" y="-198" type="move"/>
		</contour>
	</outline>
</glyph>
<glyph name="mturned" format="1">
	<unicode hex="026F"/>
	<advance width="834"/>
	<outline>
		<component base="m" xScale="-1" yScale="-1" xOffset="832" yOffset="500"/>
		<contour>
			<point name="aboveLC" x="470" y="522" type="move"/>
		</contour>
		<contour>
			<point name="belowLC" x="370" y="-22" type="move"/>
		</contour>
	</outline>
</glyph>
<glyph name="mlonglegturned" format="1">
	<unicode hex="0270"/>
	<advance width="834"/>
	<outline>
		<contour>
			<point x="528" y="-176" type="line"/>
			<point x="688" y="-176" type="line"/>
			<point x="824" y="500" type="line"/>
			<point x="664" y="500" type="line"/>
			<point x="602" y="180" type="line"/>
			<point x="566" y="142"/>
			<point x="540" y="124"/>
			<point x="518" y="124" type="curve" smooth="yes"/>
			<point x="494" y="124"/>
			<point x="478" y="138"/>
			<point x="478" y="166" type="curve" smooth="yes"/>
			<point x="478" y="178"/>
			<point x="482" y="192"/>
			<point x="486" y="210" type="curve" smooth="yes"/>
			<point x="544" y="500" type="line"/>
			<point x="384" y="500" type="line"/>
			<point x="320" y="180" type="line"/>
			<point x="284" y="142"/>
			<point x="258" y="124"/>
			<point x="238" y="124" type="curve" smooth="yes"/>
			<point x="212" y="124"/>
			<point x="196" y="138"/>
			<point x="196" y="166" type="curve" smooth="yes"/>
			<point x="196" y="178"/>
			<point x="200" y="192"/>
			<point x="204" y="210" type="curve" smooth="yes"/>
			<point x="262" y="500" type="line"/>
			<point x="102" y="500" type="line"/>
			<point x="40" y="190" type="line" smooth="yes"/>
			<point x="35" y="166"/>
			<point x="32" y="140"/>
			<point x="32" y="118" type="curve" smooth="yes"/>
			<point x="32" y="32"/>
			<point x="68" y="-12"/>
			<point x="150" y="-12" type="curve" smooth="yes"/>
			<point x="208" y="-12"/>
			<point x="264" y="24"/>
			<point x="316" y="72" type="curve"/>
			<point x="332" y="20"/>
			<point x="360" y="-12"/>
			<point x="432" y="-12" type="curve" smooth="yes"/>
			<point x="486" y="-12"/>
			<point x="550" y="24"/>
			<point x="584" y="64" type="curve"/>
			<point x="588" y="64" type="line"/>
			<point x="558" y="-34" type="line"/>
		</contour>
		<contour>
			<point name="aboveLC" x="470" y="522" type="move"/>
		</contour>
		<contour>
			<point name="belowLC" x="330" y="-198" type="move"/>
		</contour>
	</outline>
</glyph>
<glyph name="nhookleft" format="1">
	<unicode hex="0272"/>
	<advance width="562"/>
	<outline>
		<contour>
			<point x="-30" y="-188" type="curve" smooth="yes"/>
			<point x="94" y="-188"/>
			<point x="150" y="-102"/>
			<point x="170" y="2" type="curve" smooth="yes"/>
			<point x="232" y="320" type="line"/>
			<point x="268" y="358"/>
			<point x="292" y="376"/>
			<point x="320" y="376" type="curve" smooth="yes"/>
			<point x="346" y="376"/>
			<point x="362" y="362"/>
			<point x="362" y="334" type="curve" smooth="yes"/>
			<point x="362" y="322"/>
			<point x="358" y="308"/>
			<point x="354" y="290" type="curve" smooth="yes"/>
			<point x="296" y="0" type="line"/>
			<point x="456" y="0" type="line"/>
			<point x="518" y="310" type="line" smooth="yes"/>
			<point x="523" y="334"/>
			<point x="526" y="360"/>
			<point x="526" y="382" type="curve" smooth="yes"/>
			<point x="526" y="468"/>
			<point x="490" y="512"/>
			<point x="408" y="512" type="curve" smooth="yes"/>
			<point x="344" y="512"/>
			<point x="290" y="476"/>
			<point x="244" y="436" type="curve"/>
			<point x="240" y="436" type="line"/>
			<point x="240" y="500" type="line"/>
			<point x="110" y="500" type="line"/>
			<point x="12" y="10" type="line" smooth="yes"/>
			<point x="2" y="-42"/>
			<point x="-12" y="-62"/>
			<point x="-44" y="-62" type="curve" smooth="yes"/>
			<point x="-52" y="-62"/>
			<point x="-60" y="-60"/>
			<point x="-68" y="-56" type="curve"/>
			<point x="-116" y="-170" type="line"/>
			<point x="-86" y="-184"/>
			<point x="-60" y="-188"/>
		</contour>
		<contour>
			<point name="belowLC" x="210" y="-198" type="move"/>
		</contour>
		<contour>
			<point name="aboveLC" x="370" y="520" type="move"/>
		</contour>
	</outline>
</glyph>
<glyph name="nretroflex" format="1">
	<unicode hex="0273"/>
	<advance width="562"/>
	<outline>
		<contour>
			<point x="410" y="-188" type="curve" smooth="yes"/>
			<point x="455" y="-188"/>
			<point x="498" y="-176"/>
			<point x="522" y="-168" type="curve"/>
			<point x="498" y="-54" type="line"/>
			<point x="488" y="-58"/>
			<point x="480" y="-60"/>
			<point x="470" y="-60" type="curve" smooth="yes"/>
			<point x="456" y="-60"/>
			<point x="448" y="-54"/>
			<point x="448" y="-35" type="curve" smooth="yes"/>
			<point x="448" y="-30"/>
			<point x="448" y="-26"/>
			<point x="450" y="-16" type="curve" smooth="yes"/>
			<point x="516" y="310" type="line" smooth="yes"/>
			<point x="521" y="334"/>
			<point x="524" y="360"/>
			<point x="524" y="382" type="curve" smooth="yes"/>
			<point x="524" y="468"/>
			<point x="488" y="512"/>
			<point x="406" y="512" type="curve" smooth="yes"/>
			<point x="342" y="512"/>
			<point x="288" y="476"/>
			<point x="242" y="436" type="curve"/>
			<point x="238" y="436" type="line"/>
			<point x="238" y="500" type="line"/>
			<point x="108" y="500" type="line"/>
			<point x="8" y="0" type="line"/>
			<point x="168" y="0" type="line"/>
			<point x="230" y="320" type="line"/>
			<point x="266" y="358"/>
			<point x="290" y="376"/>
			<point x="318" y="376" type="curve" smooth="yes"/>
			<point x="344" y="376"/>
			<point x="360" y="362"/>
			<point x="360" y="334" type="curve" smooth="yes"/>
			<point x="360" y="322"/>
			<point x="356" y="308"/>
			<point x="352" y="290" type="curve" smooth="yes"/>
			<point x="292" y="-10" type="line" smooth="yes"/>
			<point x="286" y="-38"/>
			<point x="284" y="-58"/>
			<point x="284" y="-82" type="curve" smooth="yes"/>
			<point x="284" y="-146"/>
			<point x="320" y="-188"/>
		</contour>
		<contour>
			<point name="aboveLC" x="360" y="520" type="move"/>
		</contour>
		<contour>
			<point name="belowLC" x="209" y="-198" type="move"/>
		</contour>
	</outline>
</glyph>
<glyph name="Nsmall" format="1">
	<unicode hex="0274"/>
	<advance width="542"/>
	<outline>
		<contour>
			<point x="8" y="0" type="line"/>
			<point x="157" y="0" type="line"/>
			<point x="180" y="114" type="line" smooth="yes"/>
			<point x="190" y="163"/>
			<point x="195" y="227"/>
			<point x="200" y="288" type="curve"/>
			<point x="204" y="288" type="line"/>
			<point x="211" y="258"/>
			<point x="221" y="212"/>
			<point x="230" y="184" type="curve" smooth="yes"/>
			<point x="288" y="0" type="line"/>
			<point x="432" y="0" type="line"/>
			<point x="532" y="500" type="line"/>
			<point x="382" y="500" type="line"/>
			<point x="360" y="386" type="line" smooth="yes"/>
			<point x="351" y="337"/>
			<point x="344" y="272"/>
			<point x="338" y="212" type="curve"/>
			<point x="335" y="212" type="line"/>
			<point x="328" y="241"/>
			<point x="319" y="288"/>
			<point x="310" y="316" type="curve" smooth="yes"/>
			<point x="252" y="500" type="line"/>
			<point x="108" y="500" type="line"/>
		</contour>
		<contour>
			<point name="belowLC" x="230" y="-22" type="move"/>
		</contour>
		<contour>
			<point name="aboveLC" x="320" y="522" type="move"/>
		</contour>
	</outline>
</glyph>
<glyph name="omegalatinclosed" format="1">
	<unicode hex="0277"/>
	<advance width="740"/>
	<outline>
		<contour>
			<point x="24" y="38"/>
			<point x="99" y="-12"/>
			<point x="182" y="-12" type="curve" smooth="yes"/>
			<point x="261" y="-12"/>
			<point x="316" y="44"/>
			<point x="346" y="114" type="curve"/>
			<point x="350" y="114" type="line"/>
			<point x="352" y="32"/>
			<point x="406" y="-12"/>
			<point x="485" y="-12" type="curve" smooth="yes"/>
			<point x="630" y="-12"/>
			<point x="706" y="126"/>
			<point x="706" y="258" type="curve" smooth="yes"/>
			<point x="706" y="436"/>
			<point x="562" y="510"/>
			<point x="402" y="510" type="curve" smooth="yes"/>
			<point x="170" y="510"/>
			<point x="24" y="346"/>
			<point x="24" y="165" type="curve" smooth="yes"/>
		</contour>
		<contour>
			<point x="227" y="116" type="curve" smooth="yes"/>
			<point x="203" y="116"/>
			<point x="186" y="131"/>
			<point x="186" y="178" type="curve" smooth="yes"/>
			<point x="186" y="282"/>
			<point x="257" y="382"/>
			<point x="384" y="382" type="curve" smooth="yes"/>
			<point x="477" y="382"/>
			<point x="544" y="342"/>
			<point x="544" y="254" type="curve" smooth="yes"/>
			<point x="544" y="173"/>
			<point x="507" y="120"/>
			<point x="468" y="120" type="curve" smooth="yes"/>
			<point x="445" y="120"/>
			<point x="430" y="130"/>
			<point x="430" y="158" type="curve" smooth="yes"/>
			<point x="430" y="170"/>
			<point x="433" y="184"/>
			<point x="436" y="201" type="curve" smooth="yes"/>
			<point x="458" y="310" type="line"/>
			<point x="310" y="310" type="line"/>
			<point x="288" y="216" type="line" smooth="yes"/>
			<point x="273" y="153"/>
			<point x="258" y="116"/>
		</contour>
		<contour>
			<point name="aboveLC" x="390" y="522" type="move"/>
		</contour>
		<contour>
			<point name="belowLC" x="330" y="-22" type="move"/>
		</contour>
	</outline>
</glyph>
<glyph name="rturned" format="1">
	<unicode hex="0279"/>
	<advance width="400"/>
	<outline>
		<contour>
			<point x="10" y="-12" type="curve" smooth="yes"/>
			<point x="66" y="-12"/>
			<point x="124" y="34"/>
			<point x="162" y="98" type="curve"/>
			<point x="166" y="98" type="line"/>
			<point x="162" y="0" type="line"/>
			<point x="292" y="0" type="line"/>
			<point x="390" y="500" type="line"/>
			<point x="230" y="500" type="line"/>
			<point x="176" y="220" type="line"/>
			<point x="138" y="154"/>
			<point x="102" y="128"/>
			<point x="60" y="128" type="curve" smooth="yes"/>
			<point x="44" y="128"/>
			<point x="22" y="128"/>
			<point x="8" y="136" type="curve"/>
			<point x="-44" y="-2" type="line"/>
			<point x="-34" y="-8"/>
			<point x="-18" y="-12"/>
		</contour>
		<contour>
			<point name="aboveLC" x="310" y="522" type="move"/>
		</contour>
		<contour>
			<point name="belowLC" x="130" y="-22" type="move"/>
		</contour>
	</outline>
</glyph>
<glyph name="rhookturned" format="1">
	<unicode hex="027B"/>
	<advance width="400"/>
	<outline>
		<component base="rturned"/>
		<component base="lretroflex" xOffset="122"/>
		<contour>
			<point name="aboveLC" x="296" y="520" type="move"/>
		</contour>
		<contour>
			<point name="belowLC" x="78" y="-20" type="move"/>
		</contour>
	</outline>
</glyph>
<glyph name="rfishhook" format="1">
	<unicode hex="027E"/>
	<advance width="382"/>
	<outline>
		<contour>
			<point x="8" y="0" type="line"/>
			<point x="168" y="0" type="line"/>
			<point x="218" y="262" type="line" smooth="yes"/>
			<point x="234" y="344"/>
			<point x="272" y="372"/>
			<point x="316" y="372" type="curve" smooth="yes"/>
			<point x="342" y="372"/>
			<point x="354" y="370"/>
			<point x="380" y="362" type="curve"/>
			<point x="432" y="490" type="line"/>
			<point x="408" y="500"/>
			<point x="366" y="512"/>
			<point x="317" y="512" type="curve" smooth="yes"/>
			<point x="184" y="512"/>
			<point x="94" y="430"/>
			<point x="68" y="300" type="curve" smooth="yes"/>
		</contour>
		<contour>
			<point name="aboveLC" x="290" y="520" type="move"/>
		</contour>
		<contour>
			<point name="belowLC" x="80" y="-20" type="move"/>
		</contour>
	</outline>
</glyph>
<glyph name="Rsmall" format="1">
	<unicode hex="0280"/>
	<advance width="524"/>
	<outline>
		<contour>
			<point x="8" y="0" type="line"/>
			<point x="168" y="0" type="line"/>
			<point x="200" y="160" type="line"/>
			<point x="242" y="160" type="line" smooth="yes"/>
			<point x="383" y="160"/>
			<point x="488" y="236"/>
			<point x="488" y="362" type="curve" smooth="yes"/>
			<point x="488" y="466"/>
			<point x="412" y="500"/>
			<point x="314" y="500" type="curve" smooth="yes"/>
			<point x="108" y="500" type="line"/>
		</contour>
		<contour>
			<point x="218" y="256" type="line"/>
			<point x="242" y="374" type="line"/>
			<point x="270" y="374" type="line" smooth="yes"/>
			<point x="306" y="374"/>
			<point x="324" y="358"/>
			<point x="324" y="326" type="curve" smooth="yes"/>
			<point x="324" y="288"/>
			<point x="293" y="256"/>
			<point x="246" y="256" type="curve" smooth="yes"/>
		</contour>
		<contour>
			<point x="288" y="0" type="line"/>
			<point x="462" y="0" type="line"/>
			<point x="364" y="242" type="line"/>
			<point x="228" y="196" type="line"/>
		</contour>
		<contour>
			<point name="aboveLC" x="310" y="522" type="move"/>
		</contour>
		<contour>
			<point name="belowLC" x="240" y="-22" type="move"/>
		</contour>
	</outline>
</glyph>
<glyph name="rsmallinverted" format="1">
	<unicode hex="0281"/>
	<advance width="524"/>
	<outline>
		<contour>
			<point x="208" y="0" type="curve" smooth="yes"/>
			<point x="414" y="0" type="line"/>
			<point x="514" y="500" type="line"/>
			<point x="354" y="500" type="line"/>
			<point x="322" y="340" type="line"/>
			<point x="280" y="340" type="line" smooth="yes"/>
			<point x="139" y="340"/>
			<point x="34" y="264"/>
			<point x="34" y="138" type="curve" smooth="yes"/>
			<point x="34" y="34"/>
			<point x="110" y="0"/>
		</contour>
		<contour>
			<point x="252" y="126" type="line" smooth="yes"/>
			<point x="216" y="126"/>
			<point x="198" y="142"/>
			<point x="198" y="174" type="curve" smooth="yes"/>
			<point x="198" y="212"/>
			<point x="229" y="244"/>
			<point x="276" y="244" type="curve" smooth="yes"/>
			<point x="304" y="244" type="line"/>
			<point x="280" y="126" type="line"/>
		</contour>
		<contour>
			<point x="158" y="258" type="line"/>
			<point x="294" y="304" type="line"/>
			<point x="234" y="500" type="line"/>
			<point x="60" y="500" type="line"/>
		</contour>
		<contour>
			<point name="aboveLC" x="300" y="522" type="move"/>
		</contour>
		<contour>
			<point name="belowLC" x="230" y="-22" type="move"/>
		</contour>
	</outline>
</glyph>
<glyph name="shook" format="1">
	<unicode hex="0282"/>
	<advance width="432"/>
	<outline>
		<contour>
			<point x="104" y="-188" type="curve" smooth="yes"/>
			<point x="140" y="-188"/>
			<point x="164" y="-182"/>
			<point x="184" y="-174" type="curve"/>
			<point x="170" y="-58" type="line"/>
			<point x="158" y="-62"/>
			<point x="154" y="-62"/>
			<point x="144" y="-62" type="curve" smooth="yes"/>
			<point x="118" y="-62"/>
			<point x="105" y="-44"/>
			<point x="105" y="-15" type="curve" smooth="yes"/>
			<point x="105" y="-5"/>
			<point x="106" y="7"/>
			<point x="109" y="20" type="curve"/>
			<point x="-10" y="86" type="line"/>
			<point x="-27" y="10"/>
			<point x="-30" y="-25"/>
			<point x="-30" y="-48" type="curve" smooth="yes"/>
			<point x="-30" y="-126"/>
			<point x="6" y="-188"/>
		</contour>
		<component base="s"/>
		<contour>
			<point name="aboveLC" x="270" y="520" type="move"/>
		</contour>
		<contour>
			<point name="belowLC" x="180" y="-198" type="move"/>
		</contour>
	</outline>
</glyph>
<glyph name="esh" format="1">
	<unicode hex="0283"/>
	<advance width="278"/>
	<outline>
		<contour>
			<point x="170" y="2" type="curve" smooth="yes"/>
			<point x="271" y="500" type="line" smooth="yes"/>
			<point x="283" y="560"/>
			<point x="302" y="582"/>
			<point x="343" y="582" type="curve" smooth="yes"/>
			<point x="352" y="582"/>
			<point x="358" y="580"/>
			<point x="367" y="576" type="curve"/>
			<point x="421" y="694" type="line"/>
			<point x="403" y="702"/>
			<point x="382" y="708"/>
			<point x="343" y="708" type="curve" smooth="yes"/>
			<point x="191" y="708"/>
			<point x="130" y="606"/>
			<point x="108" y="494" type="curve" smooth="yes"/>
			<point x="12" y="10" type="line" smooth="yes"/>
			<point x="2" y="-42"/>
			<point x="-12" y="-62"/>
			<point x="-44" y="-62" type="curve" smooth="yes"/>
			<point x="-58" y="-62"/>
			<point x="-72" y="-58"/>
			<point x="-86" y="-50" type="curve"/>
			<point x="-134" y="-164" type="line"/>
			<point x="-98" y="-182"/>
			<point x="-66" y="-188"/>
			<point x="-30" y="-188" type="curve" smooth="yes"/>
			<point x="90" y="-188"/>
			<point x="148" y="-106"/>
		</contour>
		<contour>
			<point name="belowLC" x="20" y="-198" type="move"/>
		</contour>
		<contour>
			<point name="aboveUC" x="139" y="730" type="move"/>
		</contour>
	</outline>
</glyph>
<glyph name="dotlessjstrokehook" format="1">
	<unicode hex="0284"/>
	<advance width="326"/>
	<outline>
		<contour>
			<point x="6" y="224" type="line"/>
			<point x="306" y="224" type="line"/>
			<point x="320" y="296" type="line"/>
			<point x="98" y="296" type="line"/>
			<point x="20" y="290" type="line"/>
		</contour>
		<component base="esh" xOffset="24"/>
		<contour>
			<point name="belowLC" x="30" y="-198" type="move"/>
		</contour>
		<contour>
			<point name="aboveUC" x="320" y="720" type="move"/>
		</contour>
	</outline>
</glyph>
<glyph name="tretroflex" format="1">
	<unicode hex="0288"/>
	<advance width="384"/>
	<outline>
		<contour>
			<point x="172" y="-188" type="curve" smooth="yes"/>
			<point x="228" y="-188"/>
			<point x="270" y="-176"/>
			<point x="298" y="-166" type="curve"/>
			<point x="270" y="-54" type="line"/>
			<point x="258" y="-60"/>
			<point x="246" y="-64"/>
			<point x="234" y="-64" type="curve" smooth="yes"/>
			<point x="202" y="-64"/>
			<point x="186" y="-50"/>
			<point x="186" y="-20" type="curve" smooth="yes"/>
			<point x="186" y="-10"/>
			<point x="186" y="0"/>
			<point x="188" y="12" type="curve" smooth="yes"/>
			<point x="264" y="376" type="line"/>
			<point x="376" y="376" type="line"/>
			<point x="400" y="500" type="line"/>
			<point x="292" y="500" type="line"/>
			<point x="316" y="628" type="line"/>
			<point x="182" y="628" type="line"/>
			<point x="138" y="500" type="line"/>
			<point x="66" y="494" type="line"/>
			<point x="42" y="376" type="line"/>
			<point x="106" y="376" type="line"/>
			<point x="30" y="18" type="line" smooth="yes"/>
			<point x="26" y="-4"/>
			<point x="22" y="-26"/>
			<point x="22" y="-48" type="curve" smooth="yes"/>
			<point x="22" y="-130"/>
			<point x="66" y="-188"/>
		</contour>
		<contour>
			<point name="aboveLC" x="260" y="664" type="move"/>
		</contour>
		<contour>
			<point name="belowLC" x="150" y="-198" type="move"/>
		</contour>
	</outline>
</glyph>
<glyph name="ubar" format="1">
	<unicode hex="0289"/>
	<advance width="552"/>
	<outline>
		<contour>
			<point x="22" y="270" type="line"/>
			<point x="596" y="270" type="line"/>
			<point x="612" y="346" type="line"/>
			<point x="110" y="346" type="line"/>
			<point x="36" y="340" type="line"/>
		</contour>
		<component base="u" xOffset="34"/>
		<contour>
			<point name="aboveLC" x="350" y="522" type="move"/>
		</contour>
		<contour>
			<point name="belowLC" x="270" y="-30" type="move"/>
		</contour>
	</outline>
</glyph>
<glyph name="vhook" format="1">
	<unicode hex="028B"/>
	<advance width="546"/>
	<outline>
		<contour>
			<point x="214" y="-12" type="curve" smooth="yes"/>
			<point x="404" y="-12"/>
			<point x="522" y="184"/>
			<point x="522" y="368" type="curve" smooth="yes"/>
			<point x="522" y="468"/>
			<point x="464" y="512"/>
			<point x="384" y="512" type="curve" smooth="yes"/>
			<point x="352" y="512"/>
			<point x="332" y="510"/>
			<point x="313" y="504" type="curve"/>
			<point x="306" y="382" type="line"/>
			<point x="311" y="383"/>
			<point x="316" y="384"/>
			<point x="321" y="384" type="curve" smooth="yes"/>
			<point x="347" y="384"/>
			<point x="358" y="371"/>
			<point x="358" y="348" type="curve" smooth="yes"/>
			<point x="358" y="227"/>
			<point x="292" y="124"/>
			<point x="242" y="124" type="curve" smooth="yes"/>
			<point x="215" y="124"/>
			<point x="198" y="138"/>
			<point x="198" y="166" type="curve" smooth="yes"/>
			<point x="198" y="180"/>
			<point x="204" y="206"/>
			<point x="208" y="224" type="curve" smooth="yes"/>
			<point x="262" y="500" type="line"/>
			<point x="102" y="500" type="line"/>
			<point x="46" y="222" type="line" smooth="yes"/>
			<point x="41" y="197"/>
			<point x="38" y="175"/>
			<point x="38" y="154" type="curve" smooth="yes"/>
			<point x="38" y="46"/>
			<point x="102" y="-12"/>
		</contour>
		<contour>
			<point name="aboveLC" x="320" y="520" type="move"/>
		</contour>
		<contour>
			<point name="belowLC" x="210" y="-20" type="move"/>
		</contour>
	</outline>
</glyph>
<glyph name="wturned" format="1">
	<unicode hex="028D"/>
	<advance width="764"/>
	<outline>
		<component base="w" xScale="-1" yScale="-1" xOffset="774" yOffset="500"/>
		<contour>
			<point name="aboveLC" x="436" y="522" type="move"/>
		</contour>
		<contour>
			<point name="belowLC" x="340" y="-22" type="move"/>
		</contour>
	</outline>
</glyph>
<glyph name="Ysmall" format="1">
	<unicode hex="028F"/>
	<advance width="467"/>
	<outline>
		<contour>
			<point x="152" y="0" type="line"/>
			<point x="317" y="0" type="line"/>
			<point x="346" y="144" type="line"/>
			<point x="576" y="500" type="line"/>
			<point x="405" y="500" type="line"/>
			<point x="355" y="404" type="line"/>
			<point x="334" y="363"/>
			<point x="314" y="327"/>
			<point x="293" y="284" type="curve"/>
			<point x="289" y="284" type="line"/>
			<point x="285" y="327"/>
			<point x="280" y="363"/>
			<point x="277" y="404" type="curve"/>
			<point x="263" y="500" type="line"/>
			<point x="90" y="500" type="line"/>
			<point x="180" y="144" type="line"/>
		</contour>
		<contour>
			<point name="aboveLC" x="335" y="520" type="move"/>
		</contour>
		<contour>
			<point name="belowLC" x="228" y="-20" type="move"/>
		</contour>
	</outline>
</glyph>
<glyph name="zretroflex" format="1">
	<unicode hex="0290"/>
	<advance width="455"/>
	<outline>
		<contour>
			<point x="346" y="-188" type="curve" smooth="yes"/>
			<point x="386" y="-188"/>
			<point x="415" y="-179"/>
			<point x="436" y="-172" type="curve"/>
			<point x="430" y="-56" type="line"/>
			<point x="418" y="-59"/>
			<point x="413" y="-60"/>
			<point x="404" y="-60" type="curve" smooth="yes"/>
			<point x="389" y="-60"/>
			<point x="374" y="-54"/>
			<point x="374" y="-35" type="curve" smooth="yes"/>
			<point x="374" y="-24"/>
			<point x="374" y="-16"/>
			<point x="404" y="124" type="curve"/>
			<point x="214" y="124" type="line"/>
			<point x="454" y="408" type="line"/>
			<point x="472" y="500" type="line"/>
			<point x="108" y="500" type="line"/>
			<point x="84" y="376" type="line"/>
			<point x="248" y="376" type="line"/>
			<point x="8" y="90" type="line"/>
			<point x="-10" y="0" type="line"/>
			<point x="238" y="0" type="line"/>
			<point x="230" y="-38"/>
			<point x="228" y="-58"/>
			<point x="228" y="-78" type="curve" smooth="yes"/>
			<point x="228" y="-146"/>
			<point x="262" y="-188"/>
		</contour>
		<contour>
			<point name="aboveLC" x="300" y="520" type="move"/>
		</contour>
		<contour>
			<point name="belowLC" x="160" y="-158" type="move"/>
		</contour>
	</outline>
</glyph>
<glyph name="zcurl" format="1">
	<unicode hex="0291"/>
	<advance width="498"/>
	<outline>
		<contour>
			<point x="226" y="-82" type="line"/>
			<point x="296" y="102"/>
			<point x="350" y="174"/>
			<point x="388" y="174" type="curve" smooth="yes"/>
			<point x="404" y="174"/>
			<point x="412" y="166"/>
			<point x="412" y="152" type="curve" smooth="yes"/>
			<point x="412" y="133"/>
			<point x="388" y="114"/>
			<point x="352" y="114" type="curve" smooth="yes"/>
			<point x="299" y="114"/>
			<point x="253" y="118"/>
			<point x="202" y="124" type="curve"/>
			<point x="442" y="408" type="line"/>
			<point x="460" y="500" type="line"/>
			<point x="108" y="500" type="line"/>
			<point x="84" y="376" type="line"/>
			<point x="248" y="376" type="line"/>
			<point x="8" y="90" type="line"/>
			<point x="-10" y="0" type="line"/>
			<point x="282" y="0" type="line" smooth="yes"/>
			<point x="437" y="0"/>
			<point x="494" y="100"/>
			<point x="494" y="176" type="curve" smooth="yes"/>
			<point x="494" y="228"/>
			<point x="462" y="256"/>
			<point x="408" y="256" type="curve" smooth="yes"/>
			<point x="320" y="256"/>
			<point x="234" y="112"/>
			<point x="160" y="-66" type="curve"/>
		</contour>
		<contour>
			<point name="aboveLC" x="300" y="520" type="move"/>
		</contour>
		<contour>
			<point name="belowLC" x="200" y="-62" type="move"/>
		</contour>
	</outline>
</glyph>
<glyph name="ezh" format="1">
	<unicode hex="0292"/>
	<advance width="456"/>
	<outline>
		<contour>
			<point x="132" y="-188" type="curve" smooth="yes"/>
			<point x="288" y="-188"/>
			<point x="400" y="-56"/>
			<point x="400" y="90" type="curve" smooth="yes"/>
			<point x="400" y="166"/>
			<point x="348" y="220"/>
			<point x="276" y="234" type="curve"/>
			<point x="444" y="408" type="line"/>
			<point x="462" y="500" type="line"/>
			<point x="86" y="500" type="line"/>
			<point x="62" y="376" type="line"/>
			<point x="250" y="376" type="line"/>
			<point x="74" y="198" type="line"/>
			<point x="110" y="118" type="line"/>
			<point x="133" y="126"/>
			<point x="141" y="128"/>
			<point x="166" y="128" type="curve" smooth="yes"/>
			<point x="204" y="128"/>
			<point x="238" y="106"/>
			<point x="238" y="58" type="curve" smooth="yes"/>
			<point x="238" y="-16"/>
			<point x="196" y="-62"/>
			<point x="138" y="-62" type="curve" smooth="yes"/>
			<point x="84" y="-62"/>
			<point x="48" y="-42"/>
			<point x="20" y="-12" type="curve"/>
			<point x="-62" y="-104" type="line"/>
			<point x="-26" y="-150"/>
			<point x="40" y="-188"/>
		</contour>
		<contour>
			<point name="aboveLC" x="265" y="527" type="move"/>
		</contour>
		<contour>
			<point name="belowLC" x="228" y="-119" type="move"/>
		</contour>
	</outline>
</glyph>
<glyph name="clickbilabial" format="1">
	<unicode hex="0298"/>
	<advance width="516"/>
	<outline>
		<contour>
			<point x="198" y="-12" type="curve" smooth="yes"/>
			<point x="388" y="-12"/>
			<point x="516" y="220"/>
			<point x="516" y="482" type="curve" smooth="yes"/>
			<point x="516" y="632"/>
			<point x="452" y="708"/>
			<point x="344" y="708" type="curve" smooth="yes"/>
			<point x="154" y="708"/>
			<point x="26" y="476"/>
			<point x="26" y="214" type="curve" smooth="yes"/>
			<point x="26" y="64"/>
			<point x="90" y="-12"/>
		</contour>
		<contour>
			<point x="226" y="126" type="curve" smooth="yes"/>
			<point x="200" y="126"/>
			<point x="176" y="149"/>
			<point x="176" y="223" type="curve" smooth="yes"/>
			<point x="176" y="390"/>
			<point x="244" y="570"/>
			<point x="316" y="570" type="curve" smooth="yes"/>
			<point x="342" y="570"/>
			<point x="366" y="547"/>
			<point x="366" y="473" type="curve" smooth="yes"/>
			<point x="366" y="306"/>
			<point x="298" y="126"/>
		</contour>
		<contour>
			<point x="258" y="282" type="curve" smooth="yes"/>
			<point x="300" y="282"/>
			<point x="340" y="318"/>
			<point x="340" y="365" type="curve" smooth="yes"/>
			<point x="340" y="396"/>
			<point x="317" y="420"/>
			<point x="286" y="420" type="curve" smooth="yes"/>
			<point x="242" y="420"/>
			<point x="204" y="384"/>
			<point x="204" y="337" type="curve" smooth="yes"/>
			<point x="204" y="306"/>
			<point x="227" y="282"/>
		</contour>
	</outline>
</glyph>
<glyph name="Bsmall" format="1">
	<unicode hex="0299"/>
	<advance width="515"/>
	<outline>
		<contour>
			<point x="8" y="0" type="line"/>
			<point x="232" y="0" type="line" smooth="yes"/>
			<point x="341" y="0"/>
			<point x="444" y="40"/>
			<point x="464" y="144" type="curve" smooth="yes"/>
			<point x="477" y="210"/>
			<point x="447" y="244"/>
			<point x="388" y="260" type="curve"/>
			<point x="389" y="264" type="line"/>
			<point x="452" y="281"/>
			<point x="482" y="328"/>
			<point x="490" y="366" type="curve" smooth="yes"/>
			<point x="510" y="469"/>
			<point x="425" y="500"/>
			<point x="316" y="500" type="curve" smooth="yes"/>
			<point x="106" y="500" type="line"/>
		</contour>
		<contour>
			<point x="230" y="310" type="line"/>
			<point x="246" y="388" type="line"/>
			<point x="287" y="388" type="line" smooth="yes"/>
			<point x="323" y="388"/>
			<point x="333" y="372"/>
			<point x="329" y="348" type="curve" smooth="yes"/>
			<point x="324" y="324"/>
			<point x="307" y="310"/>
			<point x="272" y="310" type="curve" smooth="yes"/>
		</contour>
		<contour>
			<point x="190" y="112" type="line"/>
			<point x="206" y="198" type="line"/>
			<point x="263" y="198" type="line" smooth="yes"/>
			<point x="302" y="198"/>
			<point x="311" y="178"/>
			<point x="307" y="156" type="curve" smooth="yes"/>
			<point x="302" y="132"/>
			<point x="286" y="112"/>
			<point x="246" y="112" type="curve" smooth="yes"/>
		</contour>
		<contour>
			<point name="aboveLC" x="209" y="520" type="move"/>
		</contour>
		<contour>
			<point name="belowLC" x="209" y="-20" type="move"/>
		</contour>
	</outline>
</glyph>
<glyph name="Hsmall" format="1">
	<unicode hex="029C"/>
	<advance width="590"/>
	<outline>
		<contour>
			<point x="10" y="0" type="line"/>
			<point x="170" y="0" type="line"/>
			<point x="206" y="184" type="line"/>
			<point x="337" y="184" type="line"/>
			<point x="300" y="0" type="line"/>
			<point x="460" y="0" type="line"/>
			<point x="560" y="500" type="line"/>
			<point x="400" y="500" type="line"/>
			<point x="364" y="322" type="line"/>
			<point x="234" y="322" type="line"/>
			<point x="270" y="500" type="line"/>
			<point x="110" y="500" type="line"/>
		</contour>
		<contour>
			<point name="aboveLC" x="295" y="520" type="move"/>
		</contour>
		<contour>
			<point name="belowLC" x="295" y="-20" type="move"/>
		</contour>
	</outline>
</glyph>
<glyph name="jcrossedtail" format="1">
	<unicode hex="029D"/>
	<advance width="378"/>
	<outline>
		<component base="jcrossedtail.d"/>
		<component base="dotaccentcmb" xOffset="192"/>
		<contour>
			<point name="aboveLC" x="189" y="522" type="move"/>
		</contour>
		<contour>
			<point name="belowLC" x="189" y="-198" type="move"/>
		</contour>
	</outline>
</glyph>
<glyph name="Lsmall" format="1">
	<unicode hex="029F"/>
	<advance width="422"/>
	<outline>
		<contour>
			<point x="56" y="0" type="line"/>
			<point x="397" y="0" type="line"/>
			<point x="424" y="134" type="line"/>
			<point x="248" y="134" type="line"/>
			<point x="321" y="500" type="line"/>
			<point x="156" y="500" type="line"/>
		</contour>
		<contour>
			<point name="belowLC" x="238" y="-20" type="move"/>
		</contour>
		<contour>
			<point name="aboveLC" x="255" y="564" type="move"/>
		</contour>
	</outline>
</glyph>
<glyph name="glottalstopstroke" format="1">
	<unicode hex="02A1"/>
	<advance width="442"/>
	<outline>
		<contour>
			<point x="-18" y="116" type="line"/>
			<point x="352" y="116" type="line"/>
			<point x="370" y="212" type="line"/>
			<point x="108" y="212" type="line"/>
			<point x="0" y="206" type="line"/>
		</contour>
		<component base="glottalstop"/>
		<contour>
			<point name="aboveUC" x="320" y="720" type="move"/>
		</contour>
		<contour>
			<point name="belowLC" x="140" y="-22" type="move"/>
		</contour>
	</outline>
</glyph>
<glyph name="glottalstopstrokereversed" format="1">
	<unicode hex="02A2"/>
	<advance width="470"/>
	<outline>
		<contour>
			<point x="132" y="0" type="line"/>
			<point x="292" y="0" type="line"/>
			<point x="328" y="186" type="line"/>
			<point x="448" y="186" type="line"/>
			<point x="474" y="310" type="line"/>
			<point x="336" y="310" type="line"/>
			<point x="262" y="368"/>
			<point x="244" y="418"/>
			<point x="244" y="468" type="curve" smooth="yes"/>
			<point x="244" y="534"/>
			<point x="283" y="580"/>
			<point x="350" y="580" type="curve" smooth="yes"/>
			<point x="393" y="580"/>
			<point x="426" y="554"/>
			<point x="450" y="520" type="curve"/>
			<point x="542" y="618" type="line"/>
			<point x="506" y="670"/>
			<point x="448" y="708"/>
			<point x="358" y="708" type="curve" smooth="yes"/>
			<point x="204" y="708"/>
			<point x="80" y="604"/>
			<point x="80" y="448" type="curve" smooth="yes"/>
			<point x="80" y="384"/>
			<point x="106" y="346"/>
			<point x="142" y="310" type="curve"/>
			<point x="104" y="310" type="line"/>
			<point x="30" y="304" type="line"/>
			<point x="6" y="186" type="line"/>
			<point x="168" y="186" type="line"/>
		</contour>
		<contour>
			<point name="aboveUC" x="360" y="720" type="move"/>
		</contour>
		<contour>
			<point name="belowLC" x="210" y="-22" type="move"/>
		</contour>
	</outline>
</glyph>
<glyph name="ts" format="1">
	<unicode hex="02A6"/>
	<advance width="672"/>
	<outline>
		<contour>
			<point x="352" y="-12" type="curve" smooth="yes"/>
			<point x="551" y="-12"/>
			<point x="628" y="58"/>
			<point x="628" y="166" type="curve" smooth="yes"/>
			<point x="628" y="305"/>
			<point x="468" y="292"/>
			<point x="468" y="358" type="curve" smooth="yes"/>
			<point x="468" y="378"/>
			<point x="488" y="394"/>
			<point x="520" y="394" type="curve" smooth="yes"/>
			<point x="544" y="394"/>
			<point x="566" y="378"/>
			<point x="584" y="358" type="curve"/>
			<point x="670" y="440" type="line"/>
			<point x="634" y="480"/>
			<point x="584" y="512"/>
			<point x="520" y="512" type="curve" smooth="yes"/>
			<point x="408" y="512"/>
			<point x="318" y="440"/>
			<point x="318" y="344" type="curve" smooth="yes"/>
			<point x="318" y="216"/>
			<point x="478" y="208"/>
			<point x="478" y="148" type="curve" smooth="yes"/>
			<point x="478" y="118"/>
			<point x="458" y="104"/>
			<point x="362" y="104" type="curve" smooth="yes"/>
			<point x="273" y="104"/>
			<point x="230" y="132"/>
			<point x="230" y="186" type="curve" smooth="yes"/>
			<point x="230" y="199"/>
			<point x="231" y="212"/>
			<point x="234" y="228" type="curve" smooth="yes"/>
			<point x="264" y="376" type="line"/>
			<point x="436" y="376" type="line"/>
			<point x="460" y="500" type="line"/>
			<point x="292" y="500" type="line"/>
			<point x="320" y="648" type="line"/>
			<point x="186" y="648" type="line"/>
			<point x="138" y="500" type="line"/>
			<point x="66" y="494" type="line"/>
			<point x="42" y="376" type="line"/>
			<point x="106" y="376" type="line"/>
			<point x="76" y="234" type="line" smooth="yes"/>
			<point x="71" y="212"/>
			<point x="68" y="190"/>
			<point x="68" y="168" type="curve" smooth="yes"/>
			<point x="68" y="62"/>
			<point x="151" y="-12"/>
		</contour>
	</outline>
</glyph>
<glyph name="tesh" format="1">
	<unicode hex="02A7"/>
	<advance width="580"/>
	<outline>
		<contour>
			<point x="210" y="-12" type="curve" smooth="yes"/>
			<point x="250" y="-12"/>
			<point x="282" y="-2"/>
			<point x="304" y="6" type="curve"/>
			<point x="280" y="116" type="line"/>
			<point x="272" y="114"/>
			<point x="262" y="112"/>
			<point x="252" y="112" type="curve" smooth="yes"/>
			<point x="233" y="112"/>
			<point x="224" y="126"/>
			<point x="224" y="156" type="curve" smooth="yes"/>
			<point x="224" y="166"/>
			<point x="224" y="176"/>
			<point x="226" y="188" type="curve" smooth="yes"/>
			<point x="264" y="376" type="line"/>
			<point x="416" y="376" type="line"/>
			<point x="440" y="500" type="line"/>
			<point x="292" y="500" type="line"/>
			<point x="320" y="648" type="line"/>
			<point x="186" y="648" type="line"/>
			<point x="138" y="500" type="line"/>
			<point x="66" y="494" type="line"/>
			<point x="42" y="376" type="line"/>
			<point x="106" y="376" type="line"/>
			<point x="68" y="194" type="line" smooth="yes"/>
			<point x="64" y="172"/>
			<point x="60" y="150"/>
			<point x="60" y="128" type="curve" smooth="yes"/>
			<point x="60" y="46"/>
			<point x="104" y="-12"/>
		</contour>
		<component base="esh" xOffset="302"/>
		<contour>
			<point name="aboveUC" x="420" y="720" type="move"/>
		</contour>
		<contour>
			<point name="belowLC" x="210" y="-198" type="move"/>
		</contour>
	</outline>
</glyph>
<glyph name="glottalstopreversedmod" format="1">
	<unicode hex="02C1"/>
	<advance width="344"/>
	<outline>
		<contour>
			<point x="155" y="368" type="line"/>
			<point x="270" y="368" type="line"/>
			<point x="311" y="575" type="line"/>
			<point x="257" y="618"/>
			<point x="236" y="644"/>
			<point x="236" y="674" type="curve" smooth="yes"/>
			<point x="236" y="710"/>
			<point x="262" y="740"/>
			<point x="304" y="740" type="curve" smooth="yes"/>
			<point x="329" y="740"/>
			<point x="349" y="724"/>
			<point x="363" y="701" type="curve"/>
			<point x="433" y="775" type="line"/>
			<point x="410" y="810"/>
			<point x="371" y="835"/>
			<point x="310" y="835" type="curve" smooth="yes"/>
			<point x="196" y="835"/>
			<point x="121" y="756"/>
			<point x="121" y="660" type="curve" smooth="yes"/>
			<point x="121" y="609"/>
			<point x="149" y="573"/>
			<point x="188" y="533" type="curve"/>
		</contour>
	</outline>
</glyph>
<glyph name="circumflex" format="1">
	<unicode hex="02C6"/>
	<advance width="540"/>
	<outline>
		<component base="circumflexcmb" xOffset="220"/>
		<contour>
			<point name="_aboveLC" x="270" y="522" type="move"/>
		</contour>
		<contour>
			<point name="aboveLC" x="270" y="522" type="move"/>
		</contour>
	</outline>
</glyph>
<glyph name="colontriangularhalfmod" format="1">
	<unicode hex="02D1"/>
	<advance width="310"/>
	<outline>
		<contour>
			<point x="152" y="290" type="line"/>
			<point x="167" y="290" type="line"/>
			<point x="311" y="489" type="line"/>
			<point x="88" y="489" type="line"/>
		</contour>
	</outline>
</glyph>
<glyph name="ogonek" format="1">
	<unicode hex="02DB"/>
	<advance width="540"/>
	<outline>
		<component base="ogonekcmb" xOffset="220"/>
		<contour>
			<point name="_ogonekLC" x="270" y="0" type="move"/>
		</contour>
	</outline>
</glyph>
<glyph name="hookrhoticmod" format="1">
	<unicode hex="02DE"/>
	<advance width="220"/>
	<outline>
		<contour>
			<point x="124" y="194" type="curve" smooth="yes"/>
			<point x="167" y="194"/>
			<point x="195" y="206"/>
			<point x="220" y="220" type="curve"/>
			<point x="203" y="300" type="line"/>
			<point x="192" y="294"/>
			<point x="180" y="290"/>
			<point x="162" y="290" type="curve" smooth="yes"/>
			<point x="140" y="290"/>
			<point x="128" y="304"/>
			<point x="128" y="340" type="curve" smooth="yes"/>
			<point x="128" y="370"/>
			<point x="134" y="410"/>
			<point x="150" y="466" type="curve"/>
			<point x="-60" y="384" type="line"/>
			<point x="-80" y="276" type="line"/>
			<point x="40" y="324" type="line"/>
			<point x="36" y="308"/>
			<point x="34" y="292"/>
			<point x="34" y="280" type="curve" smooth="yes"/>
			<point x="34" y="219"/>
			<point x="79" y="194"/>
		</contour>
	</outline>
</glyph>
<glyph name="glottalstopreversedsupmod" format="1">
	<unicode hex="02E4"/>
	<advance width="344"/>
	<outline>
		<contour>
			<point x="240" y="368" type="line"/>
			<point x="273" y="533" type="line"/>
			<point x="328" y="573"/>
			<point x="370" y="609"/>
			<point x="392" y="660" type="curve" smooth="yes"/>
			<point x="430" y="756"/>
			<point x="387" y="835"/>
			<point x="273" y="835" type="curve" smooth="yes"/>
			<point x="221" y="835"/>
			<point x="165" y="808"/>
			<point x="126" y="775" type="curve"/>
			<point x="161" y="708" type="line"/>
			<point x="187" y="726"/>
			<point x="217" y="740"/>
			<point x="241" y="740" type="curve" smooth="yes"/>
			<point x="283" y="740"/>
			<point x="297" y="710"/>
			<point x="281" y="674" type="curve" smooth="yes"/>
			<point x="269" y="644"/>
			<point x="238" y="618"/>
			<point x="168" y="575" type="curve"/>
			<point x="125" y="368" type="line"/>
		</contour>
	</outline>
</glyph>
<glyph name="gravecmb" format="1">
	<unicode hex="0300"/>
	<outline>
		<contour>
			<point x="146" y="569" type="line"/>
			<point x="244" y="645" type="line"/>
			<point x="116" y="844" type="line"/>
			<point x="-16" y="742" type="line"/>
		</contour>
		<contour>
			<point name="_aboveLC" x="100" y="522" type="move"/>
		</contour>
	</outline>
</glyph>
<glyph name="acutecmb" format="1">
	<unicode hex="0301"/>
	<outline>
		<contour>
			<point x="96" y="578" type="line"/>
			<point x="313" y="718" type="line"/>
			<point x="218" y="840" type="line"/>
			<point x="27" y="668" type="line"/>
		</contour>
		<contour>
			<point name="_aboveLC" x="102" y="522" type="move"/>
		</contour>
	</outline>
</glyph>
<glyph name="circumflexcmb" format="1">
	<unicode hex="0302"/>
	<outline>
		<contour>
			<point x="-26" y="558" type="line"/>
			<point x="124" y="646" type="line"/>
			<point x="128" y="646" type="line"/>
			<point x="238" y="558" type="line"/>
			<point x="308" y="618" type="line"/>
			<point x="224" y="746" type="line"/>
			<point x="48" y="746" type="line"/>
			<point x="-80" y="622" type="line"/>
		</contour>
		<contour>
			<point name="_aboveLC" x="102" y="522" type="move"/>
		</contour>
		<contour>
			<point name="aboveLC" x="144" y="740" type="move"/>
		</contour>
	</outline>
</glyph>
<glyph name="tildecmb" format="1">
	<unicode hex="0303"/>
	<outline>
		<contour>
			<point x="186" y="572" type="curve" smooth="yes"/>
			<point x="261" y="572"/>
			<point x="318" y="617"/>
			<point x="336" y="730" type="curve"/>
			<point x="232" y="736" type="line"/>
			<point x="226" y="700"/>
			<point x="210" y="690"/>
			<point x="194" y="690" type="curve" smooth="yes"/>
			<point x="156" y="690"/>
			<point x="135" y="746"/>
			<point x="70" y="746" type="curve" smooth="yes"/>
			<point x="-5" y="746"/>
			<point x="-62" y="701"/>
			<point x="-80" y="588" type="curve"/>
			<point x="24" y="582" type="line"/>
			<point x="30" y="618"/>
			<point x="46" y="628"/>
			<point x="62" y="628" type="curve" smooth="yes"/>
			<point x="100" y="628"/>
			<point x="121" y="572"/>
		</contour>
		<contour>
			<point name="_aboveLC" x="102" y="522" type="move"/>
		</contour>
	</outline>
</glyph>
<glyph name="macroncmb" format="1">
	<unicode hex="0304"/>
	<outline>
		<contour>
			<point x="-32" y="590" type="line"/>
			<point x="262" y="590" type="line"/>
			<point x="282" y="690" type="line"/>
			<point x="-12" y="690" type="line"/>
		</contour>
		<contour>
			<point name="_aboveLC" x="102" y="522" type="move"/>
		</contour>
	</outline>
</glyph>
<glyph name="brevecmb" format="1">
	<unicode hex="0306"/>
	<outline>
		<contour>
			<point x="112" y="572" type="curve" smooth="yes"/>
			<point x="230" y="572"/>
			<point x="296" y="638"/>
			<point x="314" y="732" type="curve"/>
			<point x="222" y="748" type="line"/>
			<point x="208" y="708"/>
			<point x="180" y="678"/>
			<point x="132" y="678" type="curve" smooth="yes"/>
			<point x="84" y="678"/>
			<point x="64" y="708"/>
			<point x="66" y="748" type="curve"/>
			<point x="-34" y="732" type="line"/>
			<point x="-48" y="638"/>
			<point x="-5" y="572"/>
		</contour>
		<contour>
			<point name="_aboveLC" x="102" y="522" type="move"/>
		</contour>
	</outline>
</glyph>
<glyph name="dieresiscmb" format="1">
	<unicode hex="0308"/>
	<outline>
		<contour>
			<point x="6" y="566" type="curve" smooth="yes"/>
			<point x="54" y="566"/>
			<point x="90" y="602"/>
			<point x="90" y="648" type="curve" smooth="yes"/>
			<point x="90" y="689"/>
			<point x="61" y="714"/>
			<point x="24" y="714" type="curve" smooth="yes"/>
			<point x="-24" y="714"/>
			<point x="-60" y="675"/>
			<point x="-60" y="632" type="curve" smooth="yes"/>
			<point x="-60" y="589"/>
			<point x="-31" y="566"/>
		</contour>
		<contour>
			<point x="226" y="566" type="curve" smooth="yes"/>
			<point x="274" y="566"/>
			<point x="310" y="602"/>
			<point x="310" y="648" type="curve" smooth="yes"/>
			<point x="310" y="689"/>
			<point x="281" y="714"/>
			<point x="244" y="714" type="curve" smooth="yes"/>
			<point x="196" y="714"/>
			<point x="160" y="675"/>
			<point x="160" y="632" type="curve" smooth="yes"/>
			<point x="160" y="589"/>
			<point x="189" y="566"/>
		</contour>
		<contour>
			<point name="_aboveLC" x="102" y="522" type="move"/>
		</contour>
		<contour>
			<point name="aboveLC" x="146" y="730" type="move"/>
		</contour>
	</outline>
</glyph>
<glyph name="hoicmb" format="1">
	<unicode hex="0309"/>
	<outline>
		<contour>
			<point x="62" y="566" type="line"/>
			<point x="170" y="570"/>
			<point x="236" y="624"/>
			<point x="236" y="702" type="curve" smooth="yes"/>
			<point x="236" y="762"/>
			<point x="192" y="803"/>
			<point x="66" y="806" type="curve"/>
			<point x="36" y="702" type="line"/>
			<point x="86" y="698"/>
			<point x="106" y="687"/>
			<point x="106" y="669" type="curve" smooth="yes"/>
			<point x="106" y="646"/>
			<point x="88" y="636"/>
			<point x="58" y="632" type="curve"/>
		</contour>
		<contour>
			<point name="_aboveLC" x="100" y="522" type="move"/>
		</contour>
		<contour>
			<point name="aboveLC" x="140" y="730" type="move"/>
		</contour>
	</outline>
</glyph>
<glyph name="hungarumlautcmb" format="1">
	<unicode hex="030B"/>
	<outline>
		<contour>
			<point x="68" y="566" type="line"/>
			<point x="210" y="728" type="line"/>
			<point x="106" y="788" type="line"/>
			<point x="-14" y="614" type="line"/>
		</contour>
		<contour>
			<point x="258" y="566" type="line"/>
			<point x="400" y="728" type="line"/>
			<point x="296" y="788" type="line"/>
			<point x="176" y="614" type="line"/>
		</contour>
		<contour>
			<point name="_aboveLC" x="100" y="522" type="move"/>
		</contour>
	</outline>
</glyph>
<glyph name="caroncmb" format="1">
	<unicode hex="030C"/>
	<outline>
		<contour>
			<point x="14" y="580" type="line"/>
			<point x="190" y="580" type="line"/>
			<point x="318" y="704" type="line"/>
			<point x="264" y="768" type="line"/>
			<point x="114" y="680" type="line"/>
			<point x="110" y="680" type="line"/>
			<point x="0" y="768" type="line"/>
			<point x="-70" y="708" type="line"/>
		</contour>
		<contour>
			<point name="_aboveLC" x="102" y="522" type="move"/>
		</contour>
	</outline>
</glyph>
<glyph name="dblgravecmb" format="1">
	<unicode hex="030F"/>
	<outline>
		<contour>
			<point x="-40" y="564" type="line"/>
			<point x="57" y="596" type="line"/>
			<point x="2" y="786" type="line"/>
			<point x="-121" y="746" type="line"/>
		</contour>
		<contour>
			<point x="150" y="564" type="line"/>
			<point x="247" y="596" type="line"/>
			<point x="192" y="786" type="line"/>
			<point x="69" y="746" type="line"/>
		</contour>
		<contour>
			<point name="_aboveLC" x="102" y="522" type="move"/>
		</contour>
	</outline>
</glyph>
<glyph name="dotbelowcmb" format="1">
	<unicode hex="0323"/>
	<outline>
		<component base="dotaccentcmb" xOffset="-162" yOffset="-800"/>
		<contour>
			<point name="_belowLC" x="-6" y="-30" type="move"/>
		</contour>
	</outline>
</glyph>
<glyph name="commabelowcmb" format="1">
	<unicode hex="0326"/>
	<outline>
		<contour>
			<point x="-151" y="-244" type="line"/>
			<point x="-18" y="-240"/>
			<point x="82" y="-206"/>
			<point x="82" y="-124" type="curve" smooth="yes"/>
			<point x="82" y="-85"/>
			<point x="58" y="-54"/>
			<point x="-53" y="-50" type="curve"/>
			<point x="-97" y="-110" type="line"/>
			<point x="-54" y="-110"/>
			<point x="-43" y="-126"/>
			<point x="-43" y="-138" type="curve" smooth="yes"/>
			<point x="-43" y="-160"/>
			<point x="-71" y="-174"/>
			<point x="-148" y="-178" type="curve"/>
		</contour>
		<contour>
			<point name="_belowLC" x="-6" y="-30" type="move"/>
		</contour>
	</outline>
</glyph>
<glyph name="ringhalfrightbelowcmb" format="1">
	<unicode hex="0339"/>
	<outline>
		<contour>
			<point x="-98" y="-264" type="line"/>
			<point x="18" y="-264"/>
			<point x="78" y="-212"/>
			<point x="78" y="-144" type="curve" smooth="yes"/>
			<point x="78" y="-88"/>
			<point x="30" y="-46"/>
			<point x="-56" y="-52" type="curve"/>
			<point x="-68" y="-110" type="line"/>
			<point x="-36" y="-110"/>
			<point x="-22" y="-124"/>
			<point x="-22" y="-148" type="curve" smooth="yes"/>
			<point x="-22" y="-178"/>
			<point x="-42" y="-202"/>
			<point x="-86" y="-204" type="curve"/>
		</contour>
		<contour>
			<point name="_belowLC" x="0" y="-22" type="move"/>
		</contour>
	</outline>
</glyph>
<glyph name="breveinverteddoublecmb" format="1">
	<unicode hex="0361"/>
	<outline>
		<contour>
			<point x="-284" y="532" type="line"/>
			<point x="-148" y="605"/>
			<point x="12" y="627"/>
			<point x="124" y="627" type="curve" smooth="yes"/>
			<point x="239" y="627"/>
			<point x="394" y="605"/>
			<point x="504" y="532" type="curve"/>
			<point x="559" y="605" type="line"/>
			<point x="443" y="688"/>
			<point x="295" y="727"/>
			<point x="144" y="727" type="curve" smooth="yes"/>
			<point x="-7" y="727"/>
			<point x="-171" y="688"/>
			<point x="-320" y="605" type="curve"/>
		</contour>
	</outline>
</glyph>
<glyph name="numeralsign" format="1">
	<unicode hex="0374"/>
	<advance width="301"/>
	<outline>
		<contour>
			<point x="109" y="377" type="line"/>
			<point x="212" y="377" type="line"/>
			<point x="295" y="553" type="line"/>
			<point x="346" y="685" type="line"/>
			<point x="188" y="685" type="line"/>
		</contour>
	</outline>
</glyph>
<glyph name="lownumeralsign" format="1">
	<unicode hex="0375"/>
	<advance width="300"/>
	<outline>
		<contour>
			<point x="2" y="0" type="line"/>
			<point x="160" y="0" type="line"/>
			<point x="239" y="308" type="line"/>
			<point x="136" y="308" type="line"/>
			<point x="53" y="132" type="line"/>
		</contour>
	</outline>
</glyph>
<glyph name="Gamma" format="1">
	<unicode hex="0393"/>
	<advance width="504"/>
	<outline>
		<contour>
			<point x="26" y="0" type="line"/>
			<point x="186" y="0" type="line"/>
			<point x="288" y="516" type="line"/>
			<point x="532" y="516" type="line"/>
			<point x="558" y="650" type="line"/>
			<point x="156" y="650" type="line"/>
		</contour>
	</outline>
</glyph>
<glyph name="Theta" format="1">
	<unicode hex="0398"/>
	<advance width="670"/>
	<outline>
		<contour>
			<point x="248" y="268" type="line"/>
			<point x="428" y="268" type="line"/>
			<point x="454" y="403" type="line"/>
			<point x="274" y="403" type="line"/>
		</contour>
		<component base="O"/>
	</outline>
</glyph>
<glyph name="Sigma" format="1">
	<unicode hex="03A3"/>
	<advance width="530"/>
	<outline>
		<contour>
			<point x="-6" y="0" type="line"/>
			<point x="446" y="0" type="line"/>
			<point x="472" y="134" type="line"/>
			<point x="230" y="134" type="line"/>
			<point x="406" y="334" type="line"/>
			<point x="282" y="518" type="line"/>
			<point x="522" y="518" type="line"/>
			<point x="548" y="650" type="line"/>
			<point x="128" y="650" type="line"/>
			<point x="108" y="554" type="line"/>
			<point x="250" y="332" type="line"/>
			<point x="14" y="96" type="line"/>
		</contour>
	</outline>
</glyph>
<glyph name="Phi" format="1">
	<unicode hex="03A6"/>
	<advance width="746"/>
	<outline>
		<contour>
			<point x="248" y="-22" type="line"/>
			<point x="394" y="-22" type="line"/>
			<point x="534" y="672" type="line"/>
			<point x="388" y="672" type="line"/>
		</contour>
		<contour>
			<point x="316" y="62" type="curve" smooth="yes"/>
			<point x="364" y="62" type="line" smooth="yes"/>
			<point x="568" y="62"/>
			<point x="728" y="170"/>
			<point x="728" y="360" type="curve" smooth="yes"/>
			<point x="728" y="506"/>
			<point x="624" y="590"/>
			<point x="466" y="590" type="curve" smooth="yes"/>
			<point x="418" y="590" type="line" smooth="yes"/>
			<point x="214" y="590"/>
			<point x="54" y="482"/>
			<point x="54" y="292" type="curve" smooth="yes"/>
			<point x="54" y="146"/>
			<point x="158" y="62"/>
		</contour>
		<contour>
			<point x="346" y="186" type="line" smooth="yes"/>
			<point x="262" y="186"/>
			<point x="210" y="234"/>
			<point x="210" y="312" type="curve" smooth="yes"/>
			<point x="210" y="408"/>
			<point x="286" y="466"/>
			<point x="388" y="466" type="curve" smooth="yes"/>
			<point x="436" y="466" type="line" smooth="yes"/>
			<point x="520" y="466"/>
			<point x="572" y="418"/>
			<point x="572" y="340" type="curve" smooth="yes"/>
			<point x="572" y="244"/>
			<point x="496" y="186"/>
			<point x="394" y="186" type="curve" smooth="yes"/>
		</contour>
	</outline>
</glyph>
<glyph name="Psi" format="1">
	<unicode hex="03A8"/>
	<advance width="730"/>
	<outline>
		<contour>
			<point x="359" y="214" type="curve"/>
			<point x="373" y="214" type="line" smooth="yes"/>
			<point x="617" y="214"/>
			<point x="697" y="308"/>
			<point x="733" y="490" type="curve" smooth="yes"/>
			<point x="765" y="650" type="line"/>
			<point x="611" y="650" type="line"/>
			<point x="581" y="500" type="line" smooth="yes"/>
			<point x="559" y="388"/>
			<point x="515" y="338"/>
			<point x="407" y="338" type="curve" smooth="yes"/>
			<point x="345" y="338" type="line" smooth="yes"/>
			<point x="271" y="338"/>
			<point x="247" y="370"/>
			<point x="247" y="448" type="curve" smooth="yes"/>
			<point x="247" y="474"/>
			<point x="251" y="492"/>
			<point x="255" y="510" type="curve" smooth="yes"/>
			<point x="283" y="650" type="line"/>
			<point x="129" y="650" type="line"/>
			<point x="99" y="502" type="line" smooth="yes"/>
			<point x="95" y="482"/>
			<point x="91" y="458"/>
			<point x="91" y="434" type="curve" smooth="yes"/>
			<point x="91" y="286"/>
			<point x="217" y="214"/>
		</contour>
		<contour>
			<point x="243" y="0" type="line"/>
			<point x="391" y="0" type="line"/>
			<point x="521" y="650" type="line"/>
			<point x="373" y="650" type="line"/>
		</contour>
	</outline>
</glyph>
<glyph name="alpha" format="1">
	<unicode hex="03B1"/>
	<advance width="576"/>
	<outline>
		<contour>
			<point x="184" y="-12" type="curve" smooth="yes"/>
			<point x="232" y="-12"/>
			<point x="296" y="14"/>
			<point x="332" y="78" type="curve"/>
			<point x="336" y="78" type="line"/>
			<point x="336" y="78"/>
			<point x="336" y="78"/>
			<point x="336" y="78" type="curve" smooth="yes"/>
			<point x="342" y="12"/>
			<point x="383" y="-12"/>
			<point x="448" y="-12" type="curve" smooth="yes"/>
			<point x="478" y="-12"/>
			<point x="504" y="-8"/>
			<point x="526" y="0" type="curve"/>
			<point x="532" y="120" type="line"/>
			<point x="522" y="118"/>
			<point x="514" y="116"/>
			<point x="500" y="116" type="curve" smooth="yes"/>
			<point x="482" y="116"/>
			<point x="466" y="124"/>
			<point x="466" y="148" type="curve" smooth="yes"/>
			<point x="466" y="194"/>
			<point x="528" y="370"/>
			<point x="580" y="500" type="curve"/>
			<point x="422" y="500" type="line"/>
			<point x="398" y="418" type="line"/>
			<point x="394" y="418" type="line"/>
			<point x="378" y="488"/>
			<point x="334" y="512"/>
			<point x="276" y="512" type="curve" smooth="yes"/>
			<point x="156" y="512"/>
			<point x="26" y="368"/>
			<point x="26" y="180" type="curve" smooth="yes"/>
			<point x="26" y="62"/>
			<point x="82" y="-12"/>
		</contour>
		<contour>
			<point x="246" y="118" type="curve" smooth="yes"/>
			<point x="212" y="118"/>
			<point x="192" y="140"/>
			<point x="192" y="196" type="curve" smooth="yes"/>
			<point x="192" y="302"/>
			<point x="254" y="382"/>
			<point x="302" y="382" type="curve" smooth="yes"/>
			<point x="332" y="382"/>
			<point x="350" y="364"/>
			<point x="362" y="314" type="curve"/>
			<point x="338" y="216" type="line"/>
			<point x="324" y="164"/>
			<point x="282" y="118"/>
		</contour>
		<contour>
			<point name="aboveLC" x="350" y="522" type="move"/>
		</contour>
		<contour>
			<point name="belowLC" x="260" y="-22" type="move"/>
		</contour>
	</outline>
</glyph>
<glyph name="beta" format="1">
	<unicode hex="03B2"/>
	<advance width="592"/>
	<outline>
		<contour>
			<point x="-28" y="-176" type="line"/>
			<point x="132" y="-176" type="line"/>
			<point x="142" y="-96"/>
			<point x="156" y="-16"/>
			<point x="170" y="64" type="curve"/>
			<point x="208" y="8"/>
			<point x="270" y="-12"/>
			<point x="322" y="-12" type="curve" smooth="yes"/>
			<point x="458" y="-12"/>
			<point x="548" y="82"/>
			<point x="548" y="202" type="curve" smooth="yes"/>
			<point x="548" y="286"/>
			<point x="504" y="344"/>
			<point x="436" y="366" type="curve"/>
			<point x="436" y="370" type="line"/>
			<point x="520" y="402"/>
			<point x="566" y="468"/>
			<point x="566" y="550" type="curve" smooth="yes"/>
			<point x="566" y="644"/>
			<point x="499" y="708"/>
			<point x="380" y="708" type="curve" smooth="yes"/>
			<point x="232" y="708"/>
			<point x="137" y="618"/>
			<point x="108" y="478" type="curve" smooth="yes"/>
		</contour>
		<contour>
			<point x="300" y="118" type="curve" smooth="yes"/>
			<point x="266" y="118"/>
			<point x="230" y="138"/>
			<point x="200" y="190" type="curve"/>
			<point x="219" y="280"/>
			<point x="238" y="364"/>
			<point x="258" y="454" type="curve" smooth="yes"/>
			<point x="276" y="536"/>
			<point x="306" y="582"/>
			<point x="356" y="582" type="curve" smooth="yes"/>
			<point x="390" y="582"/>
			<point x="412" y="560"/>
			<point x="412" y="520" type="curve" smooth="yes"/>
			<point x="412" y="482"/>
			<point x="384" y="418"/>
			<point x="288" y="408" type="curve"/>
			<point x="306" y="294" type="line"/>
			<point x="314" y="298"/>
			<point x="322" y="300"/>
			<point x="332" y="300" type="curve" smooth="yes"/>
			<point x="374" y="300"/>
			<point x="400" y="268"/>
			<point x="400" y="222" type="curve" smooth="yes"/>
			<point x="400" y="153"/>
			<point x="350" y="118"/>
		</contour>
	</outline>
</glyph>
<glyph name="gamma" format="1">
	<unicode hex="03B3"/>
	<advance width="524"/>
	<outline>
		<contour>
			<point x="83" y="-172" type="curve"/>
			<point x="238" y="-188" type="line"/>
			<point x="254" y="-132"/>
			<point x="266" y="-62"/>
			<point x="274" y="14" type="curve"/>
			<point x="434" y="207"/>
			<point x="484" y="326"/>
			<point x="548" y="496" type="curve"/>
			<point x="392" y="512" type="line"/>
			<point x="360" y="382"/>
			<point x="324" y="278"/>
			<point x="260" y="174" type="curve"/>
			<point x="256" y="174" type="line"/>
			<point x="250" y="285"/>
			<point x="228" y="414"/>
			<point x="198" y="512" type="curve"/>
			<point x="28" y="492" type="line"/>
			<point x="88" y="374"/>
			<point x="128" y="172"/>
			<point x="128" y="68" type="curve" smooth="yes"/>
			<point x="128" y="-20"/>
			<point x="108" y="-100"/>
		</contour>
	</outline>
</glyph>
<glyph name="delta" format="1">
	<unicode hex="03B4"/>
	<advance width="530"/>
	<outline>
		<contour>
			<point x="224" y="-12" type="curve" smooth="yes"/>
			<point x="374" y="-12"/>
			<point x="496" y="108"/>
			<point x="496" y="280" type="curve" smooth="yes"/>
			<point x="496" y="352"/>
			<point x="461" y="415"/>
			<point x="376" y="478" type="curve" smooth="yes"/>
			<point x="320" y="520"/>
			<point x="288" y="536"/>
			<point x="288" y="556" type="curve" smooth="yes"/>
			<point x="288" y="574"/>
			<point x="301" y="586"/>
			<point x="328" y="586" type="curve" smooth="yes"/>
			<point x="366" y="586"/>
			<point x="430" y="566"/>
			<point x="490" y="526" type="curve"/>
			<point x="548" y="630" type="line"/>
			<point x="480" y="680"/>
			<point x="400" y="708"/>
			<point x="318" y="708" type="curve" smooth="yes"/>
			<point x="208" y="708"/>
			<point x="150" y="646"/>
			<point x="150" y="564" type="curve" smooth="yes"/>
			<point x="150" y="500"/>
			<point x="201" y="439"/>
			<point x="264" y="394" type="curve" smooth="yes"/>
			<point x="327" y="349"/>
			<point x="346" y="316"/>
			<point x="346" y="258" type="curve" smooth="yes"/>
			<point x="346" y="176"/>
			<point x="288" y="116"/>
			<point x="244" y="116" type="curve" smooth="yes"/>
			<point x="207" y="116"/>
			<point x="178" y="147"/>
			<point x="178" y="202" type="curve" smooth="yes"/>
			<point x="178" y="284"/>
			<point x="243" y="356"/>
			<point x="316" y="358" type="curve"/>
			<point x="253" y="436" type="line"/>
			<point x="148" y="428"/>
			<point x="24" y="328"/>
			<point x="24" y="182" type="curve" smooth="yes"/>
			<point x="24" y="60"/>
			<point x="110" y="-12"/>
		</contour>
	</outline>
</glyph>
<glyph name="epsilon" format="1">
	<unicode hex="03B5"/>
	<advance width="449"/>
	<outline>
		<contour>
			<point x="196" y="-12" type="curve" smooth="yes"/>
			<point x="274" y="-12"/>
			<point x="335" y="4"/>
			<point x="400" y="46" type="curve"/>
			<point x="342" y="144" type="line"/>
			<point x="312" y="122"/>
			<point x="276" y="108"/>
			<point x="244" y="108" type="curve" smooth="yes"/>
			<point x="206" y="108"/>
			<point x="182" y="124"/>
			<point x="182" y="148" type="curve" smooth="yes"/>
			<point x="182" y="186"/>
			<point x="218" y="208"/>
			<point x="342" y="210" type="curve"/>
			<point x="330" y="314" type="line"/>
			<point x="312" y="307"/>
			<point x="300" y="304"/>
			<point x="286" y="304" type="curve" smooth="yes"/>
			<point x="258" y="304"/>
			<point x="238" y="315"/>
			<point x="238" y="340" type="curve" smooth="yes"/>
			<point x="238" y="366"/>
			<point x="267" y="390"/>
			<point x="324" y="390" type="curve" smooth="yes"/>
			<point x="348" y="390"/>
			<point x="368" y="384"/>
			<point x="394" y="376" type="curve"/>
			<point x="438" y="488" type="line"/>
			<point x="400" y="502"/>
			<point x="352" y="512"/>
			<point x="298" y="512" type="curve" smooth="yes"/>
			<point x="188" y="512"/>
			<point x="80" y="459"/>
			<point x="80" y="354" type="curve" smooth="yes"/>
			<point x="80" y="310"/>
			<point x="112" y="274"/>
			<point x="148" y="260" type="curve"/>
			<point x="148" y="256" type="line"/>
			<point x="72" y="236"/>
			<point x="18" y="192"/>
			<point x="18" y="118" type="curve" smooth="yes"/>
			<point x="18" y="34"/>
			<point x="96" y="-12"/>
		</contour>
		<contour>
			<point name="aboveLC" x="310" y="522" type="move"/>
		</contour>
	</outline>
</glyph>
<glyph name="zeta" format="1">
	<unicode hex="03B6"/>
	<advance width="448"/>
	<outline>
		<contour>
			<point x="296" y="-188" type="line"/>
			<point x="344" y="-136"/>
			<point x="392" y="-65"/>
			<point x="392" y="-2" type="curve" smooth="yes"/>
			<point x="392" y="58"/>
			<point x="364" y="86"/>
			<point x="280" y="112" type="curve" smooth="yes"/>
			<point x="216" y="132"/>
			<point x="190" y="152"/>
			<point x="190" y="200" type="curve" smooth="yes"/>
			<point x="190" y="304"/>
			<point x="340" y="490"/>
			<point x="492" y="568" type="curve"/>
			<point x="520" y="700" type="line"/>
			<point x="152" y="700" type="line"/>
			<point x="126" y="578" type="line"/>
			<point x="194" y="589"/>
			<point x="305" y="596"/>
			<point x="348" y="600" type="curve"/>
			<point x="348" y="596" type="line"/>
			<point x="188" y="490"/>
			<point x="26" y="348"/>
			<point x="26" y="178" type="curve" smooth="yes"/>
			<point x="26" y="60"/>
			<point x="96" y="16"/>
			<point x="182" y="-8" type="curve" smooth="yes"/>
			<point x="224" y="-20"/>
			<point x="242" y="-31"/>
			<point x="242" y="-56" type="curve" smooth="yes"/>
			<point x="242" y="-90"/>
			<point x="216" y="-122"/>
			<point x="194" y="-146" type="curve"/>
		</contour>
	</outline>
</glyph>
<glyph name="eta" format="1">
	<unicode hex="03B7"/>
	<advance width="548"/>
	<outline>
		<contour>
			<point x="244" y="-176" type="curve"/>
			<point x="406" y="-176" type="line"/>
			<point x="502" y="308" type="line" smooth="yes"/>
			<point x="508" y="338"/>
			<point x="512" y="366"/>
			<point x="512" y="390" type="curve" smooth="yes"/>
			<point x="512" y="466"/>
			<point x="480" y="512"/>
			<point x="406" y="512" type="curve" smooth="yes"/>
			<point x="334" y="512"/>
			<point x="283" y="467"/>
			<point x="233" y="414" type="curve"/>
			<point x="230" y="414" type="line"/>
			<point x="232" y="439"/>
			<point x="236" y="470"/>
			<point x="238" y="500" type="curve"/>
			<point x="92" y="500" type="line"/>
			<point x="90" y="424"/>
			<point x="84" y="386"/>
			<point x="76" y="346" type="curve" smooth="yes"/>
			<point x="8" y="0" type="line"/>
			<point x="168" y="0" type="line"/>
			<point x="228" y="310" type="line"/>
			<point x="262" y="353"/>
			<point x="292" y="376"/>
			<point x="322" y="376" type="curve" smooth="yes"/>
			<point x="344" y="376"/>
			<point x="356" y="362"/>
			<point x="356" y="328" type="curve" smooth="yes"/>
			<point x="356" y="296"/>
			<point x="298" y="36"/>
		</contour>
		<contour>
			<point name="aboveLC" x="340" y="520" type="move"/>
		</contour>
		<contour>
			<point name="belowLC" x="90" y="-20" type="move"/>
		</contour>
	</outline>
</glyph>
<glyph name="theta" format="1">
	<unicode hex="03B8"/>
	<advance width="536"/>
	<outline>
		<contour>
			<point x="218" y="-12" type="curve" smooth="yes"/>
			<point x="358" y="-12"/>
			<point x="470" y="120"/>
			<point x="508" y="302" type="curve" smooth="yes"/>
			<point x="518" y="349"/>
			<point x="526" y="424"/>
			<point x="526" y="466" type="curve" smooth="yes"/>
			<point x="526" y="598"/>
			<point x="458" y="708"/>
			<point x="322" y="708" type="curve" smooth="yes"/>
			<point x="188" y="708"/>
			<point x="84" y="580"/>
			<point x="84" y="462" type="curve" smooth="yes"/>
			<point x="84" y="348"/>
			<point x="146" y="286"/>
			<point x="326" y="286" type="curve" smooth="yes"/>
			<point x="384" y="286" type="line"/>
			<point x="394" y="394" type="line"/>
			<point x="348" y="394" type="line" smooth="yes"/>
			<point x="260" y="394"/>
			<point x="226" y="421"/>
			<point x="226" y="484" type="curve" smooth="yes"/>
			<point x="226" y="531"/>
			<point x="262" y="588"/>
			<point x="316" y="588" type="curve" smooth="yes"/>
			<point x="357" y="588"/>
			<point x="380" y="546"/>
			<point x="380" y="470" type="curve" smooth="yes"/>
			<point x="380" y="435"/>
			<point x="374" y="390"/>
			<point x="364" y="336" type="curve" smooth="yes"/>
			<point x="331" y="167"/>
			<point x="274" y="116"/>
			<point x="230" y="116" type="curve" smooth="yes"/>
			<point x="198" y="116"/>
			<point x="184" y="146"/>
			<point x="178" y="192" type="curve" smooth="yes"/>
			<point x="174" y="224"/>
			<point x="172" y="248"/>
			<point x="164" y="266" type="curve"/>
			<point x="20" y="242" type="line"/>
			<point x="28" y="218"/>
			<point x="32" y="200"/>
			<point x="38" y="154" type="curve" smooth="yes"/>
			<point x="52" y="52"/>
			<point x="110" y="-12"/>
		</contour>
	</outline>
</glyph>
<glyph name="kappa" format="1">
	<unicode hex="03BA"/>
	<advance width="524"/>
	<outline>
		<contour>
			<point x="4" y="0" type="line"/>
			<point x="153" y="0" type="line"/>
			<point x="159" y="30" type="line" smooth="yes"/>
			<point x="176" y="114"/>
			<point x="198" y="154"/>
			<point x="236" y="188" type="curve" smooth="yes"/>
			<point x="372" y="310"/>
			<point x="434" y="334"/>
			<point x="508" y="356" type="curve"/>
			<point x="484" y="507" type="line"/>
			<point x="382" y="468"/>
			<point x="304" y="402"/>
			<point x="220" y="291" type="curve"/>
			<point x="216" y="291" type="line"/>
			<point x="232" y="374" type="line" smooth="yes"/>
			<point x="240" y="416"/>
			<point x="246" y="467"/>
			<point x="246" y="500" type="curve"/>
			<point x="88" y="500" type="line"/>
			<point x="88" y="446"/>
			<point x="80" y="382"/>
			<point x="72" y="342" type="curve" smooth="yes"/>
		</contour>
		<contour>
			<point x="315" y="-11" type="curve"/>
			<point x="492" y="0" type="line"/>
			<point x="448" y="70"/>
			<point x="388" y="176"/>
			<point x="368" y="302" type="curve"/>
			<point x="244" y="209" type="line"/>
			<point x="265" y="106"/>
			<point x="294" y="32"/>
		</contour>
	</outline>
</glyph>
<glyph name="nu" format="1">
	<unicode hex="03BD"/>
	<advance width="514"/>
	<outline>
		<contour>
			<point x="98" y="0" type="curve"/>
			<point x="238" y="-12" type="line"/>
			<point x="390" y="170"/>
			<point x="476" y="308"/>
			<point x="538" y="496" type="curve"/>
			<point x="382" y="512" type="line"/>
			<point x="352" y="392"/>
			<point x="304" y="264"/>
			<point x="230" y="152" type="curve"/>
			<point x="226" y="152" type="line"/>
			<point x="236" y="264"/>
			<point x="218" y="426"/>
			<point x="198" y="512" type="curve"/>
			<point x="28" y="492" type="line"/>
			<point x="72" y="374"/>
			<point x="110" y="192"/>
		</contour>
	</outline>
</glyph>
<glyph name="xi" format="1">
	<unicode hex="03BE"/>
	<advance width="453"/>
	<outline>
		<contour>
			<point x="290" y="-188" type="line"/>
			<point x="338" y="-136"/>
			<point x="386" y="-65"/>
			<point x="386" y="-2" type="curve" smooth="yes"/>
			<point x="386" y="58"/>
			<point x="358" y="88"/>
			<point x="274" y="112" type="curve" smooth="yes"/>
			<point x="210" y="130"/>
			<point x="184" y="141"/>
			<point x="184" y="174" type="curve" smooth="yes"/>
			<point x="184" y="240"/>
			<point x="246" y="294"/>
			<point x="414" y="296" type="curve"/>
			<point x="398" y="412" type="line"/>
			<point x="378" y="404"/>
			<point x="360" y="400"/>
			<point x="340" y="400" type="curve" smooth="yes"/>
			<point x="304" y="400"/>
			<point x="284" y="422"/>
			<point x="284" y="448" type="curve" smooth="yes"/>
			<point x="284" y="512"/>
			<point x="338" y="556"/>
			<point x="470" y="576" type="curve"/>
			<point x="494" y="576" type="line"/>
			<point x="520" y="700" type="line"/>
			<point x="102" y="698" type="line"/>
			<point x="78" y="584" type="line"/>
			<point x="139" y="596"/>
			<point x="241" y="602"/>
			<point x="280" y="606" type="curve"/>
			<point x="280" y="602" type="line"/>
			<point x="150" y="564"/>
			<point x="126" y="498"/>
			<point x="126" y="452" type="curve" smooth="yes"/>
			<point x="126" y="396"/>
			<point x="160" y="364"/>
			<point x="208" y="350" type="curve"/>
			<point x="208" y="346" type="line"/>
			<point x="108" y="316"/>
			<point x="20" y="256"/>
			<point x="20" y="152" type="curve" smooth="yes"/>
			<point x="20" y="52"/>
			<point x="92" y="14"/>
			<point x="176" y="-8" type="curve" smooth="yes"/>
			<point x="222" y="-20"/>
			<point x="236" y="-32"/>
			<point x="236" y="-56" type="curve" smooth="yes"/>
			<point x="236" y="-90"/>
			<point x="210" y="-122"/>
			<point x="188" y="-146" type="curve"/>
		</contour>
	</outline>
</glyph>
<glyph name="pi" format="1">
	<unicode hex="03C0"/>
	<advance width="616"/>
	<outline>
		<contour>
			<point x="455" y="-12" type="curve" smooth="yes"/>
			<point x="490" y="-12"/>
			<point x="518" y="-4"/>
			<point x="537" y="3" type="curve"/>
			<point x="541" y="119" type="line"/>
			<point x="532" y="117"/>
			<point x="526" y="115"/>
			<point x="519" y="115" type="curve" smooth="yes"/>
			<point x="497" y="115"/>
			<point x="484" y="123"/>
			<point x="484" y="147" type="curve" smooth="yes"/>
			<point x="484" y="162"/>
			<point x="508" y="286"/>
			<point x="534" y="376" type="curve"/>
			<point x="610" y="376" type="line"/>
			<point x="634" y="500" type="line"/>
			<point x="144" y="500" type="line"/>
			<point x="70" y="494" type="line"/>
			<point x="46" y="376" type="line"/>
			<point x="146" y="376" type="line"/>
			<point x="125" y="270"/>
			<point x="86" y="134"/>
			<point x="36" y="0" type="curve"/>
			<point x="192" y="-12" type="line"/>
			<point x="234" y="110"/>
			<point x="269" y="260"/>
			<point x="292" y="376" type="curve"/>
			<point x="384" y="376" type="line"/>
			<point x="364" y="288"/>
			<point x="331" y="172"/>
			<point x="331" y="114" type="curve" smooth="yes"/>
			<point x="331" y="38"/>
			<point x="365" y="-12"/>
		</contour>
	</outline>
</glyph>
<glyph name="rho" format="1">
	<unicode hex="03C1"/>
	<advance width="560"/>
	<outline>
		<contour>
			<point x="-26" y="-176" type="line"/>
			<point x="136" y="-176" type="line"/>
			<point x="142" y="-106"/>
			<point x="152" y="-34"/>
			<point x="166" y="41" type="curve"/>
			<point x="195" y="7"/>
			<point x="239" y="-12"/>
			<point x="288" y="-12" type="curve" smooth="yes"/>
			<point x="399" y="-12"/>
			<point x="530" y="108"/>
			<point x="530" y="297" type="curve" smooth="yes"/>
			<point x="530" y="430"/>
			<point x="454" y="512"/>
			<point x="324" y="512" type="curve" smooth="yes"/>
			<point x="199" y="512"/>
			<point x="98" y="434"/>
			<point x="58" y="238" type="curve" smooth="yes"/>
		</contour>
		<contour>
			<point x="256" y="116" type="curve" smooth="yes"/>
			<point x="232" y="116"/>
			<point x="208" y="126"/>
			<point x="188" y="148" type="curve"/>
			<point x="210" y="254" type="line" smooth="yes"/>
			<point x="228" y="340"/>
			<point x="264" y="384"/>
			<point x="303" y="384" type="curve" smooth="yes"/>
			<point x="346" y="384"/>
			<point x="368" y="355"/>
			<point x="368" y="302" type="curve" smooth="yes"/>
			<point x="368" y="181"/>
			<point x="314" y="116"/>
		</contour>
		<contour>
			<point name="aboveLC" x="340" y="522" type="move"/>
		</contour>
	</outline>
</glyph>
<glyph name="sigma.end" format="1">
	<unicode hex="03C2"/>
	<advance width="462"/>
	<outline>
		<contour>
			<point x="296" y="-188" type="line"/>
			<point x="344" y="-136"/>
			<point x="392" y="-65"/>
			<point x="392" y="-2" type="curve" smooth="yes"/>
			<point x="392" y="60"/>
			<point x="364" y="88"/>
			<point x="280" y="118" type="curve" smooth="yes"/>
			<point x="212" y="142"/>
			<point x="190" y="172"/>
			<point x="190" y="214" type="curve" smooth="yes"/>
			<point x="190" y="303"/>
			<point x="254" y="386"/>
			<point x="336" y="386" type="curve" smooth="yes"/>
			<point x="358" y="386"/>
			<point x="380" y="382"/>
			<point x="406" y="374" type="curve"/>
			<point x="448" y="494" type="line"/>
			<point x="418" y="506"/>
			<point x="374" y="512"/>
			<point x="338" y="512" type="curve" smooth="yes"/>
			<point x="180" y="512"/>
			<point x="26" y="381"/>
			<point x="26" y="202" type="curve" smooth="yes"/>
			<point x="26" y="84"/>
			<point x="95" y="26"/>
			<point x="182" y="-2" type="curve" smooth="yes"/>
			<point x="220" y="-14"/>
			<point x="242" y="-28"/>
			<point x="242" y="-56" type="curve" smooth="yes"/>
			<point x="242" y="-90"/>
			<point x="210" y="-120"/>
			<point x="186" y="-146" type="curve"/>
		</contour>
	</outline>
</glyph>
<glyph name="sigma" format="1">
	<unicode hex="03C3"/>
	<advance width="566"/>
	<outline>
		<contour>
			<point x="228" y="-12" type="curve" smooth="yes"/>
			<point x="364" y="-12"/>
			<point x="478" y="111"/>
			<point x="478" y="255" type="curve" smooth="yes"/>
			<point x="478" y="306"/>
			<point x="460" y="354"/>
			<point x="424" y="378" type="curve"/>
			<point x="424" y="382" type="line"/>
			<point x="476" y="380"/>
			<point x="518" y="376"/>
			<point x="574" y="370" type="curve"/>
			<point x="600" y="500" type="line"/>
			<point x="322" y="500" type="line" smooth="yes"/>
			<point x="170" y="500"/>
			<point x="26" y="394"/>
			<point x="26" y="192" type="curve" smooth="yes"/>
			<point x="26" y="63"/>
			<point x="110" y="-12"/>
		</contour>
		<contour>
			<point x="240" y="116" type="curve" smooth="yes"/>
			<point x="206" y="116"/>
			<point x="188" y="142"/>
			<point x="188" y="194" type="curve" smooth="yes"/>
			<point x="188" y="300"/>
			<point x="230" y="372"/>
			<point x="290" y="372" type="curve" smooth="yes"/>
			<point x="324" y="372"/>
			<point x="340" y="335"/>
			<point x="340" y="284" type="curve" smooth="yes"/>
			<point x="340" y="180"/>
			<point x="292" y="116"/>
		</contour>
	</outline>
</glyph>
<glyph name="upsilon" format="1">
	<unicode hex="03C5"/>
	<advance width="530"/>
	<outline>
		<contour>
			<point x="206" y="-12" type="curve" smooth="yes"/>
			<point x="382" y="-12"/>
			<point x="500" y="140"/>
			<point x="500" y="409" type="curve" smooth="yes"/>
			<point x="500" y="436"/>
			<point x="500" y="460"/>
			<point x="494" y="510" type="curve"/>
			<point x="338" y="476" type="line"/>
			<point x="340" y="450"/>
			<point x="342" y="420"/>
			<point x="342" y="394" type="curve" smooth="yes"/>
			<point x="342" y="228"/>
			<point x="302" y="116"/>
			<point x="226" y="116" type="curve" smooth="yes"/>
			<point x="198" y="116"/>
			<point x="180" y="136"/>
			<point x="180" y="172" type="curve" smooth="yes"/>
			<point x="180" y="222"/>
			<point x="236" y="370"/>
			<point x="236" y="502" type="curve"/>
			<point x="82" y="498" type="line"/>
			<point x="76" y="354"/>
			<point x="30" y="240"/>
			<point x="30" y="160" type="curve" smooth="yes"/>
			<point x="30" y="65"/>
			<point x="82" y="-12"/>
		</contour>
		<contour>
			<point name="aboveLC" x="290" y="522" type="move"/>
		</contour>
	</outline>
</glyph>
<glyph name="chi" format="1">
	<unicode hex="03C7"/>
	<advance width="498"/>
	<outline>
		<contour>
			<point x="70" y="-188" type="line"/>
			<point x="209" y="40" type="line"/>
			<point x="213" y="40" type="line"/>
			<point x="234" y="-50"/>
			<point x="256" y="-130"/>
			<point x="275" y="-188" type="curve"/>
			<point x="442" y="-155" type="line"/>
			<point x="396" y="-60"/>
			<point x="346" y="56"/>
			<point x="314" y="169" type="curve"/>
			<point x="543" y="498" type="line"/>
			<point x="379" y="498" type="line"/>
			<point x="265" y="304" type="line"/>
			<point x="262" y="304" type="line"/>
			<point x="244" y="380"/>
			<point x="226" y="450"/>
			<point x="204" y="510" type="curve"/>
			<point x="38" y="476" type="line"/>
			<point x="90" y="376"/>
			<point x="130" y="272"/>
			<point x="158" y="166" type="curve"/>
			<point x="-90" y="-176" type="line"/>
		</contour>
	</outline>
</glyph>
<glyph name="psi" format="1">
	<unicode hex="03C8"/>
	<advance width="728"/>
	<outline>
		<contour>
			<point x="196" y="-176" type="line"/>
			<point x="340" y="-176" type="line"/>
			<point x="502" y="630" type="line"/>
			<point x="358" y="630" type="line"/>
		</contour>
		<contour>
			<point x="260" y="-12" type="curve"/>
			<point x="260" y="116" type="line"/>
			<point x="220" y="116"/>
			<point x="180" y="152"/>
			<point x="180" y="212" type="curve" smooth="yes"/>
			<point x="180" y="260"/>
			<point x="236" y="404"/>
			<point x="236" y="500" type="curve"/>
			<point x="82" y="500" type="line"/>
			<point x="76" y="392"/>
			<point x="30" y="276"/>
			<point x="30" y="200" type="curve" smooth="yes"/>
			<point x="30" y="81"/>
			<point x="110" y="-12"/>
		</contour>
		<contour>
			<point x="360" y="-12" type="line"/>
			<point x="570" y="-12"/>
			<point x="700" y="122"/>
			<point x="700" y="389" type="curve" smooth="yes"/>
			<point x="700" y="422"/>
			<point x="698" y="450"/>
			<point x="690" y="510" type="curve"/>
			<point x="534" y="490" type="line"/>
			<point x="542" y="420"/>
			<point x="542" y="398"/>
			<point x="542" y="374" type="curve" smooth="yes"/>
			<point x="542" y="210"/>
			<point x="486" y="116"/>
			<point x="360" y="116" type="curve"/>
		</contour>
	</outline>
</glyph>
<glyph name="omega" format="1">
	<unicode hex="03C9"/>
	<unicode hex="A7B7"/>
	<advance width="731"/>
	<outline>
		<contour>
			<point x="160" y="-12" type="curve" smooth="yes"/>
			<point x="229" y="-12"/>
			<point x="294" y="20"/>
			<point x="342" y="110" type="curve"/>
			<point x="346" y="110" type="line"/>
			<point x="354" y="24"/>
			<point x="402" y="-12"/>
			<point x="470" y="-12" type="curve" smooth="yes"/>
			<point x="612" y="-12"/>
			<point x="700" y="148"/>
			<point x="700" y="356" type="curve" smooth="yes"/>
			<point x="700" y="402"/>
			<point x="696" y="460"/>
			<point x="682" y="510" type="curve"/>
			<point x="530" y="476" type="line"/>
			<point x="542" y="432"/>
			<point x="546" y="376"/>
			<point x="546" y="328" type="curve" smooth="yes"/>
			<point x="546" y="215"/>
			<point x="502" y="116"/>
			<point x="462" y="116" type="curve" smooth="yes"/>
			<point x="438" y="116"/>
			<point x="428" y="134"/>
			<point x="428" y="176" type="curve" smooth="yes"/>
			<point x="428" y="226"/>
			<point x="448" y="314"/>
			<point x="470" y="366" type="curve"/>
			<point x="314" y="366" type="line"/>
			<point x="304" y="200"/>
			<point x="250" y="116"/>
			<point x="212" y="116" type="curve" smooth="yes"/>
			<point x="190" y="116"/>
			<point x="178" y="132"/>
			<point x="178" y="164" type="curve" smooth="yes"/>
			<point x="178" y="252"/>
			<point x="214" y="338"/>
			<point x="296" y="454" type="curve"/>
			<point x="156" y="510" type="line"/>
			<point x="82" y="412"/>
			<point x="26" y="274"/>
			<point x="26" y="148" type="curve" smooth="yes"/>
			<point x="26" y="46"/>
			<point x="82" y="-12"/>
		</contour>
		<contour>
			<point name="aboveLC" x="410" y="522" type="move"/>
		</contour>
		<contour>
			<point name="belowLC" x="330" y="-22" type="move"/>
		</contour>
	</outline>
</glyph>
<glyph name="beta.a" format="1">
	<unicode hex="03D0"/>
	<advance width="586"/>
	<outline>
		<contour>
			<point x="268" y="-12" type="curve" smooth="yes"/>
			<point x="404" y="-12"/>
			<point x="544" y="80"/>
			<point x="544" y="232" type="curve" smooth="yes"/>
			<point x="544" y="292"/>
			<point x="499" y="354"/>
			<point x="432" y="367" type="curve"/>
			<point x="433" y="371" type="line"/>
			<point x="510" y="402"/>
			<point x="566" y="464"/>
			<point x="566" y="550" type="curve" smooth="yes"/>
			<point x="566" y="658"/>
			<point x="492" y="708"/>
			<point x="374" y="708" type="curve" smooth="yes"/>
			<point x="236" y="708"/>
			<point x="144" y="622"/>
			<point x="104" y="462" type="curve" smooth="yes"/>
			<point x="58" y="280" type="line" smooth="yes"/>
			<point x="50" y="250"/>
			<point x="46" y="220"/>
			<point x="46" y="192" type="curve" smooth="yes"/>
			<point x="46" y="54"/>
			<point x="132" y="-12"/>
		</contour>
		<contour>
			<point x="286" y="124" type="curve" smooth="yes"/>
			<point x="228" y="124"/>
			<point x="202" y="159"/>
			<point x="202" y="214" type="curve" smooth="yes"/>
			<point x="202" y="245"/>
			<point x="221" y="305"/>
			<point x="252" y="430" type="curve" smooth="yes"/>
			<point x="276" y="524"/>
			<point x="306" y="585"/>
			<point x="360" y="585" type="curve" smooth="yes"/>
			<point x="387" y="585"/>
			<point x="412" y="567"/>
			<point x="412" y="532" type="curve" smooth="yes"/>
			<point x="412" y="452"/>
			<point x="354" y="406"/>
			<point x="173" y="374" type="curve"/>
			<point x="169" y="261" type="line"/>
			<point x="246" y="290"/>
			<point x="288" y="300"/>
			<point x="316" y="300" type="curve" smooth="yes"/>
			<point x="370" y="300"/>
			<point x="390" y="268"/>
			<point x="390" y="230" type="curve" smooth="yes"/>
			<point x="390" y="172"/>
			<point x="344" y="124"/>
		</contour>
	</outline>
</glyph>
<glyph name="theta.a" format="1">
	<unicode hex="03D1"/>
	<advance width="534"/>
	<outline>
		<contour>
			<point x="218" y="-12" type="curve" smooth="yes"/>
			<point x="406" y="-12"/>
			<point x="524" y="226"/>
			<point x="524" y="504" type="curve" smooth="yes"/>
			<point x="524" y="636"/>
			<point x="442" y="708"/>
			<point x="342" y="708" type="curve" smooth="yes"/>
			<point x="154" y="708"/>
			<point x="36" y="470"/>
			<point x="36" y="192" type="curve" smooth="yes"/>
			<point x="36" y="60"/>
			<point x="118" y="-12"/>
		</contour>
		<contour>
			<point x="234" y="116" type="curve" smooth="yes"/>
			<point x="202" y="116"/>
			<point x="184" y="138"/>
			<point x="184" y="198" type="curve" smooth="yes"/>
			<point x="184" y="374"/>
			<point x="254" y="580"/>
			<point x="326" y="580" type="curve" smooth="yes"/>
			<point x="358" y="580"/>
			<point x="376" y="558"/>
			<point x="376" y="498" type="curve" smooth="yes"/>
			<point x="376" y="322"/>
			<point x="306" y="116"/>
		</contour>
		<contour>
			<point x="130" y="302" type="line"/>
			<point x="408" y="302" type="line"/>
			<point x="432" y="405" type="line"/>
			<point x="154" y="405" type="line"/>
		</contour>
	</outline>
</glyph>
<glyph name="phi" format="1">
	<unicode hex="03D5"/>
	<unicode hex="03C6"/>
	<advance width="718"/>
	<outline>
		<contour>
			<point x="190" y="-176" type="line"/>
			<point x="342" y="-176" type="line"/>
			<point x="356" y="-68"/>
			<point x="400" y="121"/>
			<point x="428" y="272" type="curve" smooth="yes"/>
			<point x="444" y="344"/>
			<point x="464" y="364"/>
			<point x="494" y="364" type="curve" smooth="yes"/>
			<point x="518" y="364"/>
			<point x="528" y="347"/>
			<point x="528" y="314" type="curve" smooth="yes"/>
			<point x="528" y="196"/>
			<point x="461" y="112"/>
			<point x="384" y="110" type="curve"/>
			<point x="350" y="-8" type="line"/>
			<point x="535" y="-6"/>
			<point x="690" y="134"/>
			<point x="690" y="320" type="curve" smooth="yes"/>
			<point x="690" y="424"/>
			<point x="620" y="492"/>
			<point x="518" y="492" type="curve" smooth="yes"/>
			<point x="407" y="492"/>
			<point x="322" y="428"/>
			<point x="284" y="256" type="curve" smooth="yes"/>
		</contour>
		<contour>
			<point x="262" y="-8" type="curve"/>
			<point x="306" y="110" type="line"/>
			<point x="231" y="113"/>
			<point x="186" y="149"/>
			<point x="186" y="224" type="curve" smooth="yes"/>
			<point x="186" y="290"/>
			<point x="226" y="358"/>
			<point x="290" y="388" type="curve"/>
			<point x="244" y="512" type="line"/>
			<point x="120" y="470"/>
			<point x="24" y="360"/>
			<point x="24" y="212" type="curve" smooth="yes"/>
			<point x="24" y="60"/>
			<point x="146" y="-6"/>
		</contour>
	</outline>
</glyph>
<glyph name="kai" format="1">
	<unicode hex="03D7"/>
	<advance width="531"/>
	<outline>
		<contour>
			<point x="4" y="0" type="line"/>
			<point x="153" y="0" type="line"/>
			<point x="159" y="30" type="line" smooth="yes"/>
			<point x="176" y="114"/>
			<point x="198" y="154"/>
			<point x="236" y="188" type="curve" smooth="yes"/>
			<point x="374" y="310"/>
			<point x="458" y="364"/>
			<point x="528" y="388" type="curve"/>
			<point x="470" y="518" type="line"/>
			<point x="380" y="474"/>
			<point x="296" y="398"/>
			<point x="220" y="291" type="curve"/>
			<point x="216" y="291" type="line"/>
			<point x="232" y="374" type="line" smooth="yes"/>
			<point x="240" y="416"/>
			<point x="246" y="467"/>
			<point x="246" y="500" type="curve"/>
			<point x="88" y="500" type="line"/>
			<point x="88" y="446"/>
			<point x="80" y="382"/>
			<point x="72" y="342" type="curve" smooth="yes"/>
		</contour>
		<contour>
			<point x="120" y="-188" type="curve" smooth="yes"/>
			<point x="352" y="-188"/>
			<point x="478" y="-40"/>
			<point x="478" y="124" type="curve" smooth="yes"/>
			<point x="478" y="228"/>
			<point x="412" y="288"/>
			<point x="292" y="288" type="curve"/>
			<point x="233" y="192" type="line"/>
			<point x="290" y="192"/>
			<point x="320" y="158"/>
			<point x="320" y="100" type="curve" smooth="yes"/>
			<point x="320" y="8"/>
			<point x="240" y="-68"/>
			<point x="132" y="-68" type="curve" smooth="yes"/>
			<point x="90" y="-68"/>
			<point x="39" y="-54"/>
			<point x="6" y="-36" type="curve"/>
			<point x="-50" y="-142" type="line"/>
			<point x="-6" y="-174"/>
			<point x="60" y="-188"/>
		</contour>
	</outline>
</glyph>
<glyph name="koppa" format="1">
	<unicode hex="03D9"/>
	<unicode hex="03DF"/>
	<advance width="540"/>
	<outline>
		<contour>
			<point x="226" y="-12" type="curve" smooth="yes"/>
			<point x="364" y="-12"/>
			<point x="510" y="110"/>
			<point x="510" y="304" type="curve" smooth="yes"/>
			<point x="510" y="428"/>
			<point x="430" y="512"/>
			<point x="310" y="512" type="curve" smooth="yes"/>
			<point x="172" y="512"/>
			<point x="26" y="390"/>
			<point x="26" y="196" type="curve" smooth="yes"/>
			<point x="26" y="72"/>
			<point x="106" y="-12"/>
		</contour>
		<contour>
			<point x="244" y="108" type="curve" smooth="yes"/>
			<point x="206" y="108"/>
			<point x="188" y="142"/>
			<point x="188" y="198" type="curve" smooth="yes"/>
			<point x="188" y="306"/>
			<point x="234" y="384"/>
			<point x="292" y="384" type="curve" smooth="yes"/>
			<point x="330" y="384"/>
			<point x="348" y="352"/>
			<point x="348" y="302" type="curve" smooth="yes"/>
			<point x="348" y="188"/>
			<point x="302" y="108"/>
		</contour>
		<contour>
			<point x="104" y="-176" type="line"/>
			<point x="266" y="-176" type="line"/>
			<point x="276" y="-114"/>
			<point x="284" y="-50"/>
			<point x="302" y="14" type="curve"/>
			<point x="168" y="52" type="line"/>
		</contour>
	</outline>
</glyph>
<glyph name="stigma" format="1">
	<unicode hex="03DB"/>
	<advance width="488"/>
	<outline>
		<contour>
			<point x="296" y="-188" type="line"/>
			<point x="344" y="-136"/>
			<point x="392" y="-65"/>
			<point x="392" y="-2" type="curve" smooth="yes"/>
			<point x="392" y="60"/>
			<point x="364" y="88"/>
			<point x="280" y="118" type="curve" smooth="yes"/>
			<point x="212" y="142"/>
			<point x="190" y="172"/>
			<point x="190" y="214" type="curve" smooth="yes"/>
			<point x="190" y="302"/>
			<point x="254" y="384"/>
			<point x="352" y="382" type="curve"/>
			<point x="403" y="380"/>
			<point x="426" y="376"/>
			<point x="482" y="370" type="curve"/>
			<point x="508" y="500" type="line"/>
			<point x="346" y="500" type="line" smooth="yes"/>
			<point x="182" y="500"/>
			<point x="26" y="374"/>
			<point x="26" y="202" type="curve" smooth="yes"/>
			<point x="26" y="84"/>
			<point x="95" y="26"/>
			<point x="182" y="-2" type="curve" smooth="yes"/>
			<point x="220" y="-14"/>
			<point x="242" y="-28"/>
			<point x="242" y="-56" type="curve" smooth="yes"/>
			<point x="242" y="-90"/>
			<point x="210" y="-120"/>
			<point x="186" y="-146" type="curve"/>
		</contour>
	</outline>
</glyph>
<glyph name="digamma" format="1">
	<unicode hex="03DD"/>
	<advance width="419"/>
	<outline>
		<contour>
			<point x="-23" y="-176" type="line"/>
			<point x="137" y="-176" type="line"/>
			<point x="153" y="-67"/>
			<point x="167" y="22"/>
			<point x="187" y="122" type="curve"/>
			<point x="355" y="122" type="line"/>
			<point x="376" y="226" type="line"/>
			<point x="206" y="226" type="line"/>
			<point x="234" y="374" type="line"/>
			<point x="425" y="374" type="line"/>
			<point x="449" y="498" type="line"/>
			<point x="112" y="498" type="line"/>
		</contour>
	</outline>
</glyph>
<glyph name="sampi" format="1">
	<unicode hex="03E1"/>
	<advance width="524"/>
	<outline>
		<contour>
			<point x="417" y="-199" type="line"/>
			<point x="461" y="-80"/>
			<point x="491" y="36"/>
			<point x="491" y="168" type="curve" smooth="yes"/>
			<point x="491" y="376"/>
			<point x="419" y="565"/>
			<point x="274" y="703" type="curve"/>
			<point x="149" y="598" type="line"/>
			<point x="277" y="480"/>
			<point x="334" y="324"/>
			<point x="334" y="154" type="curve" smooth="yes"/>
			<point x="334" y="51"/>
			<point x="315" y="-39"/>
			<point x="267" y="-165" type="curve"/>
		</contour>
		<contour>
			<point x="115" y="-17" type="line"/>
			<point x="218" y="27"/>
			<point x="307" y="62"/>
			<point x="401" y="92" type="curve"/>
			<point x="437" y="238" type="line"/>
			<point x="77" y="119" type="line"/>
		</contour>
		<contour>
			<point x="64" y="196" type="line"/>
			<point x="168" y="240"/>
			<point x="257" y="275"/>
			<point x="350" y="305" type="curve"/>
			<point x="386" y="451" type="line"/>
			<point x="26" y="333" type="line"/>
		</contour>
	</outline>
</glyph>
<glyph name="Ieukran" format="1">
	<unicode hex="0404"/>
	<advance width="574"/>
	<outline>
		<contour>
			<point x="306" y="-12" type="curve" smooth="yes"/>
			<point x="404" y="-12"/>
			<point x="466" y="28"/>
			<point x="510" y="70" type="curve"/>
			<point x="444" y="172" type="line"/>
			<point x="414" y="146"/>
			<point x="378" y="126"/>
			<point x="336" y="126" type="curve" smooth="yes"/>
			<point x="250" y="126"/>
			<point x="214" y="180"/>
			<point x="214" y="274" type="curve" smooth="yes"/>
			<point x="214" y="414"/>
			<point x="300" y="524"/>
			<point x="392" y="524" type="curve" smooth="yes"/>
			<point x="430" y="524"/>
			<point x="462" y="510"/>
			<point x="490" y="472" type="curve"/>
			<point x="578" y="568" type="line"/>
			<point x="540" y="630"/>
			<point x="478" y="662"/>
			<point x="402" y="662" type="curve" smooth="yes"/>
			<point x="214" y="662"/>
			<point x="56" y="496"/>
			<point x="56" y="264" type="curve" smooth="yes"/>
			<point x="56" y="88"/>
			<point x="158" y="-12"/>
		</contour>
		<contour>
			<point x="146" y="268" type="line"/>
			<point x="442" y="268" type="line"/>
			<point x="468" y="402" type="line"/>
			<point x="173" y="402" type="line"/>
		</contour>
		<contour>
			<point name="aboveUC" x="370" y="672" type="move"/>
		</contour>
	</outline>
</glyph>
<glyph name="Lje" format="1">
	<unicode hex="0409"/>
	<advance width="898"/>
	<outline>
		<contour>
			<point x="22" y="-12" type="curve" smooth="yes"/>
			<point x="134" y="-12"/>
			<point x="202" y="52"/>
			<point x="290" y="278" type="curve" smooth="yes"/>
			<point x="320" y="356"/>
			<point x="348" y="432"/>
			<point x="378" y="516" type="curve"/>
			<point x="452" y="516" type="line"/>
			<point x="347" y="0" type="line"/>
			<point x="564" y="0" type="line" smooth="yes"/>
			<point x="716" y="0"/>
			<point x="854" y="70"/>
			<point x="854" y="246" type="curve" smooth="yes"/>
			<point x="854" y="350"/>
			<point x="778" y="420"/>
			<point x="642" y="420" type="curve" smooth="yes"/>
			<point x="590" y="420" type="line"/>
			<point x="638" y="650" type="line"/>
			<point x="278" y="650" type="line"/>
			<point x="234" y="532"/>
			<point x="190" y="412"/>
			<point x="142" y="296" type="curve" smooth="yes"/>
			<point x="86" y="162"/>
			<point x="64" y="148"/>
			<point x="32" y="148" type="curve" smooth="yes"/>
			<point x="20" y="148"/>
			<point x="10" y="150"/>
			<point x="4" y="152" type="curve"/>
			<point x="-46" y="-2" type="line"/>
			<point x="-30" y="-8"/>
			<point x="0" y="-12"/>
		</contour>
		<contour>
			<point x="532" y="126" type="line"/>
			<point x="566" y="294" type="line"/>
			<point x="608" y="294" type="line" smooth="yes"/>
			<point x="668" y="294"/>
			<point x="696" y="272"/>
			<point x="696" y="222" type="curve" smooth="yes"/>
			<point x="696" y="168"/>
			<point x="656" y="126"/>
			<point x="576" y="126" type="curve" smooth="yes"/>
		</contour>
	</outline>
</glyph>
<glyph name="Tshe" format="1">
	<unicode hex="040B"/>
	<advance width="694"/>
	<outline>
		<contour>
			<point x="120" y="0" type="line"/>
			<point x="278" y="0" type="line"/>
			<point x="333" y="272" type="line"/>
			<point x="353" y="282"/>
			<point x="378" y="287"/>
			<point x="399" y="287" type="curve" smooth="yes"/>
			<point x="449" y="287"/>
			<point x="474" y="262"/>
			<point x="474" y="218" type="curve" smooth="yes"/>
			<point x="474" y="206"/>
			<point x="472" y="192"/>
			<point x="470" y="182" type="curve" smooth="yes"/>
			<point x="432" y="0" type="line"/>
			<point x="587" y="0" type="line"/>
			<point x="624" y="186" type="line" smooth="yes"/>
			<point x="628" y="206"/>
			<point x="630" y="229"/>
			<point x="630" y="248" type="curve" smooth="yes"/>
			<point x="630" y="360"/>
			<point x="554" y="412"/>
			<point x="441" y="412" type="curve" smooth="yes"/>
			<point x="414" y="412"/>
			<point x="389" y="408"/>
			<point x="358" y="397" type="curve"/>
			<point x="382" y="516" type="line"/>
			<point x="569" y="516" type="line"/>
			<point x="596" y="651" type="line"/>
			<point x="106" y="651" type="line"/>
			<point x="80" y="516" type="line"/>
			<point x="224" y="516" type="line"/>
		</contour>
	</outline>
</glyph>
